<svg xmlns="http://www.w3.org/2000/svg"><defs><symbol id="ai" viewBox="0 0 34 34"><title>ai</title><path fill="#f36b10" d="M0 0h34v34H0z"/><path d="M14 12l-3 10h2l.6-2h2.8l.6 2h2l-3-10zm.2 6l.8-2.67.8 2.67zm6.8-6v10h2V12z" fill="#fff"/></symbol><symbol id="attachment" viewBox="0 0 34 34"><title>attachment</title><path fill="#8b8f95" d="M0 0h34v34H0z"/><path d="M22 8v14c0 2.89-1.31 6-5 6-4.51 0-5-4.2-5-6V10c0-3.32 1.28-4 3.2-4 1.39 0 2.8.48 2.8 4v13a1.17 1.17 0 0 1-1 1 1.17 1.17 0 0 1-1-1V8h-2v15a3.16 3.16 0 0 0 3 3 3.16 3.16 0 0 0 3-3V10c0-5-2.61-6-4.8-6-3.45 0-5.2 2-5.2 6v12c0 4.86 2.75 8 7 8s7-3.13 7-8V8z" fill="#fff"/></symbol><symbol id="audio" viewBox="0 0 34 34"><title>audio</title><path fill="#4186cf" d="M0 0h34v34H0z"/><path d="M12 8v12.55A4 4 0 1 0 14 24V10.75l12-1.5v9.3A4 4 0 1 0 28 22V6z" fill="#fff"/></symbol><symbol id="box_notes" viewBox="0 0 34 34"><title>box_notes</title><path fill="#00a6a4" d="M0 0h34v34H0z"/><path d="M13 16H4v2h7zm9-9H4v2h16zM4 27h4v-2H4zM26 7L10 23v4h4l16-16z" fill="#fff"/></symbol><symbol id="css" viewBox="0 0 34 34"><title>css</title><path fill="#4186cf" d="M0 0h34v34H0z"/><path d="M14 14v2a2 2 0 0 0 2 2h2v2h-4v2h4a2 2 0 0 0 2-2v-2a2 2 0 0 0-2-2h-2v-2h4v-2h-4a2 2 0 0 0-2 2zm-4-2H7.83A1.92 1.92 0 0 0 6 14v6a1.92 1.92 0 0 0 1.83 2H10a2 2 0 0 0 2-2v-1h-2v1H8v-6h2v1h2v-1a2 2 0 0 0-2-2zm18 2v-2h-4a2 2 0 0 0-2 2v2a2 2 0 0 0 2 2h2v2h-4v2h4a2 2 0 0 0 2-2v-2a2 2 0 0 0-2-2h-2v-2z" fill="#fff"/></symbol><symbol id="csv" viewBox="0 0 34 34"><title>csv</title><path fill="#18754c" d="M0 0h34v34H0z"/><path d="M13 14v2a2 2 0 0 0 2 2h2v2h-4v2h4a2 2 0 0 0 2-2v-2a2 2 0 0 0-2-2h-2v-2h4v-2h-4a2 2 0 0 0-2 2zm-4-2H6.83A1.92 1.92 0 0 0 5 14v6a1.92 1.92 0 0 0 1.83 2H9a2 2 0 0 0 2-2v-1H9v1H7v-6h2v1h2v-1a2 2 0 0 0-2-2zm18 0l-2 6.67L23 12h-2l3 10h2l3-10z" fill="#fff"/></symbol><symbol id="eps" viewBox="0 0 34 34"><title>eps</title><path fill="#ffc120" d="M0 0h34v34H0z"/><path d="M6 22h6v-2H8v-2h2v-2H8v-2h4v-2H6zm12-10h-4v10h2v-3h2a2 2 0 0 0 2-2v-3a2 2 0 0 0-2-2zm0 5h-2v-3h2zm10-3v-2h-4a2 2 0 0 0-2 2v2a2 2 0 0 0 2 2h2v2h-4v2h4a2 2 0 0 0 2-2v-2a2 2 0 0 0-2-2h-2v-2z" fill="#fff"/></symbol><symbol id="exe" viewBox="0 0 34 34"><title>exe</title><path fill="#8b8f95" d="M0 0h34v34H0z"/><path d="M5 22h6v-2H7v-2h2v-2H7v-2h4v-2H5zm24-8v-2h-6v10h6v-2h-4v-2h2v-2h-2v-2zm-7.87-2H19l-2 3.21L15.06 12h-2.19l3 5-3 4.89-.07.11H15l2-3.21L18.94 22h2.17l-3-5 3-4.89z" fill="#fff"/></symbol><symbol id="fla" viewBox="0 0 34 34"><title>fla</title><path fill="#e3280c" d="M0 0h34v34H0z"/><path d="M5 22h2v-4h2v-2H7v-2h4v-2H5zm21-10h-2l-3 10h2l.6-2h2.8l.6 2h2zm-1.8 6l.8-2.67.8 2.67zM15 12h-2v10h6v-2h-4z" fill="#fff"/></symbol><symbol id="folder" viewBox="0 0 34 34"><title>folder</title><path d="M0 32h34V8H0zM12 4l-2-2H0v4h34V4z" fill="#4186cf"/></symbol><symbol id="gdoc" viewBox="0 0 34 34"><title>gdoc</title><path fill="#4285f4" d="M0 0h34v34H0z"/><path d="M6 18h22v-2H6zm0 8h12v-2H6zm0-4h22v-2H6zm0-8h22v-2H6zm0-6v2h22V8z" fill="#fff"/></symbol><symbol id="gdocs" viewBox="0 0 34 34"><title>gdocs</title><path fill="#4285f4" d="M0 0h34v34H0z"/><path d="M25.38 16.2h-8v2.39h5.7a4.91 4.91 0 0 1-1.3 3 5.78 5.78 0 0 1-4.4 1.75 6.34 6.34 0 0 1 0-12.68 6.07 6.07 0 0 1 4.3 1.7l1.68-1.68a8.31 8.31 0 0 0-6-2.4 8.84 8.84 0 0 0-8.86 8.66 8.84 8.84 0 0 0 8.85 8.72 8 8 0 0 0 6.09-2.44 7.91 7.91 0 0 0 2.06-5.58 7.83 7.83 0 0 0-.12-1.44z" fill="#fff"/></symbol><symbol id="gform" viewBox="0 0 34 34"><title>gform</title><path fill="#673ab7" d="M0 0h34v34H0z"/><path d="M6 18h2v-2H6zm0-8h2V8H6zm0 4h2v-2H6zm0 12h2v-2H6zm0-4h2v-2H6zm4-8h18v-2H10zm0 12h18v-2H10zm0-8h18v-2H10zm0-10v2h18V8zm0 14h18v-2H10z" fill="#fff"/></symbol><symbol id="gpres" viewBox="0 0 34 34"><title>gpres</title><path fill="#ffc120" d="M0 0h34v34H0z"/><path d="M20 14V8H6v14h8v6h14V14zM8 19v-8h10v8zm18 6H16v-3h4v-5h6z" fill="#fff"/></symbol><symbol id="gsheet" viewBox="0 0 34 34"><title>gsheet</title><path fill="#20a971" d="M0 0h34v34H0z"/><path d="M6 7v20h22V7zm6 18H8v-4h4zm0-6H8v-4h4zm0-6H8V9h4zm14 12H14v-4h12zm0-6H14v-4h12zm0-6H14V9h12z" fill="#fff"/></symbol><symbol id="html" viewBox="0 0 34 34"><title>html</title><path fill="#f36b10" d="M0 0h34v34H0z"/><path d="M10 14h2v6h2v-6h2v-2h-6zm-3 1H5v-3H3v8h2v-3h2v3h2v-8H7zm21 3v-6h-2v8h5v-2zm-5-6h-4a2 2 0 0 0-2 2v6h2v-6h1v6h2v-6h1v6h2v-6a2 2 0 0 0-2-2z" fill="#fff"/></symbol><symbol id="image" viewBox="0 0 34 34"><title>image</title><path fill="#00a6a4" d="M0 0h34v34H0z"/><path d="M19 15a2 2 0 1 0-2-2 2 2 0 0 0 2 2zM6 6v22h22V6zm20 20H8V8h18zm-7-8l-2 3-3-5-4 8h14z" fill="#fff"/></symbol><symbol id="js" viewBox="0 0 34 34"><title>js</title><path fill="#ffc120" d="M0 0h34v34H0z"/><path d="M14 20h-2v-2h-2v2a2 2 0 0 0 2 2h2a2 2 0 0 0 2-2v-8h-2zm10-6v-2h-4a2 2 0 0 0-2 2v2a2 2 0 0 0 2 2h2v2h-4v2h4a2 2 0 0 0 2-2v-2a2 2 0 0 0-2-2h-2v-2z" fill="#fff"/></symbol><symbol id="key" viewBox="0 0 34 34"><title>key</title><path fill="#f36b10" d="M0 0h34v34H0z"/><path d="M14 22h5v-2h-3v-2h2v-2h-2v-2h3v-2h-5zm-4-10l-3 4v-4H5v10h2v-3l.65-.91L10 22h2l-3.17-5.56L12 12zm17 0l-2 4-2-4h-2l3 6v4h2v-4l3-6z" fill="#fff"/></symbol><symbol id="library_folder" viewBox="0 0 34 34"><title>library_folder</title><path d="M0 32h34V8H0zM12 4l-2-2H0v4h34V4z" fill="#603dd8"/><path d="M12 19h2v-2h-2zm0 4h2v-2h-2zm4 0h2v-2h-2zm4-6v2h2v-2zm0 6h2v-2h-2zm-4-4h2v-2h-2z" fill="#fff"/></symbol><symbol id="link" viewBox="0 0 34 34"><title>link</title><path fill="#4186cf" d="M0 0h34v34H0z"/><path d="M6 17a5 5 0 0 1 5-5h3v-2h-3a7 7 0 0 0 0 14h3v-2h-3a5 5 0 0 1-5-5zm17-7h-3v2h3a5 5 0 0 1 0 10h-3v2h3a7 7 0 0 0 0-14zm-11 8h10v-2H12z" fill="#fff"/></symbol><symbol id="mp4" viewBox="0 0 34 34"><title>mp4</title><path fill="#603dd8" d="M0 0h34v34H0z"/><path d="M12 12H6a2 2 0 0 0-2 2v8h2v-8h2v8h2v-8h2v8h2v-8a2 2 0 0 0-2-2zm8 0h-4v10h2v-3h2a2 2 0 0 0 2-2v-3a2 2 0 0 0-2-2zm0 5h-2v-3h2zm8-5v4h-2v-4h-2v6h4v4h2V12z" fill="#fff"/></symbol><symbol id="overlay" viewBox="0 0 34 34"><title>overlay</title><path fill="#603dd8" d="M0 0h34v34H0z"/><path d="M22 6H6v16h4V10h12zm-10 6v16h16V12z" fill="#fff"/></symbol><symbol id="pack" viewBox="0 0 34 34"><title>pack</title><path fill="#4186cf" d="M0 0h34v34H0z"/><path d="M6 6v4h22V6zm0 22h22V12H6zm6-12h10v4H12z" fill="#fff"/></symbol><symbol id="pdf" viewBox="0 0 34 34"><title>pdf</title><path fill="#e3280c" d="M0 0h34v34H0z"/><path d="M10 12H6v10h2v-4h2a2 2 0 0 0 2-2v-2a2 2 0 0 0-2-2zm0 4H8v-2h2zm8-4h-4v10h4a2 2 0 0 0 2-2v-6a2 2 0 0 0-2-2zm0 8h-2v-6h2zm10-6v-2h-6v10h2v-4h2v-2h-2v-2z" fill="#fff"/></symbol><symbol id="pgs" viewBox="0 0 34 34"><title>pgs</title><path fill="#603dd8" d="M0 0h34v34H0z"/><path d="M10 12H6v10h2v-3h2a2 2 0 0 0 2-2v-3a2 2 0 0 0-2-2zm0 5H8v-3h2zm18-3v-2h-4a2 2 0 0 0-2 2v2a2 2 0 0 0 2 2h2v2h-4v2h4a2 2 0 0 0 2-2v-2a2 2 0 0 0-2-2h-2v-2zm-14 0v6a1.92 1.92 0 0 0 1.83 2H20v-5h-2v3h-2v-6h4v-2h-4.17A1.92 1.92 0 0 0 14 14z" fill="#fff"/></symbol><symbol id="ppt" viewBox="0 0 34 34"><title>ppt</title><path fill="#e3280c" d="M0 0h34v34H0z"/><path d="M22 12v2h2v8h2v-8h2v-2zm-12 0H6v10h2v-3h2a2 2 0 0 0 2-2v-3a2 2 0 0 0-2-2zm0 5H8v-3h2zm8-5h-4v10h2v-3h2a2 2 0 0 0 2-2v-3a2 2 0 0 0-2-2zm0 5h-2v-3h2z" fill="#fff"/></symbol><symbol id="psd" viewBox="0 0 34 34"><title>psd</title><path fill="#4186cf" d="M0 0h34v34H0z"/><path d="M26 12h-4v10h4a2 2 0 0 0 2-2v-6a2 2 0 0 0-2-2zm0 8h-2v-6h2zm-16-8H6v10h2v-3h2a2 2 0 0 0 2-2v-3a2 2 0 0 0-2-2zm0 5H8v-3h2zm4-3v2a2 2 0 0 0 2 2h2v2h-4v2h4a2 2 0 0 0 2-2v-2a2 2 0 0 0-2-2h-2v-2h4v-2h-4a2 2 0 0 0-2 2z" fill="#fff"/></symbol><symbol id="quip_doc" viewBox="0 0 34 34"><title>quip_doc</title><path fill="#4186cf" d="M0 0h34v34H0z"/><path d="M17.48 18.77a.89.89 0 0 1-1 1 .89.89 0 0 1-1-1v-3.1h-1.92v3.48a2 2 0 0 0 .74 1.67 3.61 3.61 0 0 0 2.19.56 3.64 3.64 0 0 0 2.2-.56 2 2 0 0 0 .73-1.67v-3.48h-1.94zm-9.1-5.69a4.37 4.37 0 0 0 0 8.74A4.28 4.28 0 0 0 10 21.5l1.35 1.34 1.38-1.37-1.12-1.1a4.37 4.37 0 0 0-3.25-7.29zm0 6.6a2.23 2.23 0 1 1 2.22-2.23 2.23 2.23 0 0 1-2.22 2.23zm12.15 1.5h1.94v-5.51h-1.94zm9.27-3.89a2.79 2.79 0 0 0-.59-.93 2.63 2.63 0 0 0-.88-.63 2.71 2.71 0 0 0-1.1-.23 2 2 0 0 0-1.7.78v-.61h-1.94v8.25h1.94v-3.28a2.31 2.31 0 0 0 1.72.71 2.72 2.72 0 0 0 2-.85 3 3 0 0 0 .58-.92 3 3 0 0 0 .17-1.14 3.13 3.13 0 0 0-.2-1.15zm-1.93 1.62a1.31 1.31 0 0 1-.26.4 1.41 1.41 0 0 1-.4.27 1.28 1.28 0 0 1-.48.09 1.19 1.19 0 0 1-.49-.1 1.41 1.41 0 0 1-.4-.27 1.36 1.36 0 0 1-.27-.39 1.28 1.28 0 0 1-.09-.48 1.16 1.16 0 0 1 .1-.49 1.23 1.23 0 0 1 .27-.4 1.05 1.05 0 0 1 .39-.27 1.29 1.29 0 0 1 .48-.1 1.35 1.35 0 0 1 .5.1 1.26 1.26 0 0 1 .4.28 1.23 1.23 0 0 1 .27.4 1.37 1.37 0 0 1 .09.49 1.12 1.12 0 0 1-.11.47zm-5.6-6.13a1 1 0 0 0-.35-.23 1.07 1.07 0 0 0-.43-.09 1 1 0 0 0-.42.09 1 1 0 0 0-.35.23 1 1 0 0 0-.32.77 1.18 1.18 0 0 0 .08.43 1.21 1.21 0 0 0 .24.35 1 1 0 0 0 .35.23 1 1 0 0 0 .42.09 1.07 1.07 0 0 0 .43-.09 1 1 0 0 0 .35-.23 1.18 1.18 0 0 0 .23-.33 1 1 0 0 0 .09-.43 1 1 0 0 0-.09-.42 1.18 1.18 0 0 0-.23-.37z" fill="#fff"/></symbol><symbol id="quip_sheet" viewBox="0 0 34 34"><title>quip_sheet</title><path fill="#78bf4b" d="M0 0h34v34H0z"/><path d="M17.48 18.77a.89.89 0 0 1-1 1 .89.89 0 0 1-1-1v-3.1h-1.92v3.48a2 2 0 0 0 .74 1.67 3.61 3.61 0 0 0 2.19.56 3.64 3.64 0 0 0 2.2-.56 2 2 0 0 0 .73-1.67v-3.48h-1.94zm-9.1-5.69a4.37 4.37 0 0 0 0 8.74A4.28 4.28 0 0 0 10 21.5l1.35 1.34 1.38-1.37-1.12-1.1a4.37 4.37 0 0 0-3.25-7.29zm0 6.6a2.23 2.23 0 1 1 2.22-2.23 2.23 2.23 0 0 1-2.22 2.23zm12.15 1.5h1.94v-5.51h-1.94zm9.27-3.89a2.79 2.79 0 0 0-.59-.93 2.63 2.63 0 0 0-.88-.63 2.71 2.71 0 0 0-1.1-.23 2 2 0 0 0-1.7.78v-.61h-1.94v8.25h1.94v-3.28a2.31 2.31 0 0 0 1.72.71 2.72 2.72 0 0 0 2-.85 3 3 0 0 0 .58-.92 3 3 0 0 0 .17-1.14 3.13 3.13 0 0 0-.2-1.15zm-1.93 1.62a1.31 1.31 0 0 1-.26.4 1.41 1.41 0 0 1-.4.27 1.28 1.28 0 0 1-.48.09 1.19 1.19 0 0 1-.49-.1 1.41 1.41 0 0 1-.4-.27 1.36 1.36 0 0 1-.27-.39 1.28 1.28 0 0 1-.09-.48 1.16 1.16 0 0 1 .1-.49 1.23 1.23 0 0 1 .27-.4 1.05 1.05 0 0 1 .39-.27 1.29 1.29 0 0 1 .48-.1 1.35 1.35 0 0 1 .5.1 1.26 1.26 0 0 1 .4.28 1.23 1.23 0 0 1 .27.4 1.37 1.37 0 0 1 .09.49 1.12 1.12 0 0 1-.11.47zm-5.6-6.13a1 1 0 0 0-.35-.23 1.07 1.07 0 0 0-.43-.09 1 1 0 0 0-.42.09 1 1 0 0 0-.35.23 1 1 0 0 0-.32.77 1.18 1.18 0 0 0 .08.43 1.21 1.21 0 0 0 .24.35 1 1 0 0 0 .35.23 1 1 0 0 0 .42.09 1.07 1.07 0 0 0 .43-.09 1 1 0 0 0 .35-.23 1.18 1.18 0 0 0 .23-.33 1 1 0 0 0 .09-.43 1 1 0 0 0-.09-.42 1.18 1.18 0 0 0-.23-.37z" fill="#fff"/></symbol><symbol id="rtf" viewBox="0 0 34 34"><title>rtf</title><path fill="#4186cf" d="M0 0h34v34H0z"/><path d="M10 12H6v10h2v-3h1.25l.75 3h2l-.84-3.37A2 2 0 0 0 12 17v-3a2 2 0 0 0-2-2zm0 5H8v-3h2zm4-3h2v8h2v-8h2v-2h-6zm14 0v-2h-6v10h2v-4h2v-2h-2v-2z" fill="#fff"/></symbol><symbol id="slide" viewBox="0 0 34 34"><title>slide</title><path fill="#ffc120" d="M0 0h34v34H0z"/><path d="M6 6v22h22V6zm20 18H8V10h18z" fill="#fff"/></symbol><symbol id="stypi" viewBox="0 0 34 34"><title>stypi</title><path fill="#00a6a4" d="M0 0h34v34H0z"/><path d="M6 6v22h22V6zm10 20H8v-2h8zm10-4H8v-2h18zm0-4H8v-2h18zm0-4H8v-2h18zm0-4H8V8h18z" fill="#fff"/></symbol><symbol id="unknown" viewBox="0 0 34 34"><title>unknown</title><path fill="#8b8f95" d="M0 0h34v34H0z"/><path d="M16 26h2v-2h-2zm1-18c-3.28 0-5 3-5 6h2c0-1.38.63-4 3-4a2.69 2.69 0 0 1 3 3 3.51 3.51 0 0 1-1.52 3.25C17.38 17.21 16 18.41 16 22h2c0-2.68.83-3.4 1.79-4.24A5.43 5.43 0 0 0 22 13c0-2.42-1.31-5-5-5z" fill="#fff"/></symbol><symbol id="video" viewBox="0 0 34 34"><title>video</title><path fill="#603dd8" d="M0 0h34v34H0z"/><path fill="#fff" d="M10 11v14l14-7-14-7"/></symbol><symbol id="vis" viewBox="0 0 34 34"><title>vis</title><path fill="#496ab3" d="M0 0h34v34H0z"/><path d="M10 18.67L8 12H6l3 10h2l3-10h-2zM16 22h2V12h-2zm11-8v-2h-4a2 2 0 0 0-2 2v2a2 2 0 0 0 2 2h2v2h-4v2h4a2 2 0 0 0 2-2v-2a2 2 0 0 0-2-2h-2v-2z" fill="#fff"/></symbol><symbol id="webex" viewBox="0 0 34 34"><title>webex</title><path fill="#88c446" d="M0 0h34v34H0z"/><path d="M17 6a11 11 0 1 0 11 11A11 11 0 0 0 17 6zm0 20V8a9 9 0 0 1 0 18z" fill="#fff"/></symbol><symbol id="word" viewBox="0 0 34 34"><title>word</title><path fill="#4186cf" d="M22 0H4v34h26V8l-8-8"/><path d="M8 26h9v-2H8zm9-18H8v2h9zM8 18h18v-2H8zm0 4h18v-2H8zm0-10v2h18v-2z" fill="#fff"/></symbol><symbol id="xls" viewBox="0 0 34 34"><title>xls</title><path fill="#18754c" d="M0 0h34v34H0z"/><path d="M13.13 12H11l-2 3.21L7.06 12H4.87l3 5-3 4.89V22H7l2-3.21L10.94 22h2.17l-3-5 3-4.89zM29 14v-2h-4a2 2 0 0 0-2 2v2a2 2 0 0 0 2 2h2v2h-4v2h4a2 2 0 0 0 2-2v-2a2 2 0 0 0-2-2h-2v-2zm-12-2h-2v10h6v-2h-4z" fill="#fff"/></symbol><symbol id="xml" viewBox="0 0 34 34"><title>xml</title><path fill="#78bf4b" d="M0 0h34v34H0z"/><path d="M12.13 12H10l-2 3.21L6.06 12H3.87l3 5-3 4.89V22H6l2-3.21L9.94 22h2.17l-3-5 3-4.89zM21 12h-6a2 2 0 0 0-2 2v8h2v-8h2v8h2v-8h2v8h2v-8a2 2 0 0 0-2-2zm6 8v-8h-2v10h5v-2z" fill="#fff"/></symbol><symbol id="zip" viewBox="0 0 34 34"><title>zip</title><path fill="#8b8f95" d="M0 0h34v34H0z"/><path d="M7 14h4l-4 6v2h6v-2H9l4-6v-2H7zm18-2h-4v10h2v-4h2a2 2 0 0 0 2-2v-2a2 2 0 0 0-2-2zm0 4h-2v-2h2zm-9 6h2V12h-2z" fill="#fff"/></symbol></defs></svg>