<?xml version="1.0" encoding="utf-8"?>
<!-- Generator: Adobe Illustrator 23.0.2, SVG Export Plug-In . SVG Version: 6.00 Build 0)  -->
<svg version="1.1" id="Layer_1" xmlns="http://www.w3.org/2000/svg" xmlns:xlink="http://www.w3.org/1999/xlink" x="0px" y="0px"
	 viewBox="0 0 128 128" style="enable-background:new 0 0 128 128;" xml:space="preserve">
<style type="text/css">
	.st0{fill:#D0D3D8;}
</style>
<title>authentication-provider</title>
<path class="st0" d="M64,24L35,35v34.9c-0.01,7.02,2.88,13.73,8,18.54L65,104l20.6-15.61c4.75-4.78,7.41-11.26,7.4-18V35L64,24z
	 M91,70.36c0,6.18-2.42,12.12-6.74,16.54l-19.33,14.57L44.25,86.91C39.6,82.47,36.98,76.32,37,69.9V36.18l27-9.9l27,9.9V70.36z"/>
<polygon class="st0" points="48.71,61.29 47.29,62.71 57,72.41 79.71,49.71 78.29,48.29 57,69.59 "/>
</svg>
