<svg xmlns="http://www.w3.org/2000/svg"><defs><symbol id="accordion" viewBox="0 0 34 34"><path d="M12 4h22v2H12zM12 28h22v2H12zM4 7l4-4H0l4 4M2 33l4-4-4-4v8M12 16h22v2H12zM2 21l4-4-4-4v8"/></symbol><symbol id="action-sequences" viewBox="0 0 34 34"><title>icons-17px-utility</title><path d="M8 5H5l2-5-6 7h3l-2 5zm15 25H5V19h6v-2H3v15h20v2l3-3-3-3zm7-1v4h4v-4zm3-24H12l-2 2h21v10h-5v-2l-3 3 3 3v-2h7zM15 16v4h4v-4z"/></symbol><symbol id="actions" viewBox="0 0 34 34"><title>actions</title><path d="M18 0h-2v6h2zM3.3 29.3l1.4 1.4 4-4-1.4-1.4zM6 16H0v2h6zM30.7 4.7l-1.4-1.4-4 4 1.4 1.4zM28 16v2h6v-2zm-2.7 10.7l4 4 1.4-1.4-4-4zM14 20.6l-3.3-3.3-1.4 1.4 4.7 4.7 9.7-9.7-1.4-1.4zM16 34h2v-6h-2zM3.3 4.7l4 4 1.4-1.4-4-4z"/></symbol><symbol id="add-circle" viewBox="0 0 34 34"><title>add-circle</title><path d="M17 2a15 15 0 1 0 15 15A15 15 0 0 0 17 2zm0 28a13 13 0 1 1 13-13 13 13 0 0 1-13 13zm1-20h-2v6h-6v2h6v6h2v-6h6v-2h-6z"/></symbol><symbol id="add-page" viewBox="0 0 34 34"><title>add-page</title><path d="M22 0H4v34h26V8zm0 2.8L27.2 8H22zM28 32H6V2h14v8h8zM18 16h-2v4h-4v2h4v4h2v-4h4v-2h-4z"/></symbol><symbol id="add-user" viewBox="0 0 34 34"><title>add-user</title><path d="M15 20c4 0 7-4 7-10s-3-8-7-8-7 2-7 8 3 10 7 10zm0-16c2.5 0 5 .7 5 6s-2.1 8-5 8-5-3.3-5-8 2.5-6 5-6zM7.6 20.8l-1.2-1.6C2.2 22 0 26.7 0 33v1h30v-2H2c.2-5.1 2.1-8.9 5.6-11.2zM28 22v-4h-2v4h-4v2h4v4h2v-4h4v-2z"/></symbol><symbol id="add" viewBox="0 0 34 34"><title>add</title><path d="M18 16V2h-2v14H2v2h14v14h2V18h14v-2H18"/></symbol><symbol id="anchor-link" viewBox="0 0 34 34"><title>anchor-link</title><path d="M29.9 20A12.9 12.9 0 0 1 18 32V14h6v-2h-6V7.9A4.1 4.1 0 0 0 21 4a4 4 0 0 0-8 0 4.1 4.1 0 0 0 3 3.9V12h-6v2h6v18A12.9 12.9 0 0 1 4.1 20h-2a14.9 14.9 0 0 0 29.8 0zM15 4a2 2 0 1 1 2 2 2 2 0 0 1-2-2z"/></symbol><symbol id="announcement" viewBox="0 0 34 34"><title>announcement</title><path d="M20 29.7l-10-2.5V24H8v4.8l14 3.5V26h-2v3.7M6 10H0v10h6l28 6V4zm26 13.5L6.4 18H2v-6h4.4L32 6.5z"/></symbol><symbol id="answer" viewBox="0 0 34 34"><title>answer</title><path d="M25.7 9.7l-1.4-1.4L14 17.6l-3.3-3.3-1.4 1.4 4.7 4.7L25.7 9.7"/><path d="M0 0v28h11l6 6 6-6h11V0zm32 26H22l-5 5-5-5H2V2h30z"/></symbol><symbol id="apex" viewBox="0 0 34 34"><title>apex</title><path d="M-.7 6.7L9.6 17-.7 27.3l1.4 1.4L12.4 17 .7 5.3-.7 6.7M14 26h20v2H14z"/></symbol><symbol id="approval" viewBox="0 0 34 34"><title>approval</title><path d="M14 20.6l-3.3-3.3-1.4 1.4 4.7 4.7 10.7-10.7-1.4-1.4zm18.9-6.4l-.8-.7.4-1a3.9 3.9 0 0 0-2.4-5l-1-.4v-1a4 4 0 0 0-3.9-3.5h-1.4l-.5-.8A4 4 0 0 0 19.9 0a3.9 3.9 0 0 0-2.1.6l-.8.5-.8-.5a3.9 3.9 0 0 0-2.1-.6 4 4 0 0 0-3.4 1.9l-.5.8H8.8a4 4 0 0 0-3.9 3.4v1l-.9.4a3.9 3.9 0 0 0-2.4 5l.4 1-.8.7a4 4 0 0 0 0 5.6l.8.7-.4 1a3.9 3.9 0 0 0 2.4 5l1 .4v1a4 4 0 0 0 3.9 3.5h1.4l.5.8a4 4 0 0 0 3.3 1.8 3.9 3.9 0 0 0 2.1-.6l.8-.5.8.5a3.9 3.9 0 0 0 2.1.6 4 4 0 0 0 3.4-1.9l.5-.8h1.4a4 4 0 0 0 3.9-3.5v-1l.9-.4a3.9 3.9 0 0 0 2.4-5l-.4-1 .8-.7a4 4 0 0 0 .1-5.5zm-1.5 4.2l-.7.7a2 2 0 0 0-.4 2.1l.3.9a2 2 0 0 1-1.2 2.6l-.9.3a2 2 0 0 0-1.3 1.6v1.1a1.9 1.9 0 0 1-1.9 1.7h-1.6a1.7 1.7 0 0 0-1.6.9l-.6.9a1.7 1.7 0 0 1-1.6.9 1.9 1.9 0 0 1-1-.3l-.9-.6a1.8 1.8 0 0 0-2 0l-.9.6a1.9 1.9 0 0 1-1 .3 1.7 1.7 0 0 1-1.6-.9l-.6-.9a1.7 1.7 0 0 0-1.6-.9H8.8a1.9 1.9 0 0 1-1.9-1.7v-1.1A2 2 0 0 0 5.5 25l-.9-.3a2 2 0 0 1-1.2-2.6l.3-.9a2 2 0 0 0-.4-2.1l-.7-.7a1.9 1.9 0 0 1 0-2.8l.7-.7a2 2 0 0 0 .4-2.1l-.3-.9a2 2 0 0 1 1.2-2.6l.9-.3a2 2 0 0 0 1.3-1.6V6.3a1.9 1.9 0 0 1 2-1.7h1.5a1.7 1.7 0 0 0 1.6-.9l.6-.9a1.7 1.7 0 0 1 1.6-.8 1.9 1.9 0 0 1 1 .3l.9.6a1.8 1.8 0 0 0 2 0l.9-.6a1.9 1.9 0 0 1 1-.3 1.7 1.7 0 0 1 1.6.9l.6.9a1.7 1.7 0 0 0 1.6.9h1.5a1.9 1.9 0 0 1 1.9 1.7v1A2 2 0 0 0 28.5 9l.9.3a2 2 0 0 1 1.2 2.6l-.3.9a2 2 0 0 0 .4 2.1l.7.7a1.9 1.9 0 0 1 0 2.8z"/></symbol><symbol id="apps" viewBox="0 0 34 34"><title>apps</title><path d="M12 28h4v-4h-4zm0-6h4v-4h-4zM6 10h4V6H6zm6 6h4v-4h-4zm-6 6h4v-4H6zm0 6h4v-4H6zm0-12h4v-4H6zm6-6h4V6h-4zm12 12h4v-4h-4zm0-6h4v-4h-4zm0 12h4v-4h-4zm0-22v4h4V6zm-6 4h4V6h-4zm0 12h4v-4h-4zm0-6h4v-4h-4zm0 12h4v-4h-4z"/></symbol><symbol id="arrow-bottom-left" viewBox="0 0 34 34"><title>arrow-bottom-left_1</title><path d="M30.7 4.7l-1.4-1.4L6 26.6V18H4v12h12v-2H7.4L30.7 4.7"/></symbol><symbol id="arrow-bottom-right" viewBox="0 0 34 34"><title>arrow-bottom-right</title><path d="M30 28V18h-2v8.6L4.7 3.3 3.3 4.7 26.6 28H18v2h12v-2"/></symbol><symbol id="arrow-down" viewBox="0 0 34 34"><title>arrow-down_1</title><path d="M24.8 25.1L17 34l-7.8-8.9 1.6-1.3 5.2 6V.5h2v29.3l5.2-6 1.6 1.3"/></symbol><symbol id="arrow-left" viewBox="0 0 34 34"><title>arrow-left</title><path d="M34 16H4.5L15.6 4.7l-1.5-1.4L.6 17l13.5 13.7 1.5-1.4L4.5 18H34v-2"/></symbol><symbol id="arrow-right" viewBox="0 0 34 34"><title>arrow-right</title><path d="M20.7 3.3l-1.4 1.4L29.7 16H2v2h27.7L19.3 29.3l1.4 1.4L33.4 17 20.7 3.3"/></symbol><symbol id="arrow-top-left" viewBox="0 0 34 34"><title>arrow-top-left</title><path d="M6 4h10v2H7.4l23.3 23.3-1.4 1.4L6 7.4V16H4V4h2"/></symbol><symbol id="arrow-top-right" viewBox="0 0 34 34"><title>arrow-top-right</title><path d="M28 4H18v2h8.6L3.3 29.3l1.4 1.4L28 7.4V16h2V4h-2"/></symbol><symbol id="arrow-up" viewBox="0 0 34 34"><title>arrow-up</title><path d="M17 .5L9.2 9.3l1.6 1.4 5.2-6V34h2V4.7l5.2 6 1.6-1.4L17 .5"/></symbol><symbol id="attach" viewBox="0 0 34 34"><title>attach</title><path d="M17 34c-4.3 0-7-3.1-7-8V6c0-4 1.8-6 5.2-6S20 1 20 6v21a3.2 3.2 0 0 1-3 3 3.2 3.2 0 0 1-3-3V4h2v23a1.3 1.3 0 0 0 1 1 1.3 1.3 0 0 0 1-1V6c0-3.5-1.4-4-2.8-4S12 2.7 12 6v20c0 1.8.5 6 5 6s5-3.1 5-6V4h2v22c0 4.9-2.7 8-7 8z"/></symbol><symbol id="autocomplete" viewBox="0 0 34 34"><path d="M4 12a3 3 0 1 0 3-3 3 3 0 0 0-3 3zM2 3h29l2-2H0v22h16l2-2H2zm13 6a3 3 0 1 0 3 3 3 3 0 0 0-3-3zm19 10h-6l4-9-13 13h7l-6 11z"/></symbol><symbol id="avatar" viewBox="0 0 34 34"><title>icons-17px-utility</title><path d="M0 0v34h34V0zm32 32H2V2h30z"/><path d="M17 23c4 0 7-4 7-10s-3-8-7-8-7 2-7 8 3 10 7 10zm0-16c2.47 0 5 .71 5 6 0 4.71-2.06 8-5 8s-5-3.29-5-8c0-5.29 2.53-6 5-6zM10.55 22.83l-1.1-1.66c-3.14 2.09-4.28 4.17-5.4 7.51l1.9.64c.99-2.98 1.93-4.71 4.6-6.49zM28.05 29.32l1.9-.64c-1.12-3.34-2.26-5.42-5.4-7.51l-1.1 1.66c2.67 1.78 3.61 3.51 4.6 6.49z"/></symbol><symbol id="backpack" viewBox="0 0 34 34"><title>backpack</title><path d="M32 20h-2v-5.5a6.1 6.1 0 0 0 2-4.5V6a2 2 0 0 0-2-2h-6V2a2 2 0 0 0-2-2H12a2 2 0 0 0-2 2v2H4a2 2 0 0 0-2 2v4a6.1 6.1 0 0 0 2 4.5V20H2a2 2 0 0 0-2 2v8a2 2 0 0 0 2 2h2a2 2 0 0 0 2 2h22a2 2 0 0 0 2-2h2a2 2 0 0 0 2-2v-8a2 2 0 0 0-2-2zM12 2h10v2H12zM4 6h26v4a4 4 0 0 1-4 4h-2v-2h-2v2H12v-2h-2v2H8a4 4 0 0 1-4-4zM2 30v-8h2v8zm25.6 2H6.4a.4.4 0 0 1-.4-.4V15.7a6.4 6.4 0 0 0 2 .3h2v2h2v-2h10v2h2v-2h2a6.4 6.4 0 0 0 2-.3v15.9a.4.4 0 0 1-.4.4zm4.4-2h-2v-8h2zM8 30h18V20H8zm2-8h14v6H10z"/></symbol><symbol id="badge" viewBox="0 0 34 34"><path d="M18 16h-3v-5h-2v7h5v5h2V11h-2zm5-10H11a11 11 0 0 0 0 22h12a11 11 0 0 0 0-22zm0 20H11a9 9 0 0 1 0-18h12a9 9 0 0 1 0 18z"/></symbol><symbol id="ban" viewBox="0 0 34 34"><title>ban</title><path d="M17 2a15 15 0 1 0 15 15A15 15 0 0 0 17 2zM4 17A13 13 0 0 1 17 4a12.8 12.8 0 0 1 7.9 2.7L8.1 26.4A13 13 0 0 1 4 17zm13 13a13.2 13.2 0 0 1-7.4-2.3L26.4 8.1A12.8 12.8 0 0 1 30 17a13 13 0 0 1-13 13z"/></symbol><symbol id="bold" viewBox="0 0 34 34"><title>bold</title><path d="M23 15.2a5.8 5.8 0 0 0 1-3.2 6.1 6.1 0 0 0-6.2-6H8v22h11a7 7 0 0 0 7-7 7.3 7.3 0 0 0-3-5.8zM12 10h5.8a2 2 0 1 1 0 4H12zm7 14h-7v-6h7a3 3 0 0 1 0 6z"/></symbol><symbol id="bookmark" viewBox="0 0 34 34"><title>bookmark</title><path d="M25.8 2c.1 0 .2 0 .2.1v28l-7.8-5.7-1.2-.9-1.2.9L8 30.1v-28c0-.1.1-.1.2-.1h17.6m0-2H8.2A2.1 2.1 0 0 0 6 2v32l11-8 11 8V2a2.1 2.1 0 0 0-2.2-2z"/></symbol><symbol id="border-all" viewBox="0 0 34 34"><title>border-all</title><path d="M32 0H0v34h34V0zm0 32H2V2h30z"/></symbol><symbol id="border-bottom" viewBox="0 0 34 34"><title>border-bottom</title><path d="M32 28h2v2h-2zm0-2h2v-2h-2zm0-4h2v-2h-2zm0-4h2v-2h-2zm0-4h2v-2h-2zm0-4h2V8h-2zm0-4h2V4h-2zM2 24H0v2h2zm0-4H0v2h2zm0-4H0v2h2zm0-4H0v2h2zm0-4H0v2h2zm0-4H0v2h2zm0 24H0v2h2zM6 0H4v2h2zM2 0H0v2h2zm8 0H8v2h2zm4 0h-2v2h2zm4 0h-2v2h2zm4 0h-2v2h2zm4 0h-2v2h2zm4 0h-2v2h2zm2 0v2h2V0zM0 34h34v-2H0z"/></symbol><symbol id="border-left" viewBox="0 0 34 34"><title>border-left</title><path d="M4 32h2v2H4zm4 2h2v-2H8zm4 0h2v-2h-2zm4 0h2v-2h-2zm4 0h2v-2h-2zm4 0h2v-2h-2zm4 0h2v-2h-2zM8 2h2V0H8zm4 0h2V0h-2zm4 0h2V0h-2zm4 0h2V0h-2zm4 0h2V0h-2zm4 0h2V0h-2zM4 2h2V0H4zm28 4h2V4h-2zm0-6v2h2V0zm0 10h2V8h-2zm0 4h2v-2h-2zm0 4h2v-2h-2zm0 4h2v-2h-2zm0 4h2v-2h-2zm0 4h2v-2h-2zm0 4h2v-2h-2zM0 34h2V0H0z"/></symbol><symbol id="border-none" viewBox="0 0 34 34"><title>border-none</title><path d="M0 4h2v2H0zm0 6h2V8H0zm0 4h2v-2H0zm0 4h2v-2H0zm0 4h2v-2H0zm0 4h2v-2H0zm0 4h2v-2H0zm32-20h2V8h-2zm0 4h2v-2h-2zm0 4h2v-2h-2zm0 4h2v-2h-2zm0 4h2v-2h-2zm0 4h2v-2h-2zm0-24h2V4h-2zm-4 28h2v-2h-2zm4 0h2v-2h-2zm-8 0h2v-2h-2zm-4 0h2v-2h-2zm-4 0h2v-2h-2zm-4 0h2v-2h-2zm-4 0h2v-2H8zm-4 0h2v-2H4zm-4 0h2v-2H0zM28 2h2V0h-2zm4-2v2h2V0zm-8 2h2V0h-2zm-4 0h2V0h-2zm-4 0h2V0h-2zm-4 0h2V0h-2zM8 2h2V0H8zM4 2h2V0H4zM0 2h2V0H0z"/></symbol><symbol id="border-right" viewBox="0 0 34 34"><title>border-right</title><path d="M28 0h2v2h-2zm-4 2h2V0h-2zm-4 0h2V0h-2zm-4 0h2V0h-2zm-4 0h2V0h-2zM8 2h2V0H8zM4 2h2V0H4zm20 32h2v-2h-2zm-4 0h2v-2h-2zm-4 0h2v-2h-2zm-4 0h2v-2h-2zm-4 0h2v-2H8zm-4 0h2v-2H4zm24 0h2v-2h-2zM0 30h2v-2H0zm0 4h2v-2H0zm0-8h2v-2H0zm0-4h2v-2H0zm0-4h2v-2H0zm0-4h2v-2H0zm0-4h2V8H0zm0-4h2V4H0zm0-4h2V0H0zm32-2v34h2V0z"/></symbol><symbol id="border-separate" viewBox="0 0 34 34"><title>Asset 1</title><g data-name="Layer 1"><path d="M28 2l2-2H4l2 2h22M6 32l-2 2h26l-2-2H6M32 6v22l2 2V4l-2 2M2 6L0 4v26l2-2V6"/></g></symbol><symbol id="border-top" viewBox="0 0 34 34"><title>border-top</title><path d="M0 4h2v2H0zm0 6h2V8H0zm0 4h2v-2H0zm0 4h2v-2H0zm0 4h2v-2H0zm0 4h2v-2H0zm0 4h2v-2H0zm32-20h2V8h-2zm0 4h2v-2h-2zm0 4h2v-2h-2zm0 4h2v-2h-2zm0 4h2v-2h-2zm0 4h2v-2h-2zm0-24h2V4h-2zm-4 28h2v-2h-2zm4 0h2v-2h-2zm-8 0h2v-2h-2zm-4 0h2v-2h-2zm-4 0h2v-2h-2zm-4 0h2v-2h-2zm-4 0h2v-2H8zm-4 0h2v-2H4zm-4 0h2v-2H0zM0 0v2h34V0z"/></symbol><symbol id="breadcrumbs" viewBox="0 0 34 34"><title>breadcrumbs</title><path d="M24 4H2a2 2 0 0 0-2 2v20a2 2 0 0 0 2 2h22l10-12zM2 26V6h7l10 10L9 26zm21.1 0H12l10-10L12 6h11.1l8.3 10z"/></symbol><symbol id="broadcast" viewBox="0 0 34 34"><title>broadcast</title><path d="M17 10a5 5 0 0 0-5 5 5 5 0 0 0 4 4.9V34h2V19.9a5 5 0 0 0 4-4.9 5 5 0 0 0-5-5zm0 8a3 3 0 1 1 3-3 2.9 2.9 0 0 1-3 3zM27.6 3.2l-1.2 1.6c.1.1 5.6 3.8 5.6 10.2s-5.5 10.1-5.6 10.2l1.2 1.6c.2-.1 6.4-4.4 6.4-11.8S27.8 3.3 27.6 3.2z"/><path d="M24.6 8.2l-1.2 1.6A6.4 6.4 0 0 1 26 15a6.6 6.6 0 0 1-2.6 5.2l1.2 1.6a8.5 8.5 0 0 0 0-13.6zM2 15C2 8.6 7.5 4.9 7.6 4.8L6.4 3.2C6.2 3.3 0 7.6 0 15s6.2 11.7 6.4 11.8l1.2-1.6C7.5 25.1 2 21.4 2 15z"/><path d="M10.6 9.8L10 9l-.6-.8a8.5 8.5 0 0 0 0 13.6l1.2-1.6A6.4 6.4 0 0 1 8 15a6.6 6.6 0 0 1 2.6-5.2z"/></symbol><symbol id="brush" viewBox="0 0 34 34"><title>brush</title><path d="M4 26c0 2-1 3-4 3 5 5 12 3 12-2l-5-5c-1 0-3 1-3 4zM32 0L10 20l4 4L34 2l-2-2"/></symbol><symbol id="bucket" viewBox="0 0 34 34"><title>bucket</title><path d="M30 22s-2 2.9-2 4a2 2 0 0 0 4 0c0-1.1-2-4-2-4zM16 9.4V0h-2v14h2V9.4"/><path d="M18 7v3l8 8H4l8-8V7L1 18l14 14 14-14L18 7"/></symbol><symbol id="builder" viewBox="0 0 34 34"><title>builder</title><path d="M0 0v14h34V0zm32 12H2V2h30zM0 34h12V16H0zm2-16h8v14H2zM14 34h20V16H14zm2-16h16v14H16z"/></symbol><symbol id="button-group" viewBox="0 0 34 34"><title>icons-17px-utility</title><path d="M6 16v11l3.12-1.17 2 4.56 1.84-.78L11 25.13 14 24zM0 8v14h4v-2H2V10h14v10h-3l2 2h19V8zm32 12H18V10h14z"/></symbol><symbol id="button-set" viewBox="0 0 34 34"><title>icons-17px-utility</title><path d="M6 15v11l3.12-1.17 2 4.56 1.84-.78L11 24.13 14 23zm-6-4v8h4v-2H2v-4h12v4h-3l2 2h3v-8zM34 11H18v8h16v-8zm-7 6v-4h5v4zm-7 0v-4h5v4z"/></symbol><symbol id="button" viewBox="0 0 34 34"><title>button_1</title><path d="M24 24l-3 1.1 1.9 4.5-1.8.8-2-4.6L16 27V16zM0 8v14h14v-2H2V10h30v10h-9l2 2h9V8z"/></symbol><symbol id="call" viewBox="0 0 34 34"><title>call</title><path d="M24 20l-2 4s-4.9-1-8-4a17.2 17.2 0 0 1-4-6l4-4-4-10H0s-1 14.9 9 24.9S29.6 34 33.1 34h.9V23zm8 12c-4.2-.2-14.3-1.3-21.5-8.5S2.1 6.1 2 2h6.7l3 7.5-4 3.9.4 1.2a18.8 18.8 0 0 0 4.5 6.8c3.4 3.4 8.8 4.5 9 4.6l1.5.3.7-1.4 1.2-2.5 7 2.1z"/></symbol><symbol id="campaign" viewBox="0 0 34 34"><title>campaign</title><path d="M17 0a17 17 0 1 0 17 17A17 17 0 0 0 17 0zm0 32a15 15 0 1 1 15-15 15 15 0 0 1-15 15zm0-26a11 11 0 1 0 11 11A11 11 0 0 0 17 6zm0 20a9 9 0 1 1 9-9 9 9 0 0 1-9 9zm5-9a5 5 0 1 1-5-5 5 5 0 0 1 5 5z"/></symbol><symbol id="caps-lock" viewBox="0 0 34 34"><title>caps-lock</title><path d="M17 11.3l6.3 5.5 1.4-1.6L17 8.7l-7.7 6.5 1.4 1.6 6.3-5.5M8 22h18v2H8z"/></symbol><symbol id="cases" viewBox="0 0 34 34"><title>cases</title><path d="M32 12v18H2V12h30m2-2H0v22h34V10zm-8-8H8v6h2V4h14v4h2z"/></symbol><symbol id="center-align-text" viewBox="0 0 34 34"><title>center-align-text</title><path d="M8 4h18v2H8zM4 10h26v2H4zM8 16h18v2H8zM8 28h18v2H8zM4 22h26v2H4z"/></symbol><symbol id="change-record-type" viewBox="0 0 34 34"><title>change-record-type</title><path d="M34.7 17.3L29 11.6l-5.7 5.7 1.4 1.4 3.3-3.3V28H12v2h18V15.4l3.3 3.3 1.4-1.4M6 18.6V6h16V4H4v14.6L.7 15.3l-1.4 1.4L5 22.4l5.7-5.7-1.4-1.4L6 18.6M34 0H24v10h10zm-2 8h-6V2h6zM0 34h10V24H0zm2-8h6v6H2z"/></symbol><symbol id="chart" viewBox="0 0 34 34"><title>chart</title><path d="M22 28v2h2v-2zm0-2h-2v2h2zm4-2v2h2v-2zm-2 2v2h2v-2zM17 0a17 17 0 0 0 0 34 16.6 16.6 0 0 0 10.9-4h.1a8.6 8.6 0 0 0 1.9-2h.1a16.6 16.6 0 0 0 4-11A17 17 0 0 0 17 0zm1 2.1A14.7 14.7 0 0 1 31.9 16H18zM31.7 20H30v2h1.1a13.9 13.9 0 0 1-2.1 4h-1v1.1l-.9.9H26v1l-1.6 1H24v.2a7.2 7.2 0 0 1-2 .9V30h-2v1.7l-2 .2V30h2v-2h-2v-2h2v-2h-2v-2h2v-2h-2v-2h2v2h2v-2h2v2h2v-2h2v2h2v-2h1.9a13.6 13.6 0 0 1-.2 2zM28 24h2v-2h-2zm-6 0v2h2v-2zm6-2v-2h-2v2zm-6 0h-2v2h2zm2 0v2h2v-2zm0 0v-2h-2v2z"/></symbol><symbol id="chat" viewBox="0 0 34 34"><title>chat</title><path d="M17 16a2 2 0 1 0-2-2 2 2 0 0 0 2 2zm9 0a2 2 0 1 0-2-2 2 2 0 0 0 2 2zM8 16a2 2 0 1 0-2-2 2 2 0 0 0 2 2zM0 0v28h11l6 6 6-6h11V0zm32 26H22l-5 5-5-5H2V2h30z"/></symbol><symbol id="check-in-circle" viewBox="0 0 34 34"><path d="M14 20.23l-3.29-3.29-1.42 1.41L14 23.06l10.71-10.71-1.42-1.41zM17 2a15 15 0 1 0 15 15A15 15 0 0 0 17 2zm0 28a13 13 0 1 1 13-13 13 13 0 0 1-13 13z"/></symbol><symbol id="check" viewBox="0 0 34 34"><title>check</title><path d="M14 24.1l-6.7-6.7 1.4-1.5 5.3 5.3L25.3 9.9l1.4 1.5L14 24.1"/></symbol><symbol id="checkbox-indeterminate" viewBox="0 0 34 34"><title>checkbox-indeterminate</title><path d="M8 16h18v2H8z"/></symbol><symbol id="checkbox" viewBox="0 0 34 34"><path d="M14 21.23l-5.29-5.29-1.42 1.41L14 24.06l12.71-12.71-1.42-1.41zM30 0H4a4 4 0 0 0-4 4v26a4 4 0 0 0 4 4h26a4 4 0 0 0 4-4V4a4 4 0 0 0-4-4zm2 30a2 2 0 0 1-2 2H4a2 2 0 0 1-2-2V4a2 2 0 0 1 2-2h26a2 2 0 0 1 2 2z"/></symbol><symbol id="checkin" viewBox="0 0 34 34"><title>checkin</title><path d="M29.4 9A13.1 13.1 0 0 0 18.5.1H17A13 13 0 0 0 4 13c0 10 13 21 13 21S33.3 21.4 29.4 9zM17.1 31.3a45 45 0 0 1-5-5.3C8.1 21.1 6 16.6 6 13A11 11 0 0 1 17 2h1.3a11.2 11.2 0 0 1 9.2 7.5c2.8 9.1-6.9 18.7-10.4 21.8z"/><path d="M17 8a5 5 0 1 0 5 5 5 5 0 0 0-5-5zm0 8a3 3 0 1 1 3-3 2.9 2.9 0 0 1-3 3z"/></symbol><symbol id="checkmark" viewBox="0 0 34 34"><path d="M32.28 4.3L9.84 27.52 1.71 19.3.29 20.7l9.57 9.68L33.72 5.7l-1.44-1.4"/></symbol><symbol id="chevron-double" viewBox="0 0 34 34"><title>chevron-double</title><path d="M24.3 13.7L18 7.4l-6.3 6.3-1.4-1.4L18 4.6l7.7 7.7zm1.4 8l-1.4-1.4-6.3 6.3-6.3-6.3-1.4 1.4 7.7 7.7z"/></symbol><symbol id="chevron-down" viewBox="0 0 34 34"><title>chevron-down</title><path d="M17 25L1.3 10.4 2.7 9 17 22.3 31.3 9l1.4 1.4L17 25"/></symbol><symbol id="chevron-left" viewBox="0 0 34 34"><title>chevron-left</title><path d="M23.6 32.7L8.9 17 23.6 1.3l1.5 1.4L11.7 17l13.4 14.3-1.5 1.4"/></symbol><symbol id="chevron-right" viewBox="0 0 34 34"><title>chevron-right</title><path d="M10.4 32.7l-1.5-1.4L22.3 17 8.9 2.7l1.5-1.4L25.1 17 10.4 32.7"/></symbol><symbol id="chevron-small-down" viewBox="0 0 34 34"><title>chevron-small-down</title><path d="M17 22.4l-7.7-7.7 1.4-1.4 6.3 6.3 6.3-6.3 1.4 1.4-7.7 7.7"/></symbol><symbol id="chevron-small-left" viewBox="0 0 34 34"><title>chevron-small-left</title><path d="M19.8 24.7L12.1 17l7.7-7.7 1.4 1.4-6.3 6.3 6.3 6.3-1.4 1.4"/></symbol><symbol id="chevron-small-right" viewBox="0 0 34 34"><title>chevron-small-right</title><path d="M14.2 24.7l-1.4-1.4 6.3-6.3-6.3-6.3 1.4-1.4 7.7 7.7-7.7 7.7"/></symbol><symbol id="chevron-small-up" viewBox="0 0 34 34"><title>chevron-small-up</title><path d="M23.3 21.7L17 15.4l-6.3 6.3-1.4-1.4 7.7-7.7 7.7 7.7-1.4 1.4"/></symbol><symbol id="chevron-up" viewBox="0 0 34 34"><title>chevron-up</title><path d="M31.3 24.7L17 10.4 2.7 24.7l-1.4-1.4L17 7.6l15.7 15.7-1.4 1.4"/></symbol><symbol id="choropleth" viewBox="0 0 34 34"><title>choropleth</title><path d="M22 26h-2v2h2zm0 2v2h2v-2zm12-11V-.1H-.1V34h34.2zM4 16H2V2.1h2zm4 0H6V2h2zm4 0h-2V2h2zm4 0h-2V2h2zm2-14h13.9v14H18zm12 29.9V30h-2v2h-2v-2h-2v2h-2v-2h-2v2h-2v-2h2v-2h-2v-2h2v-2h-2v-2h2v-2h-2v-2h2v2h2v-2h2v2h2v-2h2v2h2v-2h2v13.9zM26 28v2h2v-2zm2 0h2v-2h-2zm4 0h-2v2h2zm-4-6v-2h-2v2zm-2 2v-2h-2v2zm-2 0h-2v2h2zm4 0h2v-2h-2zm-4 2v2h2v-2zm0-4v-2h-2v2zm8 4v-2h-2v2zm0-4v-2h-2v2zm-10 0h-2v2h2zm4 4h2v-2h-2z"/></symbol><symbol id="circle-close-outline" viewBox="0 0 34 34"><title>circle-close-outline</title><path d="M7.8 7.8a13 13 0 1 0 18.4 0 13 13 0 0 0-18.4 0zm17 17a11 11 0 1 1 0-15.6 11 11 0 0 1 0 15.6zM17 15.6l4.2-4.3 1.5 1.5-4.3 4.2 4.3 4.2-1.5 1.5-4.2-4.3-4.2 4.3-1.5-1.5 4.3-4.2-4.3-4.2 1.5-1.5z"/></symbol><symbol id="circle-close-solid" viewBox="0 0 34 34"><title>circle-close-solid</title><path d="M26.2 7.8a13 13 0 1 0 0 18.4 13 13 0 0 0 0-18.4zm-3.5 13.4l-1.5 1.5-4.2-4.3-4.2 4.3-1.5-1.5 4.3-4.2-4.3-4.2 1.5-1.5 4.2 4.3 4.2-4.3 1.5 1.5-4.3 4.2z"/></symbol><symbol id="clear-styles" viewBox="0 0 34 34"><title>clear-styles</title><path d="M10 32h20v-2H10zm12-4h8v-2h-8zm2-24h-4L4 18v4l6 6h4l16-14v-4zm4 9.1L13.2 26h-2.4L6 21.2v-2.3L20.8 6h2.4l4.8 4.8zM26 24h4v-2h-4z"/></symbol><symbol id="clock" viewBox="0 0 34 34"><title>clock</title><path d="M17 2a15 15 0 1 0 15 15A15 15 0 0 0 17 2zm0 28a13 13 0 1 1 13-13 13 13 0 0 1-13 13z"/><path d="M18 8h-2v9.4l5.3 5.3 1.4-1.4-4.7-4.7V8"/></symbol><symbol id="close" viewBox="0 0 34 34"><title>close</title><path d="M29.1 6.4l-1.5-1.5L17 15.5 6.4 4.9 4.9 6.4 15.5 17 4.9 27.6l1.5 1.5L17 18.5l10.6 10.6 1.5-1.5L18.5 17 29.1 6.4"/></symbol><symbol id="code-block" viewBox="0 0 34 34"><title>code-block</title><path d="M26.3 24.7l-1.4-1.4 6.3-6.3-6.3-6.3 1.4-1.4L34 17zM9.2 23.3L2.9 17l6.3-6.3-1.4-1.4L.1 17l7.7 7.7zM22.9 4.4l-1.8-.8-10 26 1.8.8z"/></symbol><symbol id="column" viewBox="0 0 34 34"><path d="M0 10h2V8H0zm0-4h2V4H0zm4 28h2v-2H4zM0 2h2V0H0zm4 16h2v-2H4zm-4-4h2v-2H0zm0 16h2v-2H0zm0-12h2v-2H0zm0 16h2v-2H0zm0-12h2v-2H0zm0 4h2v-2H0zM16 0v34h18V0zm16 32H18V2h14zM12 2h2V0h-2zm18 14h-2v2h2zm-8 0h-2v2h2zm-10 2h2v-2h-2zm14-2h-2v2h2zM12 34h2v-2h-2zM4 2h2V0H4zm4 32h2v-2H8zm0-16h2v-2H8zM8 2h2V0H8z"/></symbol><symbol id="comments" viewBox="0 0 34 34"><title>comments</title><path d="M0 30h9l4 4 4-4h9V8H0zm2-20h22v18h-7.8l-.6.6-2.6 2.6-2.6-2.6-.6-.6H2z"/><path d="M8 0v4h2V2h22v18h-2v2h4V0H8"/></symbol><symbol id="company" viewBox="0 0 34 34"><title>company</title><path d="M14 18h4v-4h-4zm4-10h-4v4h4zm12 24h-4V22H14v10h-4V4H8v8H0v2h8v18H4V16H2v18h14V24h8v10h8V4h-2zM26 8h-4v4h4zM6 0v2h28V0zm16 18h4v-4h-4z"/></symbol><symbol id="components" viewBox="0 0 34 34"><title>components</title><path d="M30 8V5a.9.9 0 0 0-1-1h-8a.9.9 0 0 0-1 1v3h-6V5a.9.9 0 0 0-1-1H5a.9.9 0 0 0-1 1v3H0v22h34V8zm-8-2h6v2h-6zM6 6h6v2H6zm26 22H2V10h30z"/></symbol><symbol id="connected-apps" viewBox="0 0 34 34"><title>connected-apps</title><path d="M22 2l-2.9 7.3L18 12h5.7L14 23.7l1.9-5 1-2.7h-6l5.5-14H22m3-2H15L8 18h6L8 34l20-24h-7l4-10z"/></symbol><symbol id="contract" viewBox="0 0 34 34"><title>contract</title><path d="M8 14v2h8V8h-2v4.6L6.7 5.3 5.3 6.7l7.3 7.3H8M20 21.4l7.3 7.3 1.4-1.4-7.3-7.3H26v-2h-8v8h2v-4.6"/><path d="M0 0v34h34V0zm32 32H2V2h30z"/></symbol><symbol id="copy_1" viewBox="0 0 34 34"><title>copy_1</title><path d="M18 0H4v30h2V2h12V0"/><path d="M22 4H8v30h22V12zm5.2 8H22V6.8zm.8 20H10V6h10v8h8z"/></symbol><symbol id="copy" viewBox="0 0 34 34"><title>copy</title><path d="M16 10h-2v8H6v2h8v8h2v-8h8v-2h-8v-8"/><path d="M2 0v2h30v30h2V0H2"/><path d="M0 34h30V4H0zM2 6h26v26H2z"/></symbol><symbol id="create-child" viewBox="0 0 34 34"><path d="M16.71 32.71l5.7-5.71-5.7-5.71-1.42 1.42 3.3 3.29H6V12H4v16h14.59l-3.3 3.29 1.42 1.42M34 32V22H24v10zm-8-2v-6h6v6zM0 0v10h10V0zm8 2v6H2V2z"/></symbol><symbol id="crossfilter" viewBox="0 0 34 34"><title>crossfilter</title><path d="M22.1 6A10.7 10.7 0 0 0 17 7.3 10.6 10.6 0 0 0 12 6a10 10 0 0 0 0 20 10.6 10.6 0 0 0 5-1.3 10.2 10.2 0 0 0 4.9 1.3 10 10 0 0 0 .2-20zM12 24a8 8 0 0 1 0-16 7.1 7.1 0 0 1 3.2.7 10.1 10.1 0 0 0-3.2 7.2 9.8 9.8 0 0 0 3.2 7.4 7.1 7.1 0 0 1-3.2.7zm8-8a7.9 7.9 0 0 1-3 6.2 7.9 7.9 0 0 1 0-12.4 7.9 7.9 0 0 1 3 6.2zm2 8a6.8 6.8 0 0 1-3.2-.7A9.7 9.7 0 0 0 22 16a9.7 9.7 0 0 0-3.2-7.3A7.1 7.1 0 0 1 22 8a8 8 0 0 1 0 16z"/></symbol><symbol id="css" viewBox="0 0 34 34"><title>css</title><path d="M28 20v-2a2 2 0 0 0-2-2h-2v-2h4v-2h-4a2 2 0 0 0-2 2v2a2 2 0 0 0 2 2h2v2h-4v2h4a2 2 0 0 0 2-2zm-8 0v-2a2 2 0 0 0-2-2h-2v-2h4v-2h-4a2 2 0 0 0-2 2v2a2 2 0 0 0 2 2h2v2h-4v2h4a2 2 0 0 0 2-2zM0 6v22h34V6zm32 20H2V8h30zM7.8 22H12v-2H8v-6h4v-2H7.8A1.9 1.9 0 0 0 6 14v6a1.9 1.9 0 0 0 1.8 2z"/></symbol><symbol id="custom-apps" viewBox="0 0 34 34"><title>custom-apps</title><path d="M33.3 5.6l-.5-1.4-6.2 6.2-2.7-.3-.3-2.7 6.2-6.2-1.4-.5a9.1 9.1 0 0 0-9.8 1.9 9.1 9.1 0 0 0-2.1 9.3L1.2 27.2a3.9 3.9 0 0 0 0 5.6A3.6 3.6 0 0 0 4 34a3.6 3.6 0 0 0 2.8-1.2l15.3-15.3a9.1 9.1 0 0 0 9.3-2.1 9.1 9.1 0 0 0 1.9-9.8zM30 13.9a6.8 6.8 0 0 1-7.7 1.5l-.6-.2L5.4 31.4a1.9 1.9 0 0 1-2.8 0 1.9 1.9 0 0 1 0-2.8l16.2-16.2-.2-.7a6.6 6.6 0 0 1 1.5-7.6A6.7 6.7 0 0 1 25 2h1.1L22 6v5.9l5.2.6 4.6-4.6a6.7 6.7 0 0 1-1.8 6z"/></symbol><symbol id="custom" viewBox="0 0 34 34"><title>custom</title><path d="M10.7 13.3L4.4 7 7 4.4l1.1 1.1-1.8 1.8 1.4 1.4 1.8-1.8L10.6 8 9.3 9.3l1.4 1.4L12 9.4l1.3 1.3 1.4-1.4L7 1.6 1.6 7l7.7 7.7zm14 6l-1.4 1.4 1.3 1.3-1.3 1.3 1.4 1.4 1.3-1.3 1.1 1.1-1.8 1.8 1.4 1.4 1.8-1.8 1.1 1.1-2.6 2.6-6.3-6.3-1.4 1.4 7.7 7.7 5.4-5.4zM26 2L2 26v6h6L32 8zM7.2 30H4v-3.2l22-22L29.2 8z"/></symbol><symbol id="cut" viewBox="0 0 34 34"><title>cut</title><path d="M30.8 10.9a1.6 1.6 0 0 0-1 .2L11.7 21.4A4.9 4.9 0 0 0 7 18a5 5 0 0 0 0 10 4.9 4.9 0 0 0 4.9-4.4l20.6-11.7a1.9 1.9 0 0 0-1.7-1zM7 26a3 3 0 0 1 0-6 3 3 0 0 1 0 6z"/><path d="M7 16a5.2 5.2 0 0 0 4.2-2.2l5 2.7 2.1-1.1-6.4-3.5a2.8 2.8 0 0 0 .1-.9 5 5 0 0 0-5-5 5 5 0 0 0 0 10zm0-8a3 3 0 0 1 0 6 3 3 0 0 1 0-6zM22.4 19.9l7.4 4a2 2 0 0 0 2.7-.8l-8-4.3z"/></symbol><symbol id="dash" viewBox="0 0 34 34"><title>dash</title><path d="M2 16h30v2H2z"/></symbol><symbol id="database" viewBox="0 0 34 34"><title>database</title><path d="M20 22H10v4h10zm8 4a2 2 0 1 0-2-2 2 2 0 0 0 2 2zM0 26h4v-2H2V10h2V8H0zM32 4H8a2 2 0 0 0-2 2v8a2 2 0 0 0 2 2h24a2 2 0 0 0 2-2V6a2 2 0 0 0-2-2zm0 10H8V6h24zM20 8H10v4h10zm12 10H8a2 2 0 0 0-2 2v8a2 2 0 0 0 2 2h24a2 2 0 0 0 2-2v-8a2 2 0 0 0-2-2zm0 10H8v-8h24zm-4-16a2 2 0 1 0-2-2 2 2 0 0 0 2 2z"/></symbol><symbol id="date-time" viewBox="0 0 34 34"><path d="M17 2a15 15 0 1 0 15 15A15 15 0 0 0 17 2zm0 28a13 13 0 1 1 13-13 13 13 0 0 1-13 13zm1-22h-2v9.41l6.29 6.3 1.42-1.42-5.71-5.7z"/></symbol><symbol id="day-view" viewBox="0 0 34 34"><title>day-view</title><path d="M32 32H2V12H0v20a2 2 0 0 0 2 2h30a2 2 0 0 0 2-2V12h-2zM32 2h-4V0h-2v2H8V0H6v2H2a2 2 0 0 0-2 2v6h34V4a2 2 0 0 0-2-2zm0 4v2H2V4h4v2h2V4h18v2h2V4h4z"/><path d="M6 16v6h6v-6zm4 4H8v-2h2z"/></symbol><symbol id="delete" viewBox="0 0 34 34"><title>Artboard 6</title><path d="M24 32H10L8 8H6l2 24a2 2 0 0 0 2 2h14a2 2 0 0 0 2-2l2-24h-2zM13 10v20h2V10zm6 0v20h2V10zm5-6V2a2 2 0 0 0-2-2H12a2 2 0 0 0-2 2v2H4v2h26V4zm-2 0H12V2h10z"/></symbol><symbol id="deprecate" viewBox="0 0 34 34"><title>deprecate</title><path d="M0 4v20h6v-2H2V6h30v16h-4v2h6V4H0"/><path d="M21.2 17.3L17 21.6l-4.2-4.3-1.5 1.5 4.3 4.2-4.3 4.2 1.5 1.5 4.2-4.3 4.2 4.3 1.5-1.5-4.3-4.2 4.3-4.2-1.5-1.5"/></symbol><symbol id="description" viewBox="0 0 34 34"><title>description</title><path d="M0 0v34h34V0zm32 32H2V2h30z"/><path d="M6 6h22v10H6zM6 20h22v2H6zM6 26h8v2H6z"/></symbol><symbol id="desktop" viewBox="0 0 34 34"><title>desktop</title><path d="M34 26V4H0v22h16v4h-6v2h14v-2h-6v-4zM2 24V6h30v18z"/></symbol><symbol id="dislike" viewBox="0 0 34 34"><title>dislike</title><path d="M26 2v16h8V2zm6 14h-4V4h4zM22 2H6c-.8 0-1.7 1.3-2 2L.2 10.6a2.4 2.4 0 0 0-.2.8V18a2 2 0 0 0 2 2h8l-3 9 5 2 12-13V4a2 2 0 0 0-2-2zm0 15.2L11.5 28.6l-2-.8 2.4-7.2.9-2.6H2v-6.5L5.7 5h.1l.6-1H22z"/></symbol><symbol id="dock-panel" viewBox="0 0 34 34"><title>dock-panel</title><path d="M30 0H0v30h2V2h28V0"/><path d="M4 4v30h30V4zm28 28H6V6h26z"/><path d="M18 26v2h10V18h-2v6.6L10.7 9.3l-1.4 1.4L24.6 26H18"/></symbol><symbol id="dots-horizontal" viewBox="0 0 34 34"><title>dots-horizontal</title><circle cx="7" cy="17" r="3"/><circle cx="17" cy="17" r="3"/><path d="M27 14a3 3 0 1 0 3 3 2.9 2.9 0 0 0-3-3z"/></symbol><symbol id="dots-vertical" viewBox="0 0 34 34"><title>dots-vertical</title><circle cx="17" cy="27" r="3"/><circle cx="17" cy="17" r="3"/><circle cx="17" cy="7" r="3"/></symbol><symbol id="download" viewBox="0 0 34 34"><title>download</title><path d="M24.6 20.8l-1.2-1.6-5.4 4.6V3h-2v20.8l-5.3-4.6-1.4 1.6 7.7 6.5 7.6-6.5M4 30h26v2H4z"/></symbol><symbol id="drag-handle" viewBox="0 0 34 34"><title>drag-handle</title><path d="M12 4h2v26h-2zM16 4h2v26h-2zM20 4h2v26h-2z"/></symbol><symbol id="drawer" viewBox="0 0 34 34"><title>icons-17px-utility</title><path d="M10 14h5v2h-5zM17 14h5v2h-5zM24 14h5v2h-5zM17 6h12v2H17zM10 5h4v4h-4zM6 8l2-2H4l2 2M17 26h12v2H17zM10 25h4v4h-4zM7 27l-2-2v4l2-2"/><path d="M0 0v34h34V0zm32 32H2V22h30zM2 20V2h30v18z"/></symbol><symbol id="edit-form" viewBox="0 0 34 34"><title>edit-form</title><path d="M8 20h12v-2H8zm12-6H8v2h12zM6 2h14v8h8v6h2V8l-8-8H4v34h10v-2H6zm16 .8L27.2 8H22zM32 20l-2 2 2 2 2-2zM8 24h6v-2H8zm12 8v2h2l8-8-2-2z"/></symbol><symbol id="edit-page" viewBox="0 0 34 34"><title>edit-page</title><path d="M10 25v3h3l6.8-6.8-3-3zM22 0H4v34h26V8zm0 2.8L27.2 8H22zM28 32H6V2h14v8h8zm-9.8-15.2l3 3L23 18l-3-3z"/></symbol><symbol id="edit" viewBox="0 0 34 34"><title>edit</title><path d="M28 8l-6-6L4 20v6h6zM6 24v-3.2l16-16L25.2 8l-16 16zM4 30h26v2H4z"/></symbol><symbol id="email" viewBox="0 0 34 34"><title>email</title><path d="M0 4v26h34V4zm32 24H2V6h30z"/><path d="M6.7 24.7l6.7-6.7 3.6 3.4 3.6-3.4 6.7 6.7 1.4-1.4-6.6-6.6 6.6-6-1.4-1.4L17 18.6 6.7 9.3l-1.4 1.4 6.6 6-6.6 6.6 1.4 1.4"/></symbol><symbol id="emoji" viewBox="0 0 34 34"><title>emoji</title><path d="M17 0a17 17 0 1 0 17 17A17 17 0 0 0 17 0zm0 32a15 15 0 1 1 15-15 15 15 0 0 1-15 15z"/><circle cx="12" cy="12" r="2"/><circle cx="22" cy="12" r="2"/><path d="M17 26c4 0 8-3 9-6H8c1 3 4 6 9 6z"/></symbol><symbol id="end-call" viewBox="0 0 34 34"><title>end-call</title><path d="M7.3 19.6C2.9 13 2.1 5.4 2 2h6.6l3.1 7.5-3.1 3.1-.9.9.4 1.1a11.6 11.6 0 0 0 1.4 2.9l1.4-1.5c-.6-1.2-.9-2-.9-2l4-4-4-10H0s-.7 11.5 5.9 21.1zM24 20l-2 4a17.4 17.4 0 0 1-3.7-1.2l-1.5 1.5a31.2 31.2 0 0 0 4.8 1.7l1.5.3.7-1.4 1.2-2.5 7 2.1V32a35.6 35.6 0 0 1-17.6-5.3L13 28.1c7.9 5.4 17.1 5.9 20.1 5.9h.9V23zM32.3.3l-32 32 1.4 1.4 32-32z"/></symbol><symbol id="erect-window" viewBox="0 0 34 34"><title>erect-window</title><path d="M2 2h30v2H2z"/></symbol><symbol id="expand" viewBox="0 0 34 34"><title>expand</title><path d="M10 11.4L22.6 24H18v2h8v-8h-2v4.6L11.4 10H16V8H8v8h2v-4.6"/><path d="M0 0v34h34V0zm32 32H2V2h30z"/></symbol><symbol id="export-page" viewBox="0 0 34 34"><title>export-page</title><path d="M18 14h-2v10.6l-3.3-3.3-1.4 1.4 5.7 5.7 5.7-5.7-1.4-1.4-3.3 3.3zm4-14H4v34h26V8zm0 2.8L27.2 8H22zM28 32H6V2h14v8h8z"/></symbol><symbol id="fallback" viewBox="0 0 34 34"><title>fallback</title><path d="M16.6 8l-.6 3.7-.4 2.3h8.5l-8.7 12 .6-3.7.4-2.3H7.9l8.7-12M20 0L4 22h10l-2 12 16-22H18l2-12z"/></symbol><symbol id="favorite-outline" viewBox="0 0 34 34"><title>favorite-outline</title><path d="M17 5.2l3.2 7.6.5 1.2h7.6l-5.5 4.4-1.1.9.4 1.2 2.4 8.5-6.3-4.6-1.2-.9-1.2.9L9.5 29l2.4-8.5.4-1.2-1.1-.9L5.7 14h7.6l.5-1.2L17 5.2M17 0l-5 12H0l10 8-4 14 11-8 11 8-4-14 10-8H22L17 0z"/></symbol><symbol id="favorite-solid" viewBox="0 0 34 34"><title>favorite-solid</title><path d="M17 0l5 12h12l-10 8 4 14-11-8-11 8 4-14-10-8h12l5-12"/></symbol><symbol id="feed" viewBox="0 0 34 34"><title>feed</title><path d="M16.1 29l-6-15.8L8.8 18H2v-2h5.2l2.7-9.2 6 16.2 6-17.8L26.6 16H32v2h-6.6l-3.3-7.2-6 18.2"/></symbol><symbol id="feedback-block" viewBox="0 0 34 34"><path d="M26 16H12v2h14zm2 4H12v2h16zm2-8H12v2h18zM8 12H6v6h2zM0 8v18h34V8zm32 16H2V10h30zM8 20H6v2h2z"/></symbol><symbol id="filter-list" viewBox="0 0 34 34"><title>filter-list</title><path d="M28 4l-9.6 12.8-.4.5v7.9l-2 2v-9.9l-.4-.5L6 4h22m4-2H2l12 16v14l6-6v-8L32 2z"/></symbol><symbol id="filter" viewBox="0 0 34 34"><title>filter</title><path d="M16 26h16v-2H16zm-8-1.4V12H6v12.6l-3.3-3.3-1.4 1.4L7 28.4l5.7-5.7-1.4-1.4zm8-4.6h16v-2H16zM6 6v2h26V6zm6 8h20v-2H12z"/></symbol><symbol id="flow" viewBox="0 0 34 34"><title>flow</title><path d="M23.3 11.3l1.4 1.4L29.9 7l-5.2-5.7-1.4 1.4 3 3.3H6v2h20.3l-3 3.3M23.3 22.7l3 3.3H6v2h20.3l-3 3.3 1.4 1.4 5.2-5.7-5.2-5.7-1.4 1.4M9.8 21.4L7.1 18H28v-2H7.1l2.7-3.4-1.6-1.2L3.7 17l4.5 5.6 1.6-1.2"/></symbol><symbol id="freeze" viewBox="0 0 34 34"><title>freeze</title><path d="M34 16h-2.6l2.3-2.3-1.4-1.4-3.7 3.7h-9.2l6-6H31V8h-3.6l2.3-2.3-1.4-1.4L26 6.6V3h-2v5.6l-6 6V5.4l3.7-3.7L20.3.3 18 2.6V0h-2v2.6L13.7.3l-1.4 1.4L16 5.4v9.2l-6-6V3H8v3.6L5.7 4.3 4.3 5.7 6.6 8H3v2h5.6l6 6H5.4l-3.7-3.7-1.4 1.4L2.6 16H0v2h2.6L.3 20.3l1.4 1.4L5.4 18h9.2l-6 6H3v2h3.6l-2.3 2.3 1.4 1.4L8 27.4V31h2v-5.6l6-6v9.2l-3.7 3.7 1.4 1.4 2.3-2.3V34h2v-2.6l2.3 2.3 1.4-1.4-3.7-3.7v-9.2l6 6V31h2v-3.6l2.3 2.3 1.4-1.4-2.3-2.3H31v-2h-5.6l-6-6h9.2l3.7 3.7 1.4-1.4-2.3-2.3H34v-2"/></symbol><symbol id="full-width-view" viewBox="0 0 34 34"><title>full-width-view</title><path d="M0 0v8h34V0zm32 6H2V2h30zM0 34h8V10H0zm2-22h4v20H2zM26 34h8V10h-8zm2-22h4v20h-4zM10 34h14V10H10zm2-22h10v20H12z"/></symbol><symbol id="grab" viewBox="0 0 34 34"><path d="M12 14a3 3 0 1 0 3 3 3 3 0 0 0-3-3zm10-4a3 3 0 1 0-3-3 3 3 0 0 0 3 3zM12 24a3 3 0 1 0 3 3 3 3 0 0 0-3-3zm0-20a3 3 0 1 0 3 3 3 3 0 0 0-3-3zm10 10a3 3 0 1 0 3 3 3 3 0 0 0-3-3zm0 10a3 3 0 1 0 3 3 3 3 0 0 0-3-3z"/></symbol><symbol id="grid" viewBox="0 0 34 34"><title>grid_1</title><path d="M32 2v30H2V2h30m2-2H0v34h34V0zM10 0H8v34h2V0zm8 0h-2v34h2V0zm16 8H0v2h34V8zm0 8H0v2h34v-2zm0 8H0v2h34v-2zM26 0h-2v34h2V0z"/></symbol><symbol id="hamburger-menu" viewBox="0 0 34 34"><title>hamburger-menu</title><path d="M8 18h18v-2H8zm0 6h18v-2H8zm0-14v2h18v-2z"/></symbol><symbol id="heart-outline" viewBox="0 0 34 34"><title>heart-outline</title><path d="M24 2c4.9 0 8 3 8 7.9 0 7.6-9.9 17.3-15 21.5C11.9 27.2 2 17.5 2 9.9 2 5 5.1 2 10 2a7.3 7.3 0 0 1 5.4 3.1L17 7.5l1.6-2.4A7.3 7.3 0 0 1 24 2m0-2a9 9 0 0 0-7 4 9 9 0 0 0-7-4C4 0 0 3.9 0 9.9 0 20.9 17 34 17 34S34 20.9 34 9.9c0-6-4-9.9-10-9.9z"/></symbol><symbol id="heart-solid" viewBox="0 0 34 34"><title>heart-solid</title><path d="M24 0a9 9 0 0 0-7 4 9 9 0 0 0-7-4C4 0 0 3.9 0 9.9 0 20.9 17 34 17 34S34 20.9 34 9.9c0-6-4-9.9-10-9.9z"/></symbol><symbol id="help" viewBox="0 0 34 34"><title>help</title><path d="M17 8c-3.28 0-5 3-5 6h2c0-1.38.63-4 3-4a2.69 2.69 0 0 1 3 3 3.51 3.51 0 0 1-1.52 3.25C17.38 17.21 16 18.41 16 22h2c0-2.68.83-3.4 1.79-4.24A5.43 5.43 0 0 0 22 13c0-2.42-1.31-5-5-5zM16 24h2v2h-2z"/><path d="M17 2a15 15 0 1 0 15 15A15 15 0 0 0 17 2zm0 28a13 13 0 1 1 13-13 13 13 0 0 1-13 13z"/></symbol><symbol id="history" viewBox="0 0 34 34"><title>history</title><path d="M28 0H6v2h22zM0 12v22h34V12zm32 20H2V14h30zM30 4H4v2h26zm2 4H2v2h30z"/></symbol><symbol id="home" viewBox="0 0 34 34"><title>home</title><path d="M17 .2l-17 17V20L17 3l17 17v-2.8L17 .2M28 32h-6V22H12v10H6V20H4v14h10V24h6v10h10V20h-2v12"/></symbol><symbol id="identity" viewBox="0 0 34 34"><title>identity</title><path d="M28 14h-8v2h8zm2 4H20v2h10zm0-8H20v2h10zm-15.7 8.4a4.3 4.3 0 0 1-3.3 1.9 4.3 4.3 0 0 1-3.3-1.9C4.5 18.4 4 21.2 4 24h14c0-2.8-.5-5.6-3.7-5.6zM28 22h-8v2h8zM0 4v26h34V4zm32 24H2V6h30zm-21-8.6c1.9 0 3.7-2.4 3.7-5.2S13.3 10 11 10s-3.8 1.4-3.8 4.2 1.9 5.2 3.8 5.2z"/></symbol><symbol id="image" viewBox="0 0 34 34"><title>image</title><path d="M24 14a2 2 0 1 0-2-2 2 2 0 0 0 2 2zm-2 6l-2 2-6-6-8 10h22zM2 4v26h30V4zm28 24H4V6h26z"/></symbol><symbol id="import-page" viewBox="0 0 34 34"><title>import-page</title><path d="M11.3 19.3l1.4 1.4 3.3-3.3V28h2V17.4l3.3 3.3 1.4-1.4-5.7-5.7zM22 0H4v34h26V8zm0 2.8L27.2 8H22zM28 32H6V2h14v8h8z"/></symbol><symbol id="inbox" viewBox="0 0 34 34"><title>inbox</title><path d="M28 12H6v2h22zm0 6H6v2h22zm4 14H2v-4H0v4a2.1 2.1 0 0 0 2.1 2h29.8a2.1 2.1 0 0 0 2.1-2v-4h-2zm-.1-32H2.1A2.1 2.1 0 0 0 0 2v24h11.8a5.4 5.4 0 0 0 5.2 4 6 6 0 0 0 5.5-4H34V2a2.1 2.1 0 0 0-2.1-2zm.1 24H20.9l-.4 1.4A3.8 3.8 0 0 1 17 28a3.3 3.3 0 0 1-3.2-2.5l-.4-1.5H2V2h30zM28 6H6v2h22z"/></symbol><symbol id="indent" viewBox="0 0 34 34"><title>indent</title><path d="M20 22h14v-2H20zm0 4h14v-2H20zM5.9 10.7l5.3 5.3H0v2h11.1l-5.2 5.3 1.4 1.4L15 17 7.3 9.3zM16 28h2V6h-2zm4-20v2h14V8zm0 10h14v-2H20zm0-4h14v-2H20z"/></symbol><symbol id="index" viewBox="0 0 34 34"><title>icons-17px-utility</title><path d="M24 8H0v4h24zM8 28h24v-4H8zm0-12v4h24v-4z"/></symbol><symbol id="info" viewBox="0 0 34 34"><title>info</title><path d="M18 16v-2h-4v2h2v8h-2v2h6v-2h-2v-8M16 8h2v3h-2z"/><path d="M17 2a15 15 0 1 0 15 15A15 15 0 0 0 17 2zm0 28a13 13 0 1 1 13-13 13 13 0 0 1-13 13z"/></symbol><symbol id="inheritance" viewBox="0 0 30 30"><g data-name="Layer 1"><circle cx="15" cy="15" r="15" fill="#78bf4b"/><path d="M23.24 16.35l-4.37 5.09c-.44-4.62-2.32-11.78-9.42-15.33l-.9 1.78c6.52 3.27 8.07 10.11 8.38 14.26l-6.4-4-1.06 1.7 8.73 5.45 6.56-7.65z" fill="#fff"/></g></symbol><symbol id="italic" viewBox="0 0 34 34"><title>italic</title><path d="M26 8V6H14v2h4l-6 18H8v2h12v-2h-4l6-18h4"/></symbol><symbol id="javascript" viewBox="0 0 34 34"><title>javascript</title><path d="M12 22h2a2 2 0 0 0 2-2v-8h-2v8h-2v-2h-2v2a2 2 0 0 0 2 2zm12-2v-2a2 2 0 0 0-2-2h-2v-2h4v-2h-4a2 2 0 0 0-2 2v2a2 2 0 0 0 2 2h2v2h-4v2h4a2 2 0 0 0 2-2zM0 6v22h34V6zm32 20H2V8h30z"/></symbol><symbol id="kanban" viewBox="0 0 34 34"><title>kanban</title><path d="M0 0v8h34V0zm32 6H2V2h30zM0 34h10V10H0zm2-22h6v20H2zm22 14h10V10H24zm2-14h6v12h-6zM12 30h10V10H12zm2-18h6v16h-6z"/></symbol><symbol id="keyboard-dismiss" viewBox="0 0 34 34"><title>keyboard-dismiss</title><path d="M0 2v18h34V2zm32 16H2V4h30zM6 8H4V6h2zm4 0H8V6h2zm4 0h-2V6h2zm4 0h-2V6h2zm4 0h-2V6h2zm4 0h-2V6h2zm4 0h-2V6h2zM6 12H4v-2h2zm4 0H8v-2h2zm4 0h-2v-2h2zm4 0h-2v-2h2zm4 0h-2v-2h2zm4 0h-2v-2h2zm4 0h-2v-2h2zM6 16H4v-2h2zm20 0H8v-2h18zm4 0h-2v-2h2zm-6.7 7.2l1.4 1.6-7.7 6.5-7.7-6.5 1.4-1.6 6.3 5.5z"/></symbol><symbol id="knowledge" viewBox="0 0 34 34"><title>knowledge</title><path d="M24 6H14v2h10zM8 30h22v-2H8zM9 0a5 5 0 0 0-5 5v24c0 2.4 2.3 5 6 5h20v-2H10c-2.5 0-4-1.6-4-3s1.5-3 4-3h20V0zM8 24.3a4.7 4.7 0 0 0-2 1V5a2.9 2.9 0 0 1 2-2.8zm20-.3H10V2h18zm-6-12h-8v2h8z"/></symbol><symbol id="layout" viewBox="0 0 34 34"><title>layout</title><path d="M0 0v34h34V0zm32 32H2V2h30z"/><path d="M6 6h22v8H6zM6 18h6v10H6zM16 18h12v10H16z"/></symbol><symbol id="left-align-text" viewBox="0 0 34 34"><title>left-align-text</title><path d="M4 4h16v2H4zM4 10h26v2H4zM4 16h16v2H4zM4 28h16v2H4zM4 22h26v2H4z"/></symbol><symbol id="level-up" viewBox="0 0 34 34"><title>level-up</title><path d="M6 32h14v-2H6zM19 1.6l-7.7 7.7 1.4 1.4L18 5.4V30h2V5.4l5.3 5.3 1.4-1.4z"/></symbol><symbol id="lightbulb" viewBox="0 0 34 34"><title>lightbulb</title><path d="M12 30h10v-2H12zm5 4a2 2 0 0 0 2-2h-4a2 2 0 0 0 2 2zm0-34A10.2 10.2 0 0 0 7 10c0 2.7 1.3 4.4 2.5 6s2.5 3.2 2.5 6h2a10.4 10.4 0 0 0-2.9-7.2C10 13.3 9 12 9 10a8.2 8.2 0 0 1 8-8 8.2 8.2 0 0 1 8 8c0 2-1 3.3-2.1 4.8A10.4 10.4 0 0 0 20 22h2c0-2.8 1.2-4.3 2.5-6s2.5-3.3 2.5-6A10.2 10.2 0 0 0 17 0zm-5 26h10v-2H12z"/></symbol><symbol id="like" viewBox="0 0 34 34"><title>like</title><path d="M0 32h8V16H0zm2-14h4v12H2zM32 14h-8l3-9-5-2-12 13v14a2 2 0 0 0 2 2h15.7a2 2 0 0 0 1.8-1.2l4.3-7.4a2.4 2.4 0 0 0 .2-.8V16a2 2 0 0 0-2-2zm0 8.5l-4.2 7.3H12v-13L22.5 5.4l2 .8-2.4 7.2-.9 2.6H32z"/></symbol><symbol id="link" viewBox="0 0 34 34"><title>link</title><path d="M2 17c0-3.4 2.5-7 8-7h4V8h-4C3.4 8 0 12.5 0 17s3.4 9 10 9h4v-2h-4c-5.5 0-8-3.6-8-7zm22-9h-4v2h4c5.5 0 8 3.6 8 7s-2.5 7-8 7h-4v2h4c6.6 0 10-4.5 10-9s-3.4-9-10-9zM8 18h18v-2H8z"/></symbol><symbol id="list-template" viewBox="0 0 34 34"><title>icons-17px-utility</title><path d="M18 4h12v2H18zM4 4h2v2H4zM12 12h2v2h-2zM4 12h2v2H4zM4 8h2v2H4zM12 4h2v2h-2zM12 8h2v2h-2zM8 12h2v2H8zM8 4h2v2H8zM18 8h7v2h-7zM18 12h9v2h-9z"/><path d="M0 0v34h34V0zm32 32H2V18h30zM2 16V2h30v14z"/><path d="M18 20h12v2H18zM4 20h2v2H4zM12 28h2v2h-2zM4 28h2v2H4zM4 24h2v2H4zM12 20h2v2h-2zM12 24h2v2h-2zM8 28h2v2H8zM8 20h2v2H8zM18 24h7v2h-7zM18 28h9v2h-9z"/></symbol><symbol id="list" viewBox="0 0 34 34"><title>list</title><path d="M0 22h10V12H0zm2-8h6v6H2zM0 34h10V24H0zm2-8h6v6H2zM14 4v2h20V4zm0 14h20v-2H14zM0 10h10V0H0zm2-8h6v6H2zm12 28h20v-2H14z"/></symbol><symbol id="loading-indicator" viewBox="0 0 34 34"><path d="M31.85 15h2A17 17 0 0 0 19 .13v2A15 15 0 0 1 31.85 15zM17 32a15 15 0 0 1-2-29.85v-2A17 17 0 1 0 33.87 19h-2A15 15 0 0 1 17 32z" fill="#231f20"/></symbol><symbol id="location" viewBox="0 0 34 34"><title>location</title><path d="M22 5L12 2 0 6v28l12-5 10 3 12-4V0zM2 7.4l8-2.6v22.9L2 31zm20 22.5l-9.4-2.8-.6-.2V4.1l9.4 2.8.6.2v22.8zm10-3.3l-8 2.6V6.3L32 3z"/></symbol><symbol id="lock" viewBox="0 0 34 34"><title>lock</title><path d="M6 12v22h22V12zm20 20H8V14h18zM10 8c0-4 3.3-6 7-6s7 2 7 6v2h2V7.5C26 3.4 22 0 17 0S8 3.4 8 7.5V10h2z"/><path d="M16 23.8V28h2v-4.2a2.9 2.9 0 0 0 2-2.8 3 3 0 0 0-6 0 2.9 2.9 0 0 0 2 2.8z"/></symbol><symbol id="log-a-call" viewBox="0 0 34 34"><title>log-a-call</title><path d="M6 0v4H4v2h2v10H4v2h2v10H4v2h2v4h26V0zm24 32H8V2h22zM16 20c-4-4-4-10-4-10h4l1 4-1 1s0 1 2 3 3 2 3 2l1-1 4 1v4s-6 0-10-4z"/></symbol><symbol id="logout" viewBox="0 0 34 34"><title>logout</title><path d="M2 30h2V4H2zM24.7 9.3l-1.4 1.4 5.3 5.3H8v2h20.6l-5.3 5.3 1.4 1.4 7.7-7.7z"/></symbol><symbol id="loop" viewBox="0 0 34 34"><title>loop</title><path d="M33.7 19.3L29 14.6l-4.7 4.7 1.4 1.4 2.3-2.3V30H6v-8H4v10h26V18.4l2.3 2.3 1.4-1.4M9.7 14.7l-1.4-1.4L6 15.6V4h22v8h2V2H4v13.6l-2.3-2.3-1.4 1.4L5 19.4l4.7-4.7"/></symbol><symbol id="macros" viewBox="0 0 34 34"><title>macros</title><path d="M15 28l10-11L15 6h3l10 11-10 11zm9 0l10-11L24 6h-3l10 11-10 11zm-12 0l10-11L12 6H9l10 11L9 28zm-6 0l10-11L6 6H0l10 11L0 28z"/></symbol><symbol id="magic-wand" viewBox="0 0 34 34"><title>magic-wand</title><path d="M28 14l-1 2-2 1 2 1 1 2 1-2 2-1-2-1zm0-8l1-2 2-1-2-1-1-2-1 2-2 1 2 1zm-13 4l1.3-2.7L19 6l-2.7-1.3L15 2l-1.3 2.7L11 6l2.7 1.3zm9-2l-3.3 3.3 2 2L26 10zM2 30l2 2 17.3-17.3-2-2z"/></symbol><symbol id="mark-all-as-read" viewBox="0 0 34 34"><title>mark-all-as-read</title><path d="M11.3 11.3l1.4 1.4L5 20.4l-3.7-3.7 1.4-1.4L5 17.6zM5 5.6L2.7 3.3 1.3 4.7 5 8.4 12.7.7 11.3-.7zm0 24l-2.3-2.3-1.4 1.4L5 32.4l7.7-7.7-1.4-1.4zM16 4v2h16V4zm0 14h16v-2H16zm0 12h16v-2H16z"/></symbol><symbol id="masthead" viewBox="0 0 34 34"><path d="M30 4h-6v2h6zM10 4H4v2h6zM0 0v34h34V0zm32 32H2V10h30zm0-24H2V2h30zM20 4h-6v2h6z"/></symbol><symbol id="matrix" viewBox="0 0 34 34"><title>matrix</title><path d="M10 14h8v-2h-8zm10 14h8v-2h-8zm0-4h8v-2h-8zm-10 4h8v-2h-8zm0-10h8v-2h-8zm0 6h8v-2h-8zM8 12H6v6h2zm0 10H6v6h2zM0 0v34h34V0zm32 32H2V2h30zM20 14h8v-2h-8zm8-8H6v2h22zm-8 12h8v-2h-8z"/></symbol><symbol id="menu" viewBox="0 0 34 34"><title>utility</title><path d="M18 1H0v26h16v6h18V15H18V1zM2 25V3h14v22zm16 6V17h14v14z"/><path d="M14 5H4v2h10V5M10 9H4v2h6V9M12 13H4v2h8v-2M14 17H4v2h10v-2M28 19h-8v2h8v-2M30 23H20v2h10v-2M26 27h-6v2h6v-2M12 21H4v2h8v-2"/></symbol><symbol id="merge-field" viewBox="0 0 34 34"><title>merge-field</title><path d="M10 28L0 17 10 6h3L3 17l10 11zm14 0l10-11L24 6h-3l10 11-10 11z"/></symbol><symbol id="merge" viewBox="0 0 34 34"><title>merge</title><path d="M28.8 11.4l-1.6 1.2 2.7 3.4H19.3a3.2 3.2 0 0 0-2 .8l-5.4 5-.7.2H2v2h9.2a3.2 3.2 0 0 0 2-.8l5.4-5 .7-.2h10.6l-2.7 3.4 1.6 1.2 4.5-5.6zM9.9 12.2l4.9 4.4 1.5-1.4-5.1-4.5a3.7 3.7 0 0 0-2-.7H2v2h7.2z"/></symbol><symbol id="message-area" viewBox="0 0 34 34"><title>icons-17px-utility</title><path d="M12 28h16v2H12zM6 28h2v2H6z"/><path d="M30 4H12v2h18zm-4 16H12v2h14zM8 20H6v6h2zm22 4H12v2h18zm-2-12H12v2h16zM8 12H6v2h2zM0 0v34h34V0zm32 32H2V18h30zm0-16H2V2h30zM8 4H6v6h2zm18 4H12v2h14z"/></symbol><symbol id="metrics" viewBox="0 0 34 34"><title>metrics</title><path d="M2 32V0H0v34h34v-2zM16 6H6v22h10zm-2 4h-2v2h2v2h-2v2h2v2h-2v2h2v2h-2v2h2v2h-2v-2h-2v2H8v-2h2v-2H8v-2h2v-2H8v-2h2v-2H8v-2h2v-2H8V8h2v2h2V8h2zm16 6H20v12h10zm-20 2h2v-2h-2zm0-4h2v-2h-2zm0 8h2v-2h-2z"/></symbol><symbol id="minimize-window" viewBox="0 0 34 34"><title>minimize-window</title><path d="M2 30h30v2H2z"/></symbol><symbol id="modal" viewBox="0 0 34 34"><path d="M16 22h4v-2h-4zm8-6H10v2h14zm4-8H6v18h22zM8 10h14v2H8zm18 14H8V14h18zm0-12h-2v-2h2zm-12 8h-4v2h4zM0 2v30h34V2zm32 28H2V4h30z"/></symbol><symbol id="models" viewBox="0 0 34 34"><title>models</title><path d="M22 28h6v-6h-6zm2-4h2v2h-2zM0 0v34h34V0zm32 32H2V2h30zM10 18h14v2h2v-4h-8v-2h-2v2H8v4h2zM20 6h-6v6h6zm-2 4h-2V8h2zm-6 12H6v6h6zm-2 4H8v-2h2z"/></symbol><symbol id="moneybag" viewBox="0 0 34 34"><title>moneybag</title><path d="M0 12v18h34V12zm4 16a2 2 0 0 0-2-2V16a2 2 0 0 0 2-2h26a2 2 0 0 0 2 2v10a2 2 0 0 0-2 2zm18-7a5 5 0 1 1-5-5 5 5 0 0 1 5 5zm10-11H2V8h30zm-2-4H4V4h26z"/></symbol><symbol id="monthly-view" viewBox="0 0 34 34"><title>monthly-view</title><path d="M12 16h-2v2h2zm2 6h2v-2h-2zm-4 4h2v-2h-2zm6-10h-2v2h2zm-2 10h2v-2h-2zm-4-4h2v-2h-2zm22 10H2V12H0v20a2 2 0 0 0 2 2h30a2 2 0 0 0 2-2V12h-2zM6 26h2v-2H6zm2-6H6v2h2zm10 6h2v-2h-2zm8-4h2v-2h-2zm2-6h-2v2h2zm-2 10h2v-2h-2zm6-24h-4V0h-2v2H8V0H6v2H2a2 2 0 0 0-2 2v6h34V4a2 2 0 0 0-2-2zm0 6H2V4h4v2h2V4h18v2h2V4h4zm-8 8h-2v2h2zm-2 6h2v-2h-2zm-2-6h-2v2h2zm-2 6h2v-2h-2zm4 4h2v-2h-2z"/></symbol><symbol id="move" viewBox="0 0 34 34"><title>move</title><path d="M14 18v-2H4.1l2.7-3.4-1.6-1.2L.7 17l4.5 5.6 1.6-1.2L4.1 18zm2-13.9V14h2V4.1l3.4 2.7 1.2-1.6L17 .7l-5.6 4.5 1.2 1.6zm2 25.8V20h-2v9.9l-3.4-2.7-1.2 1.6 5.6 4.5 5.6-4.5-1.2-1.6zm10.8-18.5l-1.6 1.2 2.7 3.4H20v2h9.9l-2.7 3.4 1.6 1.2 4.5-5.6z"/></symbol><symbol id="muted" viewBox="0 0 34 34"><title>muted</title><path d="M32.3.3l-32 32 1.4 1.4 32-32zM8.2 18.7A8.1 8.1 0 0 1 8 17v-5H6v5a12.5 12.5 0 0 0 .6 3.4zM14 5a3 3 0 0 1 6 0v1.9l2-2A5 5 0 0 0 12 5v9.9l2-2zm2 27h-4v2h10v-2h-4v-4h-2zm10-16.9V17c0 .4-.1 9-9 9h-1.8l-1.7 1.6a12.3 12.3 0 0 0 3.5.4c10.9 0 11-10.9 11-11v-2h-2z"/></symbol><symbol id="navigation" viewBox="0 0 34 34"><title>navigation</title><path d="M17 2a15 15 0 1 0 15 15A15 15 0 0 0 17 2zm13 15A13 13 0 1 1 17 4a13 13 0 0 1 13 13zm-10 3l-9 3 3-9 9-3z"/></symbol><symbol id="new-direct-message" viewBox="0 0 34 34"><title>new-direct-message</title><path d="M32.6 4.6l-3.2-3.2a1.9 1.9 0 0 0-2.8 0L6 22v6h6L32.6 7.4a1.9 1.9 0 0 0 0-2.8zM11.2 26H8v-3.2l20-20L31.2 6z"/><path d="M30 31a.9.9 0 0 1-1 1H3a.9.9 0 0 1-1-1V5a.9.9 0 0 1 1-1h17l2-2H3a2.9 2.9 0 0 0-3 3v26a2.9 2.9 0 0 0 3 3h26a2.9 2.9 0 0 0 3-3V12l-2 2z"/></symbol><symbol id="news" viewBox="0 0 34 34"><title>news</title><path d="M28 22H14v2h14zm0-4H14v2h14zm0-12H14v8h14zM8 0v29a2.9 2.9 0 0 1-3 3 2.9 2.9 0 0 1-3-3V10h4V8H0v21a5 5 0 0 0 5 5h24a5 5 0 0 0 5-5V0zm24 29a2.9 2.9 0 0 1-3 3H9a5.1 5.1 0 0 0 1-3V2h22zm-4-3H14v2h14z"/></symbol><symbol id="no-connection" viewBox="0 0 34 34"><title>no-connection</title><path d="M17 2a15 15 0 1 0 15 15A15 15 0 0 0 17 2z" fill="#ffc120"/><path fill="#484e54" d="M16 8h2v12h-2zM16 23h2v3h-2z"/></symbol><symbol id="note" viewBox="0 0 34 34"><title>note</title><path d="M22 4H4v26h26V12zm5.2 8H22V6.8zm.8 16H6V6h14v8h8z"/></symbol><symbol id="notebook" viewBox="0 0 34 34"><title>notebook</title><path d="M8 28h10v-2H8zm15-14H8v2h15zm3-4H8v2h18zm0-8V0h-2v2h-6V0h-2v2h-6V0H8v2H4v32h26V2zm2 30H6V4h2v2h2V4h6v2h2V4h6v2h2V4h2zM8 24h15v-2H8zm0-4h18v-2H8z"/></symbol><symbol id="notification" viewBox="0 0 34 34"><title>notification</title><path d="M29 19c-2-2-5-3-5-9 0-3.4-1.5-6.8-5-7.7V2a2 2 0 0 0-4 0v.2c-3.5 1-5 4.4-5 7.8 0 6-3 7-5 9s-3 5-3 9h30q0-6-3-9zM6.4 20.4l1.1-1C9.4 17.9 12 15.8 12 10c0-1.4.4-6 5-6s5 4.6 5 6c0 5.8 2.6 7.9 4.5 9.4l1.1 1a9.3 9.3 0 0 1 2.3 5.6H4.1a9.3 9.3 0 0 1 2.3-5.6zM17 32a3.7 3.7 0 0 1-3-2h-2c.1.1 1 4 5 4s4.9-3.9 5-4h-2a3.7 3.7 0 0 1-3 2z"/></symbol><symbol id="office365" viewBox="0 0 34 34"><title>office365</title><path d="M20 0L2 8v20l18 6 12-4V4zm0 30L4 26l4-2V10l12-4z"/></symbol><symbol id="offline-cached" viewBox="0 0 34 34"><title>offline-cached</title><path d="M17 6c5 0 9 4.4 9 10v2h2c4 0 4 3 4 4 0 4-3.8 4-5.4 4H8.5A6.5 6.5 0 0 1 2 19.3C2 15.6 6 14 8 14h1.6l.3-1.5C10.3 10.9 11.5 6 17 6m0-2c-5.3 0-7.9 3.6-9 8-3.2 0-8 2.5-8 7.3A8.5 8.5 0 0 0 8.5 28h18.1c4.2 0 7.4-1.6 7.4-6s-2.8-6-6-6c0-6.5-4.6-12-11-12zm1 8h-2v10h2zm3.7 6.7l-1.4-1.4-3.3 3.3-3.3-3.3-1.4 1.4 4.7 4.7z"/></symbol><symbol id="offline" viewBox="0 0 34 34"><title>offline</title><path d="M27.4 8.8l-1.5 1.5a16.8 16.8 0 0 1 4 3l1.4-1.4a23.1 23.1 0 0 0-3.9-3.1zM13 14.7l2.7-2.6a14.1 14.1 0 0 0-8.5 4l1.5 1.4a13.9 13.9 0 0 1 4.3-2.8zM17.1 8l2.5.2 1.7-1.7a18.6 18.6 0 0 0-4.2-.5A19.6 19.6 0 0 0 3 11.9l1.4 1.4A17.9 17.9 0 0 1 17.1 8zm11.2-5.7l-24 24 1.4 1.4 24-24zm-6.9 12.5a11.7 11.7 0 0 1 4.2 2.7l1.4-1.4a12 12 0 0 0-4.1-2.8zm-5.2 5.3h.9a6 6 0 0 1 4.3 1.8l1.4-1.5a7.7 7.7 0 0 0-4.6-2.2zm-.5 4.5l1.4 1.4 1.5-1.4a2 2 0 0 0-1.5-.6 2 2 0 0 0-1.4.6z"/></symbol><symbol id="opacity" viewBox="0 0 34 34"><path d="M14 14h-2v2h2zm0 4h-2v2h2zM26 8V0H0v26h8v8h26V8zM10 22h2v-2h-2v-2h2v-2h-2v-2h2v-2h-2v-2h2v2h2v-2h2v2h2v-2h2v2h2v-2h2v2h-2v2h2v2h-2v2h2v2h-2v2h2v2h-2v-2h-2v2h-2v-2h-2v2h-2v-2h-2v2h-2zm22 10H10v-6h16V10h6zM20 14v-2h-2v2zm-4 2h-2v2h2zm4 4h2v-2h-2zm-2-4v-2h-2v2zm-4 4v2h2v-2zm4 0v2h2v-2zm-2-2v2h2v-2zm4-2h2v-2h-2zm-4-2v-2h-2v2zm2 4h2v-2h-2z"/></symbol><symbol id="open-folder" viewBox="0 0 34 34"><title>open-folder</title><path d="M2 30h30V10H2zm2-18h26v16H4zM14 6l-2-2H2v4h2V6h7l2 2h19V6H14"/></symbol><symbol id="open" viewBox="0 0 34 34"><title>open</title><path d="M30 2H4a2 2 0 0 0-2 2v24a2 2 0 0 0 2 2h8v-2H4V6h26v22h-8v2h8a2 2 0 0 0 2-2V4a2 2 0 0 0-2-2z"/><path d="M23.3 18.7l1.4-1.4L17 9.6l-7.7 7.7 1.4 1.4 5.3-5.3V32h2V13.4l5.3 5.3"/></symbol><symbol id="opened-folder" viewBox="0 0 34 34"><title>opened-folder</title><path d="M0 10l4 20h26l4-20zm28.4 18H5.6L2.4 12h29.2zM6 6h7l2 2h15V6H16l-2-2H4v4h2V6"/></symbol><symbol id="outdent" viewBox="0 0 34 34"><title>outdent</title><path d="M22 26h12v-2H22zM9.1 10.7L7.7 9.3 0 17l7.7 7.7 1.4-1.4L3.9 18H16v-2H3.8zM22 22h12v-2H22zm-4 6h2V6h-2zm4-20v2h12V8zm0 6h12v-2H22zm0 4h12v-2H22z"/></symbol><symbol id="overflow" viewBox="0 0 34 34"><title>overflow</title><path d="M24 8H2a2 2 0 0 0-2 2v22a2 2 0 0 0 2 2h22a2 2 0 0 0 2-2V10a2 2 0 0 0-2-2zm0 24H2V10h22z"/><path d="M27 4H4v2h23a.9.9 0 0 1 1 1v23h2V7a2.9 2.9 0 0 0-3-3z"/><path d="M31 0H8v2h23a.9.9 0 0 1 1 1v23h2V3a2.9 2.9 0 0 0-3-3z"/></symbol><symbol id="package-org" viewBox="0 0 34 34"><title>package-org</title><path d="M34 2H0v8h34zm-2 6H2V4h30zM33 17.9L21.7 29.2l-5.3-5.3-1.4 1.4 6.7 6.7 12.7-12.7-1.4-1.4M4 30V12H2v20h12l-2-2H4"/></symbol><symbol id="package-page" viewBox="0 0 34 34"><title>package-page</title><path d="M22 0H4v34h26V8zm5.2 8H22V2.8zm.8 24H6V2h14v8h8z"/><path d="M12 16l-2 4v8h14v-8l-2-4zm8.8 2l1 2h-9.6l1-2zm1.2 8H12v-4h10z"/></symbol><symbol id="package" viewBox="0 0 34 34"><title>package</title><path d="M2 2v8h30V2zm28 6H4V4h26zM30 30H4V12H2v20h30V12h-2v18"/><path d="M10 12v6h14v-6zm12 4H12v-2h10z"/></symbol><symbol id="page-include" viewBox="0 0 34 34"><path d="M12 14h-2v14h14v-8l-6-6zm10 12H12V16h5l5 5zm0-26H4v34h26V8zm0 2.83L27.17 8H22zM28 32H6V2h14v8h8z"/><path d="M17 15v6h6l-6-6"/></symbol><symbol id="page-region" viewBox="0 0 34 34"><path d="M14 14h-4v2h4zm6 0h-4v2h4zm2-14H4v34h26V8zm0 2.83L27.17 8H22zM28 32H6V2h14v8h8zm-4-18h-2v4h2zM10 28h2v-4h-2zm10 0h4v-2h-4zm4-8h-2v4h2zm-10 8h4v-2h-4zm-4-6h2v-4h-2z"/></symbol><symbol id="page-title" viewBox="0 0 34 34"><title>page-title</title><path d="M28 6H6v4h9v18h4V10h9V6"/></symbol><symbol id="page" viewBox="0 0 34 34"><title>page</title><path d="M22 0H4v34h26V8zm5.2 8H22V2.8zm.8 24H6V2h14v8h8z"/></symbol><symbol id="pagination" viewBox="0 0 34 34"><path d="M13.29 9.29L5.59 17l7.7 7.71 1.42-1.42L8.41 17l6.3-6.29zm9.42 0l-1.42 1.42 6.3 6.29-6.3 6.29 1.42 1.42 7.7-7.71z"/></symbol><symbol id="palette" viewBox="0 0 34 34"><title>palette</title><path d="M10 14a2 2 0 1 0-2 2 2 2 0 0 0 2-2zm0 6a2 2 0 1 0 2 2 2 2 0 0 0-2-2zm2-14a2 2 0 1 0 2 2 2 2 0 0 0-2-2zm14 8q-6 0-6-6c0-6-4-8-8-8C6 0 0 6 0 16a17.9 17.9 0 0 0 18 18c10 0 16-6 16-12 0-4-2-8-8-8zm2.5 14.7A16.7 16.7 0 0 1 18 32 16 16 0 0 1 2 16 16.7 16.7 0 0 1 5.3 5.5 8.9 8.9 0 0 1 12 2c2.7 0 6 1 6 6s2.9 8 8 8 6 3.3 6 6a8.9 8.9 0 0 1-3.5 6.7zM26 20a2 2 0 1 0 2 2 2 2 0 0 0-2-2zm-8 4a2 2 0 1 0 2 2 2 2 0 0 0-2-2z"/></symbol><symbol id="partner" viewBox="0 0 34 34"><title>partner</title><path d="M33.2 9.8a2.3 2.3 0 0 0-1.8-.2 12 12 0 0 1-2.4.4 11.9 11.9 0 0 1-3.1-.7A24.2 24.2 0 0 0 19 8a6.4 6.4 0 0 0-3.1.9A9.3 9.3 0 0 0 12 8a11.2 11.2 0 0 0-4 1c-1.7.7-3.4 1.4-5.2.7a2 2 0 0 0-2 .2 2.1 2.1 0 0 0-.8 1.6v8.9a2.2 2.2 0 0 0 1 1.8l1 .5v.3a7 7 0 0 0 12.3 4.6 16 16 0 0 0 2.7.4c2.1 0 4.4 0 7.7-3.3s1.8-1.5 7.4-1.7a2 2 0 0 0 1.9-2v-9.5a2.1 2.1 0 0 0-.8-1.7zM9 28a5 5 0 0 1-4.9-4.3c2.2 1 5.3 2.3 8 3.2A4.9 4.9 0 0 1 9 28zm8-2c-3.2 0-12.5-4.1-15-5.6v-8.8h.1c2.5.9 4.7.1 6.7-.7A8.2 8.2 0 0 1 12 10l1.5.2a46.6 46.6 0 0 0-5.7 4.6 2 2 0 0 0-.3 2.4A5 5 0 0 0 12 20a8.9 8.9 0 0 0 5.9-2.6l5.2 6.1C20.5 26 18.9 26 17 26zm7.7-3.6h.1l-5.4-6.2a2.1 2.1 0 0 0-1.3-.7h-.2a2.1 2.1 0 0 0-1.3.5 6.9 6.9 0 0 1-4.6 2 3.2 3.2 0 0 1-2.8-1.8c3.2-3 7.4-6.2 9.8-6.2a21.3 21.3 0 0 1 6.3 1.2 16.6 16.6 0 0 0 3.7.8 11.7 11.7 0 0 0 3-.5V21a18.3 18.3 0 0 0-7.3 1.4z"/></symbol><symbol id="paste" viewBox="0 0 34 34"><title>paste</title><path d="M28 4v28H6V4H4v30h26V4h-2"/><path d="M26 2h-5.6a3.9 3.9 0 0 0-6.8 0H8v8h18zm-2 6H10V4h5a2 2 0 0 1 4 0h5z"/></symbol><symbol id="pause" viewBox="0 0 34 34"><title>pause</title><path d="M12 6h4v22h-4zM18 6h4v22h-4z"/></symbol><symbol id="people" viewBox="0 0 34 34"><title>people</title><path d="M14 22c3 0 6-3 6-8a5.8 5.8 0 0 0-6-6 5.8 5.8 0 0 0-6 6c0 5 3 8 6 8zm0-12a3.8 3.8 0 0 1 4 4c0 3.8-2 6-4 6s-4-2.2-4-6a3.8 3.8 0 0 1 4-4z"/><path d="M19.3 22.7c1.6 1.6 2.5 4.1 2.7 7.3H6c.2-3.2 1.1-5.7 2.7-7.3l-1.4-1.4C5.1 23.5 4 26.7 4 31v1h20v-1c0-4.3-1.1-7.5-3.3-9.7zM26.7 15.3l-1.4 1.4c1.6 1.6 2.5 4.1 2.7 7.3h-2v2h4v-1c0-4.3-1.1-7.5-3.3-9.7zM20 4a3.8 3.8 0 0 1 4 4 7 7 0 0 1-2 5.2v2.3c2.2-1 4-3.6 4-7.5a5.8 5.8 0 0 0-6-6 5.7 5.7 0 0 0-5.7 4h2.1A4.1 4.1 0 0 1 20 4z"/></symbol><symbol id="phone-landscape" viewBox="0 0 34 34"><title>phone-landscape</title><path d="M32 8v18H2V8h30m2-2H0v22h34V6zm-12 6v10H6V12h16m2-2H4v14h20V10zm4 9a2 2 0 1 0-2-2 2 2 0 0 0 2 2z"/></symbol><symbol id="phone-portrait" viewBox="0 0 34 34"><title>phone-portrait</title><path d="M26 2v30H8V2h18m2-2H6v34h22V0zm-6 6v16H12V6h10m2-2H10v20h14V4zm-9 24a2 2 0 1 0 2-2 2 2 0 0 0-2 2z"/></symbol><symbol id="photo" viewBox="0 0 34 34"><title>opened-folder_1</title><path d="M32 8H2a2 2 0 0 0-2 2v18a2 2 0 0 0 2 2h30a2 2 0 0 0 2-2V10a2 2 0 0 0-2-2zm0 20H2V10h30zM2 4h8v2H2z"/><path d="M26 12h4v2h-4zM17 26a7 7 0 1 0-7-7 7 7 0 0 0 7 7zm0-12a5 5 0 1 1-5 5 5 5 0 0 1 5-5z"/></symbol><symbol id="picklist" viewBox="0 0 34 34"><title>picklist</title><path d="M32 6H2a2 2 0 0 0-2 2v18a2 2 0 0 0 2 2h30a2 2 0 0 0 2-2V8a2 2 0 0 0-2-2zm0 20H2V8h30z"/><path d="M28.7 14.7l-1.4-1.4-4.3 4.3-4.3-4.3-1.4 1.4 5.7 5.7 5.7-5.7"/></symbol><symbol id="pin" viewBox="0 0 34 34"><title>pin</title><path d="M20 0a7.5 7.5 0 0 0-1 7l-6 6a8.7 8.7 0 0 0-2.6-.4A7 7 0 0 0 6 14l14 14a7.5 7.5 0 0 0 1-7l6-6a8.7 8.7 0 0 0 2.6.4A7 7 0 0 0 34 14zm7.6 13.1l-1.1-.4-.9.9-6 6-.9.9.4 1.1a6.3 6.3 0 0 1 .3 2.9l-9.9-9.9h.9l2 .3 1.1.4.9-.9 6-6 .9-.9-.4-1.1a6.2 6.2 0 0 1-.3-2.9l9.9 9.9h-.9zm-17.3 9.2l1.4 1.4-9 9-1.4-1.4z"/></symbol><symbol id="pinned" viewBox="0 0 34 34"><title>pinned</title><path d="M16 22h2v12h-2zm10-2H8a7.1 7.1 0 0 1 4-6V6a7.1 7.1 0 0 1-4-6h18a7.1 7.1 0 0 1-4 6v8a7.1 7.1 0 0 1 4 6zm-2.6-2a4.9 4.9 0 0 0-2.3-2.2l-1.1-.6V4.8l1.1-.6A4.9 4.9 0 0 0 23.4 2H10.6a4.9 4.9 0 0 0 2.3 2.2l1.1.6v10.4l-1.1.6a4.9 4.9 0 0 0-2.3 2.2z"/></symbol><symbol id="play" viewBox="0 0 34 34"><title>play</title><path d="M6 6v22l22-11L6 6"/></symbol><symbol id="power" viewBox="0 0 34 34"><title>power</title><path d="M18 8.1V2h-2v12h2V8.1"/><path d="M22 7v2.2A11 11 0 1 1 6 19a10.9 10.9 0 0 1 6-9.8V7a13 13 0 1 0 10 0z"/></symbol><symbol id="presentation" viewBox="0 0 34 34"><title>presentation</title><path d="M34 2H18V0h-2v2H0v26h7.5L6 34h2l1.5-6h15l1.5 6h2l-1.5-6H34zm-2 24H2V4h30z"/></symbol><symbol id="preview" viewBox="0 0 34 34"><path d="M22 0H4v34h26V8zm0 2.83L27.17 8H22zM28 32H6V2h14v8h8zm-9.83-9.17l5.42 5.41L25 26.83l-5.41-5.42zM14 13a5 5 0 1 0 5 5 5 5 0 0 0-5-5zm0 8a3 3 0 1 1 3-3 3 3 0 0 1-3 3z"/></symbol><symbol id="print" viewBox="0 0 34 34"><title>print</title><path d="M8 2h18v4h2V0H6v6h2V2M32 8H2a2 2 0 0 0-2 2v18h6v6h22v-6h6V10a2 2 0 0 0-2-2zm-6 18v6H8V18h18zm6 0h-4v-8h2v-2H4v2h2v8H2V10h30z"/></symbol><symbol id="priority" viewBox="0 0 34 34"><title>priority</title><path d="M26.6 2.1C26.5 2.1 22.7 4 20 4a17.1 17.1 0 0 1-4.7-.9A13.4 13.4 0 0 0 10 2a9.6 9.6 0 0 0-6.7 2.3l1.4 1.4A7.7 7.7 0 0 1 10 4a17.1 17.1 0 0 1 4.7.9A13.4 13.4 0 0 0 20 6a15.6 15.6 0 0 0 6-1.5v15.9a12.9 12.9 0 0 1-6 1.6 17.1 17.1 0 0 1-4.7-.9A13.4 13.4 0 0 0 10 20a9.6 9.6 0 0 0-6.7 2.3l1.4 1.4A7.7 7.7 0 0 1 10 22a17.1 17.1 0 0 1 4.7.9A13.4 13.4 0 0 0 20 24a14.9 14.9 0 0 0 7.6-2.2l.4-.3V1.4zM0 2h2v32H0z"/></symbol><symbol id="process" viewBox="0 0 34 34"><title>process</title><path d="M26 16l-9-9-9 9H0v2h8l9 9 9-9h8v-2zm-9 8.2L9.8 17 17 9.8l7.2 7.2z"/></symbol><symbol id="progress-meter" viewBox="0 0 34 34"><path d="M27 10H7a7 7 0 0 0 0 14h20a7 7 0 0 0 0-14zm0 12h-4V12h4a5 5 0 0 1 0 10z" fill="#231f20"/></symbol><symbol id="push" viewBox="0 0 34 34"><title>push</title><path d="M14 20v4h16V4H14v2l2 2V6h12v16H16v-4l-2 2"/><path d="M10 0v2l2 2V2h20v30H12V22l-2 2v10h24V0H10"/><path d="M6.4 5.3L5 6.7l5.3 5.3H0v2h10.3L5 19.3l1.4 1.4 7.7-7.7-7.7-7.7"/></symbol><symbol id="puzzle" viewBox="0 0 34 34"><title>puzzle</title><path d="M23 18a6.2 6.2 0 0 1 2.6.9A8 8 0 0 0 29 20h1V10h-9.8l.7-1.6A8 8 0 0 0 22 5c0-1.9-.8-5-6-5s-6 3.1-6 5a8 8 0 0 0 1.1 3.4l.7 1.6H4v24h26V24h-1a8 8 0 0 0-3.4 1.1 6.2 6.2 0 0 1-2.6.9c-1.3 0-3-.4-3-4s1.7-4 3-4zm0 10a8 8 0 0 0 3.4-1.1l1.6-.7V32H6V12h8v-1a8 8 0 0 0-1.1-3.4A6.2 6.2 0 0 1 12 5c0-1.3.4-3 4-3s4 1.7 4 3a6.2 6.2 0 0 1-.9 2.6A8 8 0 0 0 18 11v1h10v5.8l-1.6-.7A8 8 0 0 0 23 16c-1.9 0-5 .8-5 6s3.1 6 5 6z"/></symbol><symbol id="questions-and-answers" viewBox="0 0 34 34"><title>questions-and-answers</title><path d="M24 10v18h-7.8l-.6.6-2.6 2.6-2.6-2.6-.6-.6H2V10h22m2-2H0v22h9l4 4 4-4h9V8zm8-8H8v6h2V2h22v20h-4v2h6zM15.3 19.3A3.8 3.8 0 0 0 17 16a3.7 3.7 0 0 0-4-4 3.9 3.9 0 0 0-4 4h2a1.9 1.9 0 0 1 2-2 1.8 1.8 0 0 1 2 2 1.8 1.8 0 0 1-1 1.7 5 5 0 0 0-2 4.3h2a2.8 2.8 0 0 1 1.3-2.7zM14 24h-2v2h2z"/></symbol><symbol id="quotation-marks" viewBox="0 0 34 34"><title>quotation-marks</title><path d="M2 20h5l-3 8h8l4-10V6H2zM4 8h10v9.6L10.6 26H6.9l2-5.3 1-2.7H4zM18 6v14h5l-3 8h8l4-10V6zm12 11.6L26.6 26h-3.7l2-5.3 1-2.7H20V8h10z"/></symbol><symbol id="radio-button" viewBox="0 0 34 34"><path d="M17 8a9 9 0 1 0 9 9 9 9 0 0 0-9-9zm0-6a15 15 0 1 0 15 15A15 15 0 0 0 17 2zm0 28a13 13 0 1 1 13-13 13 13 0 0 1-13 13z"/><path d="M17 8a9 9 0 1 0 9 9 9 9 0 0 0-9-9zm0-6a15 15 0 1 0 15 15A15 15 0 0 0 17 2zm0 28a13 13 0 1 1 13-13 13 13 0 0 1-13 13z" fill="none"/><path d="M17 8a9 9 0 1 0 9 9 9 9 0 0 0-9-9zm0-6a15 15 0 1 0 15 15A15 15 0 0 0 17 2zm0 28a13 13 0 1 1 13-13 13 13 0 0 1-13 13z" fill="none"/></symbol><symbol id="radio-list" viewBox="0 0 34 34"><path d="M14 4v2h20V4zM5 24a5 5 0 1 0 5 5 5 5 0 0 0-5-5zm0 8a2.84 2.84 0 0 1-3-3 2.84 2.84 0 0 1 3-3 2.84 2.84 0 0 1 3 3 2.84 2.84 0 0 1-3 3zm9-2h20v-2H14zM5 12a5 5 0 1 0 5 5 5 5 0 0 0-5-5zm0 8a2.84 2.84 0 0 1-3-3 2.84 2.84 0 0 1 3-3 2.84 2.84 0 0 1 3 3 2.84 2.84 0 0 1-3 3zm9-2h20v-2H14zM5 0a5 5 0 1 0 5 5 5 5 0 0 0-5-5z"/></symbol><symbol id="radius-bottom-left" viewBox="0 0 34 34"><path d="M4 2H2a30 30 0 0 0 30 30v-2A28 28 0 0 1 4 2z"/></symbol><symbol id="radius-bottom-right" viewBox="0 0 34 34"><path d="M30 2A28 28 0 0 1 2 30v2A30 30 0 0 0 32 2z"/></symbol><symbol id="radius-combined" viewBox="0 0 34 34"><path d="M30 0H4a4 4 0 0 0-4 4v26a4 4 0 0 0 4 4h26a4 4 0 0 0 4-4V4a4 4 0 0 0-4-4zm2 30a2 2 0 0 1-2 2H4a2 2 0 0 1-2-2V4a2 2 0 0 1 2-2h26a2 2 0 0 1 2 2z"/></symbol><symbol id="radius-separate" viewBox="0 0 34 34"><path d="M0 4v10h2V4a2 2 0 0 1 2-2h10V0H4a4 4 0 0 0-4 4zm30-4H20v2h10a2 2 0 0 1 2 2v10h2V4a4 4 0 0 0-4-4zM2 30V20H0v10a4 4 0 0 0 4 4h10v-2H4a2 2 0 0 1-2-2zm30 0a2 2 0 0 1-2 2H20v2h10a4 4 0 0 0 4-4V20h-2z"/></symbol><symbol id="radius-top-left" viewBox="0 0 34 34"><path d="M2 32h2A28 28 0 0 1 32 4V2A30 30 0 0 0 2 32z"/></symbol><symbol id="radius-top-right" viewBox="0 0 34 34"><path d="M2 2v2a28 28 0 0 1 28 28h2A30 30 0 0 0 2 2z"/></symbol><symbol id="record-create" viewBox="0 0 34 34"><title>record-create</title><path d="M21.2 2L28 8.8V32H6V2h15.2m.8-2H4v34h26V8l-8-8zm0 0h-2v10h2V0zm8 8H20v2h10V8zm-4 10H12v2h14v-2zm0-4H12v2h14v-2zm0 8H12v2h14v-2zm-16-4H8v2h2v-2zm0-4H8v2h2v-2zm0 8H8v2h2v-2z"/></symbol><symbol id="record" viewBox="0 0 34 34"><title>record</title><circle cx="17" cy="17" r="11"/></symbol><symbol id="redo" viewBox="0 0 34 34"><title>redo</title><path d="M6 20a10 10 0 0 1 10-10h4.6l-5.3 5.3 1.4 1.4L24.4 9l-7.7-7.7-1.4 1.4L20.6 8H16a12 12 0 0 0 0 24h2v-2h-2A10 10 0 0 1 6 20z"/></symbol><symbol id="refresh" viewBox="0 0 34 34"><title>refresh</title><path d="M30 17A13 13 0 1 1 17 4a13.4 13.4 0 0 1 9.4 4H20v2h10V0h-2v6.8A15 15 0 1 0 32 17z"/></symbol><symbol id="remove-circle" viewBox="0 0 34 34"><title>remove-circle</title><path d="M10 16h14v2H10z"/><path d="M27.6 6.4A15 15 0 0 0 6.4 27.6 15 15 0 0 0 27.6 6.4zm-1.4 19.8a13 13 0 1 1 0-18.4 13 13 0 0 1 0 18.4z"/></symbol><symbol id="remove-link" viewBox="0 0 34 34"><title>remove-link</title><path d="M26 16h-4v2h4zM8 18h4v-2H8zM24 8h-2v2h2c5.5 0 8 3.6 8 7s-2.5 7-8 7h-2v2h2c6.6 0 10-4.5 10-9s-3.4-9-10-9zm-8 22h2V4h-2zM0 17c0 4.5 3.4 9 10 9h2v-2h-2c-5.5 0-8-3.6-8-7s2.5-7 8-7h2V8h-2C3.4 8 0 12.5 0 17z"/></symbol><symbol id="remove-page" viewBox="0 0 34 34"><title>remove-page</title><path d="M22 0H4v34h26V8zm0 2.8L27.2 8H22zM28 32H6V2h14v8h8zM12 22h10v-2H12z"/></symbol><symbol id="reply-all" viewBox="0 0 34 34"><title>reply-all</title><path d="M14 8h-1.8l4.6-5.3-1.6-1.4L8.7 9l6.5 7.7 1.6-1.4-4.6-5.3H14c11.9 0 18 6.7 18 20v2h2v-2c0-14.4-6.9-22-20-22z"/><path d="M8.8 2.7L7.2 1.3.7 9l6.5 7.6 1.6-1.3L3.3 9l5.5-6.3"/></symbol><symbol id="reply" viewBox="0 0 34 34"><title>reply</title><path d="M10 8H8.2l4.6-5.3-1.6-1.4L4.7 9l6.5 7.7 1.6-1.4L8.2 10H10c11.4 0 18 7.3 18 20v2h2v-2c0-13.8-7.5-22-20-22z"/></symbol><symbol id="reset-password" viewBox="0 0 34 34"><title>reset-password</title><path d="M8 21H7v-5h1zm2-2v-1H5v1zm-3.9-2.6l-.7.7 3.5 3.5.7-.7zm3.5.7l-.7-.7-3.5 3.5.7.7zM15 16h-1v5h1zm2 3v-1h-5v1zm-3.9-2.6l-.7.7 3.5 3.5.7-.7zm3.5.7l-.7-.7-3.5 3.5.7.7zM32 16l-2 2 2 2 2-2-2-2zm-4 4l-8 8v2h2l8-8-2-2zm-10 4H2V12h32v-2H0v16h18z"/></symbol><symbol id="resource-absence" viewBox="0 0 34 34"><title>resource-absence</title><path d="M15 4c2.5 0 5 .7 5 6s-2.1 8-5 8-5-3.3-5-8 2.5-6 5-6m0-2c-4 0-7 2-7 8s3 10 7 10 7-4 7-10-3-8-7-8zm16.9 25.6l-8.4-8.5-1.4 1.4 8.4 8.5zm-1.4-8.5l-8.4 8.5 1.4 1.4 8.4-8.5zM30 32H2c.2-5.1 2.1-8.9 5.6-11.2l-1.2-1.6C2.2 22 0 26.7 0 33v1h30z"/></symbol><symbol id="resource-capacity" viewBox="0 0 34 34"><title>resource-capacity</title><path d="M15 4c2.5 0 5 .7 5 6s-2.1 8-5 8-5-3.3-5-8 2.5-6 5-6m0-2c-4 0-7 2-7 8s3 10 7 10 7-4 7-10-3-8-7-8zm15 30H2c.2-5.1 2.1-8.9 5.6-11.2l-1.2-1.6C2.2 22 0 26.7 0 33v1h30zm-2.5-13a4.5 4.5 0 1 1-4.5 4.5 4.5 4.5 0 0 1 4.5-4.5m0-2a6.5 6.5 0 1 0 6.5 6.5 6.5 6.5 0 0 0-6.5-6.5zm.5 7v-6a6 6 0 0 0-6 6 5.6 5.6 0 0 0 1.8 4.2z"/></symbol><symbol id="resource-territory" viewBox="0 0 34 34"><title>resource-territory</title><path d="M15 4c2.5 0 5 .7 5 6s-2.1 8-5 8-5-3.3-5-8 2.5-6 5-6m0-2c-4 0-7 2-7 8s3 10 7 10 7-4 7-10-3-8-7-8zm15 30H2c.2-5.1 2.1-8.9 5.6-11.2l-1.2-1.6C2.2 22 0 26.7 0 33v1h30zm-2-16a5.8 5.8 0 0 0-6 6c0 4 6 8 6 8s6-4 6-8a5.8 5.8 0 0 0-6-6zm0 9a3 3 0 1 1 3-3 2.9 2.9 0 0 1-3 3z"/></symbol><symbol id="responsive-grid" viewBox="0 0 34 34"><title>responsive-grid</title><path d="M26 0H0v34h34V0zM2 32V2h6v30zm8 0V2h6v30zm8 0V2h6v30zm14 0h-6V2h6z"/></symbol><symbol id="retweet" viewBox="0 0 34 34"><title>retweet</title><path d="M33.3 23.7L29 19.4l-4.3 4.3-1.4-1.4 5.7-5.7 5.7 5.7zm-22.6-12l-1.4-1.4L5 14.6.7 10.3l-1.4 1.4L5 17.4zM6 6h22v8h2V4H4v11h2zm24 13h-2v9H6v-8H4v10h26z"/></symbol><symbol id="rich-text-bulleted-list" viewBox="0 0 34 34"><title>rich-text-bulleted-list</title><path d="M2 4h6v6H2zM14 6h18v2H14zM2 14h6v6H2zM14 16h18v2H14zM2 24h6v6H2zM14 26h18v2H14z"/></symbol><symbol id="rich-text-numbered-list" viewBox="0 0 34 34"><title>rich-text-numbered-list</title><path d="M4 10h2V0H2v2h2v8M2 26h4v2H4v2h2v2H2v2h6V24H2v2M14 4h18v2H14zM14 16h18v2H14zM14 28h18v2H14zM8 14v-2H2v2h3.6L2 20v2h6v-2H4.4L8 14"/></symbol><symbol id="right-align-text" viewBox="0 0 34 34"><title>right-align-text</title><path d="M12 4h18v2H12zM4 10h26v2H4zM12 16h18v2H12zM12 28h18v2H12zM4 22h26v2H4z"/></symbol><symbol id="row" viewBox="0 0 34 34"><path d="M12 34h2v-2h-2zm-4 0h2v-2H8zm8 0h2v-2h-2zm0-12h2v-2h-2zm0 8h2v-2h-2zM0 0v18h34V0zm32 16H2V2h30zM0 34h2v-2H0zm4 0h2v-2H4zm-4-4h2v-2H0zm0-8h2v-2H0zm0 4h2v-2H0zm16 0h2v-2h-2zm2-22h-2v2h2zm14 18h2v-2h-2zM18 8h-2v2h2zm0 4h-2v2h2zm14 14h2v-2h-2zm-4 8h2v-2h-2zm-8 0h2v-2h-2zm4 0h2v-2h-2zm8-4h2v-2h-2zm0 4h2v-2h-2z"/></symbol><symbol id="rows" viewBox="0 0 34 34"><title>rows</title><path d="M0 0v34h34V0zm32 32H2v-6h30zm0-8H2v-6h30zm0-8H2v-6h30zM2 8V2h30v6z"/></symbol><symbol id="rules" viewBox="0 0 34 34"><title>rules</title><path d="M28.7 12.3l-1.4 1.4 2.3 2.3H13.4L22 7.4V10h2V4h-6v2h2.6l-10 10H0v2h10.6l10 10H18v2h6v-6h-2v2.6L13.4 18h16.2l-2.3 2.3 1.4 1.4 4.7-4.7-4.7-4.7"/></symbol><symbol id="salesforce" viewBox="0 0 34 34"><title>salesforce</title><path d="M9 8a4.8 4.8 0 0 1 3.6 1.6l1.2 1.2 1.4-.9a4.9 4.9 0 0 1 6.6.9l.9 1 1.3-.4a4.8 4.8 0 0 1 2-.4 6 6 0 0 1 0 12h-1.1l-1.1-.2-.7.9A4.1 4.1 0 0 1 20 25l-1.1-.2-1.6-.4-.8 1.4A3.7 3.7 0 0 1 13 28a4 4 0 0 1-3.8-2.8l-.6-1.7-1.7.4H6a4 4 0 0 1-2.4-7.2l1.1-.7-.4-1.4A4.5 4.5 0 0 1 4 13a5 5 0 0 1 5-5m0-2a7 7 0 0 0-7 7 5.4 5.4 0 0 0 .4 2.2A6 6 0 0 0 6 26h1.3a6 6 0 0 0 11 .9l1.7.1a6.1 6.1 0 0 0 4.6-2.1H26A8 8 0 0 0 26 9a8.6 8.6 0 0 0-2.7.5A7.1 7.1 0 0 0 18 7a6.5 6.5 0 0 0-3.9 1.2A6.9 6.9 0 0 0 9 6z"/></symbol><symbol id="save" viewBox="0 0 34 34"><title>save</title><path d="M26 0H0v34h34V8zm-6 2v6H8V2zM8 32V20h18v12zm24 0h-4V18H6v14H2V2h4v8h16V2h3.2L32 8.8z"/></symbol><symbol id="search" viewBox="0 0 34 34"><title>search</title><path d="M11.6.6a11.1 11.1 0 0 0-11 11 11 11 0 1 0 11-11zm0 20a9 9 0 0 1-9-9 9.1 9.1 0 0 1 9-9 9 9 0 0 1 0 18zM21.875 23.357l1.415-1.414 9.998 10-1.414 1.413z"/></symbol><symbol id="settings" viewBox="0 0 34 34"><title>settings</title><path d="M21 34h-8v-3.6a11.9 11.9 0 0 1-2.6-1.1l-2.6 2.5-5.6-5.6 2.5-2.6A14.2 14.2 0 0 1 3.3 20H0v-8h3.9a19.6 19.6 0 0 1 1.3-2.5L2.9 7.1l5.6-5.7 2.8 2.8 1.7-.6V0h8v3.6a11.9 11.9 0 0 1 2.6 1.1l2.6-2.5 5.6 5.6-2.5 2.6a8 8 0 0 1 .8 1.6H34v8h-3.3a14.3 14.3 0 0 1-.9 2.7l2.8 2.8-5.7 5.6-2.4-2.3a13.9 13.9 0 0 1-3.5 1.6zm-6-2h4v-3.2h.8a14 14 0 0 0 4.3-2l.7-.5 2.1 2.1 2.8-2.8-2.4-2.4.4-.6a12.1 12.1 0 0 0 1.1-3.7l.2-.9h3v-4h-3.4l-.2-.7a12.3 12.3 0 0 0-1.2-2.6l-.4-.7L29 7.8 26.2 5 24 7.2l-.7-.4a11.9 11.9 0 0 0-3.5-1.5H19V2h-4v3.2h-.8l-2.7 1-.6.4-2.4-2.3-2.8 2.8 2.1 2.1-.5.7a15.4 15.4 0 0 0-1.7 3.4l-.2.7H2v4h3l.2.8a12.1 12.1 0 0 0 1.6 4.5l.4.7L5 26.2 7.8 29l2.2-2.2.7.4a11.9 11.9 0 0 0 3.5 1.5h.8zm2-6a9 9 0 1 1 9-9 9 9 0 0 1-9 9zm0-16a7 7 0 1 0 7 7 7 7 0 0 0-7-7z"/></symbol><symbol id="setup-assistant-guide" viewBox="0 0 34 34"><title>setup-assistant-guide</title><path d="M17 2.3a10.9 10.9 0 0 1 5 9.7 14.3 14.3 0 0 1-3 8h-4.2a11.8 11.8 0 0 1-2.8-8 10.9 10.9 0 0 1 5-9.7M17 0s-7 3-7 12c0 6.7 4 10 4 10h6s4-4.5 4-10c0-9-7-12-7-12zm0 26a.9.9 0 0 1 1 1 3.7 3.7 0 0 1-1 2.3 3.7 3.7 0 0 1-1-2.3.9.9 0 0 1 1-1m0-2a2.9 2.9 0 0 0-3 3c0 3 3 5 3 5s3-2 3-5a2.9 2.9 0 0 0-3-3zm9-14v2.5l2 1.5v9.3L24 20l-1 2 5.3 4.6a1 1 0 0 0 1.7-.8V14a2.1 2.1 0 0 0-.8-1.6zM4.8 12.4A2.1 2.1 0 0 0 4 14v11.8a1 1 0 0 0 1.6.8L11 22l-1-2-4 3.3V14l2-1.5V10zM17 8a2 2 0 1 0 2 2 2 2 0 0 0-2-2z"/></symbol><symbol id="setup" viewBox="0 0 34 34"><title>setup</title><path d="M21 34h-8v-3.6a11.9 11.9 0 0 1-2.6-1.1l-2.6 2.5-5.6-5.6 2.5-2.6A14.2 14.2 0 0 1 3.3 20H0v-8h3.9a19.6 19.6 0 0 1 1.3-2.5L2.9 7.1l5.6-5.7 2.8 2.8 1.7-.6V0h8v3.6a11.9 11.9 0 0 1 2.6 1.1l2.6-2.5 5.6 5.6-2.5 2.6a8 8 0 0 1 .8 1.6H34v8h-3.3a14.3 14.3 0 0 1-.9 2.7l2.8 2.8-5.7 5.6-2.4-2.3a13.9 13.9 0 0 1-3.5 1.6zm-6-2h4v-3.2h.8a14 14 0 0 0 4.3-2l.7-.5 2.1 2.1 2.8-2.8-2.4-2.4.4-.6a12.1 12.1 0 0 0 1.1-3.7l.2-.9h3v-4h-3.4l-.2-.7a12.3 12.3 0 0 0-1.2-2.6l-.4-.7L29 7.8 26.2 5 24 7.2l-.7-.4a11.9 11.9 0 0 0-3.5-1.5H19V2h-4v3.2h-.8l-2.7 1-.6.4-2.4-2.3-2.8 2.8 2.1 2.1-.5.7a15.4 15.4 0 0 0-1.7 3.4l-.2.7H2v4h3l.2.8a12.1 12.1 0 0 0 1.6 4.5l.4.7L5 26.2 7.8 29l2.2-2.2.7.4a11.9 11.9 0 0 0 3.5 1.5h.8zm2-6a9 9 0 1 1 9-9 9 9 0 0 1-9 9zm0-16a7 7 0 1 0 7 7 7 7 0 0 0-7-7zm1 2l-4 6h3l-1 4 4-6h-3z"/></symbol><symbol id="shadow-inner" viewBox="0 0 34 34"><path d="M24 16h2v-2h-2zm0-4h2v-2h-2zM14 24v2h2v-2zM24 8h2V6h-2zM0 0v30h30V0zm28 4h-2v2h2v2h-2v2h2v2h-2v2h2v2h-2v2h2v2h-2v2h2v2h-2v2h2v2h-2v-2h-2v2h-2v-2h-2v2h-2v-2h-2v2h-2v-2h-2v2h-2v-2H8v2H6v-2H4v2H2V2h26zm-4 16h2v-2h-2zM6 24v2h2v-2zm4 0v2h2v-2zm8 0v2h2v-2zm4 0v2h2v-2zm2 0h2v-2h-2z"/></symbol><symbol id="shadow-outer" viewBox="0 0 34 34"><path d="M34 24v-2h-2v2zm0 4v-2h-2v2zm0 4v-2h-2v2zm-4 2h2v-2h-2zm4-22v-2h-2v2zm0 4v-2h-2v2zm0 4v-2h-2v2zM22 34h2v-2h-2zM34 8V6h-2v2zM6 34h2v-2H6zM30 8V6h2V4h-2V0H0v30h4v2h2v-2h2v2h2v-2h2v2h2v-2h2v2h2v-2h2v2h2v-2h2v2h2v-2h2v2h2v-2h2v-2h-2v-2h2v-2h-2v-2h2v-2h-2v-2h2v-2h-2v-2h2v-2h-2v-2h2V8zm-2 20H2V2h26zm-14 6h2v-2h-2zm4 0h2v-2h-2zm8 0h2v-2h-2zm-16 0h2v-2h-2z"/></symbol><symbol id="share-post" viewBox="0 0 34 34"><title>share-post</title><path d="M30 4v20h-8l-5 5-5-5H4V4h26m2-2H2v24h9l6 6 6-6h9V2z"/></symbol><symbol id="share" viewBox="0 0 34 34"><title>share</title><path d="M32 32H2V2h12V0H0v34h34V20h-2v12"/><path d="M32 0H22v2h8.6L6.3 26.3l1.4 1.4L32 3.4V12h2V0h-2"/></symbol><symbol id="shield" viewBox="0 0 34 34"><title>shield</title><path d="M17 2.2l11 5.1V19c0 1.3 0 5.4-11 12.6C6 24.4 6 20.3 6 19V7.3l11-5.1M17 0L4 6v13c0 2.3.5 7.1 13 15 12.5-7.9 13-12.7 13-15V6L17 0z"/></symbol><symbol id="shuffle" viewBox="0 0 34 34"><title>shuffle</title><path d="M27.2 20.6l2.7 3.4h-5.1l-.7-.2L9.3 7.3h-.1c-.1 0-.1-.1-.2-.2A2.7 2.7 0 0 0 7.2 6H0v2h7.1l.4.4.4.3 14.8 16.5h.1a3.2 3.2 0 0 0 2 .7h5.1l-2.7 3.4 1.6 1.2 4.5-5.5-4.5-5.6z"/><path d="M25.1 8.3a.9.9 0 0 1 .7-.3h4.1l-2.7 3.4 1.6 1.2L33.3 7l-4.5-5.6-1.6 1.2L29.9 6h-4.1a2.9 2.9 0 0 0-2.1.9l-6 6.8 1.4 1.5zM7.9 23.8l-.7.2H0v2h7.2a2.9 2.9 0 0 0 2.1-.8l5.3-6-1.4-1.5z"/></symbol><symbol id="side-list" viewBox="0 0 34 34"><title>side-list</title><path d="M10 12H4v2h6zm0-4H4v2h6zm0-4H4v2h6zm0 12H4v2h6zm0 12H4v2h6zm0-8H4v2h6zM0 0v34h34V0zm12 32H2V2h10zm20 0H14V2h18zm-22-8H4v2h6z"/></symbol><symbol id="signpost" viewBox="0 0 34 34"><title>signpost</title><path d="M12 34h2V18h-2zM26 0H0v16h26l6-8zm-1 14H2V2h23l4.5 6z"/></symbol><symbol id="skip-back" viewBox="0 0 34 34"><title>skip-back</title><path d="M24 10l-12 6v-6h-2v14h2v-6l12 6V10"/></symbol><symbol id="skip-forward" viewBox="0 0 34 34"><title>skip-forward</title><path d="M22 10v6l-12-6v14l12-6v6h2V10h-2"/></symbol><symbol id="slider" viewBox="0 0 34 34"><path d="M32 15h-3.35a6 6 0 0 0-11.3 0H2a2 2 0 0 0 0 4h15.35a6 6 0 0 0 11.3 0H32a2 2 0 0 0 0-4zm-9 6a4 4 0 1 1 4-4 4 4 0 0 1-4 4z"/></symbol><symbol id="sliding-panel" viewBox="0 0 34 34"><path d="M0 0v34h34V0zm20 32H2V2h18zm12 0H22V2h10zM10.71 21.29L7.41 18H18v-2H7.41l3.3-3.29-1.42-1.42L3.59 17l5.7 5.71zM30 24h-6v2h6zm0 4h-6v2h6zm0-24h-6v2h6zm0 16h-6v2h6zm0-12h-6v2h6zm0 8h-6v2h6zm0-4h-6v2h6z"/></symbol><symbol id="sms" viewBox="0 0 34 34"><title>sms</title><path d="M0 0v28h11l6 6 6-6h11V0zm32 26H22l-5 5-5-5H2V2h30z"/><path d="M30 16v-2a2 2 0 0 0-2-2h-2v-2h4V8h-4a2 2 0 0 0-2 2v2a2 2 0 0 0 2 2h2v2h-4v2h4a2 2 0 0 0 2-2zM10 16v-2a2 2 0 0 0-2-2H6v-2h4V8H6a2 2 0 0 0-2 2v2a2 2 0 0 0 2 2h2v2H4v2h4a2 2 0 0 0 2-2zM14 10h2v8h2v-8h2v8h2v-8a2 2 0 0 0-2-2h-6a2 2 0 0 0-2 2v8h2z"/></symbol><symbol id="snippet" viewBox="0 0 34 34"><title>snippet</title><path d="M10 4v2h22V4zM2 30h6v-6H2zm2-4h2v2H4zm17-8H10v2h11zm0-10H10v2h11zM2 20h6v-6H2zm2-4h2v2H4zm6 10h22v-2H10zM2 10h6V4H2zm2-4h2v2H4zm6 24h11v-2H10zm0-14h22v-2H10z"/></symbol><symbol id="social-share" viewBox="0 0 34 34"><title>social-share</title><path d="M27 20a4.8 4.8 0 0 0-4.4 2.8l-10.9-4.2A4.1 4.1 0 0 0 12 17a5.9 5.9 0 0 0-.2-1.3l10.8-4.4A5 5 0 0 0 32 9a5 5 0 0 0-10 0v.3l-11.1 4.6A5.1 5.1 0 0 0 7 12a5 5 0 0 0 0 10 4.7 4.7 0 0 0 3.7-1.7L22 24.7v.3a5 5 0 1 0 5-5zm0-14a2.9 2.9 0 0 1 3 3 3 3 0 0 1-6 0 2.9 2.9 0 0 1 3-3zM7 20a3 3 0 0 1 0-6 3 3 0 0 1 0 6zm20 8a3 3 0 1 1 3-3 2.9 2.9 0 0 1-3 3z"/></symbol><symbol id="sort" viewBox="0 0 34 34"><title>sort</title><path d="M31.3 23.2L26 27.8V2h-2v25.8l-5.3-4.6-1.4 1.6 7.7 6.5 7.7-6.5-1.4-1.6M1.3 9.2l1.4 1.6L8 6.2V32h2V6.2l5.3 4.6 1.4-1.6L9 2.7 1.3 9.2"/></symbol><symbol id="space" viewBox="0 0 34 34"><path d="M18 28.41l7.71-7.7-1.42-1.42-6.29 6.3-6.29-6.3-1.42 1.42zM0 34h34v-2H0zM0 0v2h34V0zm18 8.41l6.29 6.3 1.42-1.42L18 5.59l-7.71 7.7 1.42 1.42z"/></symbol><symbol id="standard-objects" viewBox="0 0 34 34"><title>standard-objects</title><path d="M33 11L17.1 3 1.2 11.1l15.9 8zm-27.4.1l11.5-5.9L28.6 11l-11.5 5.9z"/><path d="M29 15l-2 1 2 1-12 6-12-6 2-1-2-1-2 1-2 1 2 1 14 7 14-7 2-1-2-1-2-1"/><path d="M29 21l-2 1 2 1-12 6-12-6 2-1-2-1-2 1-2 1 2 1 14 7 14-7 2-1-2-1-2-1"/></symbol><symbol id="stepper" viewBox="0 0 34 34"><title>stepper</title><path d="M26 24v-8h-8V8h-8V0H0v2h8v8h8v8h8v8h8v8h2V24h-8"/></symbol><symbol id="stop" viewBox="0 0 34 34"><title>stop</title><path d="M6 6h22v22H6z"/></symbol><symbol id="strikethrough" viewBox="0 0 34 34"><title>strikethrough</title><path d="M32 18H2v-2h30zm-16.7-4c-2.1-1-3.3-2.1-3.3-4s3-4 5-4 5 1.3 5 4h4c0-4.9-4.7-8-9-8s-9 3.1-9 8a7.2 7.2 0 0 0 1.1 4zm3.4 6c2.1 1 3.3 2.1 3.3 4s-3 4-5 4a4.7 4.7 0 0 1-5-4H8c0 3.4 3.1 8 9 8 4.3 0 9-3.1 9-8a7.2 7.2 0 0 0-1.1-4z"/></symbol><symbol id="styles" viewBox="0 0 34 34"><title>styles</title><path d="M18 0v34h14V0zm12 32H20V2h10zM12.3 21.5l2.1 5.7L2 12l5.3-4.2.7 1.9-3.2 2.6zM8 4l8-2.7v2.1l-5.4 1.9.7 1.9L16 20.5v5.9z"/></symbol><symbol id="subtract" viewBox="0 0 34 34"><title>subtract</title><path d="M2 16h30v2H2z"/></symbol><symbol id="success" viewBox="0 0 34 34"><title>success</title><path d="M17 2a15 15 0 1 0 15 15A15 15 0 0 0 17 2zm0 28a13 13 0 1 1 13-13 13 13 0 0 1-13 13z"/><path d="M14 21.6l-4.3-4.3-1.4 1.4 5.7 5.7 11.7-11.7-1.4-1.4L14 21.6"/></symbol><symbol id="summary-detail" viewBox="0 0 34 34"><title>summary-detail</title><path d="M32 4v6H2V4h30m2-2H0v10h34V2zm0 18H2v-6H0v8h34zm-22-4H4v2h8zm22 14H2v-6H0v8h34zm-22-4H4v2h8zm10-10h-8v2h8zm0 10h-8v2h8zm10-10h-8v2h8zm0 10h-8v2h8z"/></symbol><symbol id="summary" viewBox="0 0 34 34"><title>summary</title><path d="M32 4v6H2V4h30m2-2H0v10h34V2zm0 18H2v-6H0v8h34zm-2-4H4v2h28zm2 14H2v-6H0v8h34zm-2-4H4v2h28z"/></symbol><symbol id="switch" viewBox="0 0 34 34"><path d="M27 11H7a7 7 0 0 0 0 14h20a7 7 0 0 0 0-14zm0 12a5 5 0 1 1 5-5 5 5 0 0 1-5 5z"/></symbol><symbol id="sync" viewBox="0 0 34 34"><title>sync</title><path d="M34.7 19.3L30 14.6l-4.7 4.7 1.4 1.4 2.3-2.2A12.1 12.1 0 0 1 17 30a12.2 12.2 0 0 1-11.8-9h-2A14.1 14.1 0 0 0 31 18.4l2.3 2.3zM8.7 14.7l-1.4-1.4L5 15.6A12.1 12.1 0 0 1 28.8 13h2A14.1 14.1 0 0 0 3 15.6L.7 13.3l-1.4 1.4L4 19.4zM4.6 16z"/></symbol><symbol id="tab" viewBox="0 0 34 34"><title>icons-17px-utility</title><path d="M31.68 21l-4-10H6.32l-4 10H0v2h3.68l4-10h18.64l4 10H34v-2h-2.32"/></symbol><symbol id="tabbed-container" viewBox="0 0 34 34"><title>tabbed-container</title><path d="M26 0H0v34h34V0zm-8 2h6v4h-6zm-8 0h6v4h-6zm22 30H2V2h6v6h24zM26 6V2h6v4z"/></symbol><symbol id="table" viewBox="0 0 34 34"><title>table_1</title><path d="M0 0v34h34V0zm2 10h14v6H2zm0 8h14v6H2zm0 14v-6h14v6zm30 0H18v-6h14zm0-8H18v-6h14zm0-8H18v-6h14zM2 8V2h30v6z"/></symbol><symbol id="tablet-landscape" viewBox="0 0 34 34"><title>tablet-landscape</title><path d="M32 6v22H2V6h30m2-2H0v26h34V4zm-12 6v14H6V10h16m2-2H4v18h20V8zm2 9a2 2 0 1 0 2-2 2 2 0 0 0-2 2z"/></symbol><symbol id="tablet-portrait" viewBox="0 0 34 34"><title>tablet-portrait</title><path d="M28 2v30H6V2h22m2-2H4v34h26V0zm-6 6v16H10V6h14m2-2H8v20h18V4zm-9 22a2 2 0 1 0 2 2 2 2 0 0 0-2-2z"/></symbol><symbol id="tabset" viewBox="0 0 34 34"><title>tabset</title><path d="M32 19l-3-6H5l-3 6H0v2h3l3-6h6l3 6h19v-2zm-16 0l-2-4h6l2 4zm8 0l-2-4h6l2 4z"/></symbol><symbol id="task" viewBox="0 0 34 34"><title>task</title><path d="M2 32h6v-6H2zm2-4h2v2H4zm-2-8h6v-6H2zm2-4h2v2H4zm10 2h18v-2H14zm0-14v2h18V4zM4 6.6L1.2 3.8-.2 5.2 4 9.4 12.7.7 11.3-.7zM14 30h18v-2H14z"/></symbol><symbol id="text-area" viewBox="0 0 34 34"><path d="M12 22h4v-2h-4l-1 1-1-1H6v2h4v10H6v2h4l1-1 1 1h4v-2h-4zM0 0v28h8v-2H2V2h30v24H14v2h20V0z"/></symbol><symbol id="text-background-color" viewBox="0 0 34 34"><title>text-background-color</title><path d="M14.4 20h5.2L17 13l-2.6 7M12.6 24L10 30h14l-2.6-6h-8.8"/><path d="M2 4v26h4l9-21h4l9 21h4V4H2"/></symbol><symbol id="text-color" viewBox="0 0 34 34"><title>text-color</title><path d="M4 26h26v2H4zM12 20h10l2 4h4L19 6h-4L6 24h4zm5-10l3 6h-6z"/></symbol><symbol id="text-input" viewBox="0 0 34 34"><path d="M12 19h4v-2h-4l-1 1-1-1H6v2h4v10H6v2h4l1-1 1 1h4v-2h-4zM0 3v22h8v-2H2V5h30v18H14v2h20V3z"/></symbol><symbol id="thunder" viewBox="0 0 34 34"><title>thunder</title><path d="M22.7 21.3l-1.4 1.4 10 10 1.4-1.4zM16 2L2 16l10 10 14-14zM4.8 16L16 4.8l7.2 7.2L12 23.2z"/></symbol><symbol id="tile-card-list" viewBox="0 0 34 34"><title>tile-card-list</title><path d="M0 32h10V18H0zm2-12h6v10H2zM24 2v14h10V2zm8 12h-6V4h6zm-8 18h10V18H24zm2-12h6v10h-6zM0 16h10V2H0zM2 4h6v10H2zm10 12h10V2H12zm2-12h6v10h-6zm-2 28h10V18H12zm2-12h6v10h-6z"/></symbol><symbol id="toast" viewBox="0 0 34 34"><path d="M17 20H4v2h13zm-4 4H4v2h9zm2 4H4v2h11zM0 0v34h34V0zm19 32H2V18h17zm13 0H21V16H2V2h30z"/></symbol><symbol id="tooltip" viewBox="0 0 34 34"><path d="M5 29h20v-2H5zm22-10H5v2h22zm-2-4H5v2h20zm-3-9l-5-6-5 6H0v28h34V6zm10 26H2V8h10.94l.6-.72L17 3.12l3.46 4.16.6.72H32zM5 25h24v-2H5zm0-12h24v-2H5z"/></symbol><symbol id="topic" viewBox="0 0 34 34"><title>topic</title><path d="M34 17l-11-3 3-6-6 3-3-11-3 11-6-3 3 6-11 3 11 3-3 6 6-3 3 11 3-11 6 3-3-6zm-12.8 3.9l.3.6-.6-.3-2.2-1.1-.6 2.4-1.1 3.9-1.1-3.9-.6-2.4-2.2 1.1-.6.3.3-.6 1.1-2.2-2.4-.6L7.6 17l3.9-1.1 2.4-.6-1.1-2.2-.3-.6.6.3 2.2 1.1.6-2.4L17 7.6l1.1 3.9.6 2.4 2.2-1.1.6-.3-.3.6-1.1 2.2 2.4.6 3.9 1.1-3.9 1.1-2.4.6z"/></symbol><symbol id="touch-action" viewBox="0 0 34 34"><title>touch-action</title><path d="M26.7 17.4L21 16a1.2 1.2 0 0 1-1-1V8a2.8 2.8 0 0 0-3-3 2.8 2.8 0 0 0-3 3v12q0 .9-.6.9l-.7-.3-3.1-2.7a3.2 3.2 0 0 0-1.8-.6 2.4 2.4 0 0 0-2.2 1.1 2.7 2.7 0 0 0-.1 3.3l7.9 10.9A3.1 3.1 0 0 0 16 34h9.2a3 3 0 0 0 3-2.8L29 21a3.3 3.3 0 0 0-2.3-3.6zm.3 3.3L26.2 31a1 1 0 0 1-1 .9H16a1.2 1.2 0 0 1-.9-.5l-8-10.9a.7.7 0 0 1 .1-.9.7.7 0 0 1 .6-.3h.5l3.1 2.7a2.9 2.9 0 0 0 2 .8A2.7 2.7 0 0 0 16 20V8c0-.8.4-1 1-1s1 .2 1 1v7a3.1 3.1 0 0 0 2.6 3l5.6 1.3a1.4 1.4 0 0 1 .8 1.4zM12 7a5 5 0 0 1 10 0v4.9A7.2 7.2 0 0 0 24 7a7 7 0 0 0-14 0 7.2 7.2 0 0 0 2 4.9z"/></symbol><symbol id="transfer" viewBox="0 0 34 34"><title>transfer</title><path d="M23.3 15.3l1.4 1.4 5.2-5.7-5.2-5.7-1.4 1.4 3 3.3H4v2h22.3l-3 3.3M30 22H6.1l2.7-3.4-1.6-1.2L2.7 23l4.5 5.6 1.6-1.2L6.1 24H30v-2"/></symbol><symbol id="trending" viewBox="0 0 34 34"><title>trending</title><path d="M24 8v2h4.6L17 21.6l-5-5L1.3 27.3l1.4 1.4 9.3-9.3 5 5 13-13V16h2V8h-8"/></symbol><symbol id="turn-off-notifications" viewBox="0 0 34 34"><title>turn-off-notifications</title><path d="M30 17.5V2H0v24h16.1A9 9 0 1 0 30 17.5zM16.1 24H2V4h26v12.5a9.3 9.3 0 0 0-6 0L19.4 14l5.3-5.3-1.4-1.4-8.3 8.3-8.3-8.3-1.4 1.4 5.3 5.3-5.3 5.3 1.4 1.4 5.3-5.3 3 3 3-3 2.1 2.1a8.9 8.9 0 0 0-4 6.5zM30 26H20v-2h10z"/></symbol><symbol id="type-tool" viewBox="0 0 34 34"><title>type-tool</title><path d="M24 28h4L19 6h-4L6 28h4l2.6-6h8.8zm-7-16l2.6 6h-5.2z"/></symbol><symbol id="ui-blocker" viewBox="0 0 34 34"><path d="M17 0a17 17 0 1 0 17 17A17 17 0 0 0 17 0zm7 19.54c0 2.17-1 8.46-7 8.46s-7-5-7-7V11a1 1 0 0 1 2 0v4c0 .19 0 .7.5.7s.5-.5.5-.7V9a1 1 0 0 1 2 0v6c0 .21 0 .7.5.7s.5-.48.5-.7V7a1 1 0 0 1 2 0v8c0 .2 0 .7.5.7s.5-.47.5-.7V9a1 1 0 0 1 2 0v9.5c-.06.8 1 .95 1 0 0-1.5 1-3.5 2-3.5s0 1 0 4.54z"/></symbol><symbol id="undeprecate" viewBox="0 0 34 34"><title>undeprecate</title><path d="M16 26.6l-3.3-3.3-1.4 1.4 4.7 4.7 8.7-8.7-1.4-1.4-7.3 7.3"/><path d="M0 4v20h6v-2H2V6h30v16h-4v2h6V4H0"/></symbol><symbol id="underline" viewBox="0 0 34 34"><title>underline</title><path d="M4 26h26v2H4zM17 24a6.7 6.7 0 0 0 7-7V6h-4v11a2.7 2.7 0 0 1-3 3 2.7 2.7 0 0 1-3-3V6h-4v11a6.7 6.7 0 0 0 7 7z"/></symbol><symbol id="undo" viewBox="0 0 34 34"><title>undo</title><path d="M14 8H9.4l5.3-5.3-1.4-1.4L5.6 9l7.7 7.7 1.4-1.4L9.4 10H14a10 10 0 0 1 0 20h-2v2h2a12 12 0 0 0 0-24z"/></symbol><symbol id="unlock" viewBox="0 0 34 34"><title>unlock</title><path d="M6 12v22h22V12zm20 20H8V14h18zM10 7.5c0-3 2.7-5.5 6.1-5.5a5.9 5.9 0 0 1 5.8 4H24a8 8 0 0 0-7.9-6C11.6 0 8 3.4 8 7.5V10h2z"/><path d="M16 23.8V28h2v-4.2a2.9 2.9 0 0 0 2-2.8 3 3 0 0 0-6 0 2.9 2.9 0 0 0 2 2.8z"/></symbol><symbol id="unmuted" viewBox="0 0 34 34"><title>unmuted</title><path d="M17 22a5 5 0 0 0 5-5V5a5 5 0 0 0-10 0v12a5 5 0 0 0 5 5zM14 5a3 3 0 0 1 6 0v12a3 3 0 0 1-6 0z"/><path d="M26 12v5c0 .4-.1 9-9 9s-9-8.6-9-9v-5H6v5c0 .1.1 11 11 11s11-10.9 11-11v-5zM16 32h-4v2h10v-2h-4v-4h-2v4"/></symbol><symbol id="upload" viewBox="0 0 34 34"><title>upload</title><path d="M16 6.2V26h2V6.2l5.4 4.6 1.2-1.6L17 2.7 9.3 9.2l1.4 1.6L16 6.2M4 30h26v2H4z"/></symbol><symbol id="user-change" viewBox="0 0 34 34"><title>user-change</title><path d="M7.6 20.8l-1.2-1.6C2.2 22 0 26.7 0 33v1h30v-2H2c.2-5.1 2.1-8.9 5.6-11.2zM15 20c4 0 7-4 7-10s-3-8-7-8-7 2-7 8 3 10 7 10zm0-16c2.5 0 5 .7 5 6s-2.1 8-5 8-5-3.3-5-8 2.5-6 5-6zm5 22v2h2l8-8-2-2zm12-12l-2 2 2 2 2-2z"/></symbol><symbol id="user-remove" viewBox="0 0 34 34"><title>user-remove</title><path d="M16 19c4 0 7-4 7-10s-3-8-7-8-7 2-7 8 3 10 7 10zm0-16c2.5 0 5 .7 5 6s-2.1 8-5 8-5-3.3-5-8 2.5-6 5-6zM23 23h10v2H23zM8.6 19.8l-1.2-1.6C3.2 21 1 25.7 1 32v1h30v-2H3c.2-5.1 2.1-8.9 5.6-11.2z"/></symbol><symbol id="user-role" viewBox="0 0 34 34"><title>user-role</title><path d="M15 20c4 0 7-4 7-10s-3-8-7-8-7 2-7 8 3 10 7 10zm0-16c2.5 0 5 .7 5 6s-2.1 8-5 8-5-3.3-5-8 2.5-6 5-6zM7.6 20.8l-1.2-1.6C2.2 22 0 26.7 0 33v1h30v-2H2c.2-5.1 2.1-8.9 5.6-11.2z"/><path d="M31.6 18.4L29 21h-2v-2l1-1 1.6-1.6A2.9 2.9 0 0 0 28 16a4 4 0 0 0-4 4 2.9 2.9 0 0 0 .4 1.6L20 26a1.3 1.3 0 0 0 0 2 1.5 1.5 0 0 0 2 0l4.4-4.4a2.9 2.9 0 0 0 1.6.4 4 4 0 0 0 4-4 2.9 2.9 0 0 0-.4-1.6z"/></symbol><symbol id="user" viewBox="0 0 34 34"><title>user</title><path d="M17 2c-4 0-7 2-7 8s3 10 7 10 7-4 7-10-3-8-7-8zm0 16c-2.9 0-5-3.3-5-8s2.5-6 5-6 5 .7 5 6-2.1 8-5 8zM2 32h2a12.6 12.6 0 0 1 5.6-11.2l-1.2-1.6A14.5 14.5 0 0 0 2 32zM25.6 19.2l-1.2 1.6A12.6 12.6 0 0 1 30 32h2a14.5 14.5 0 0 0-6.4-12.8z"/></symbol><symbol id="video" viewBox="0 0 34 34"><title>video</title><path d="M21 8H1a.9.9 0 0 0-1 1v16a.9.9 0 0 0 1 1h20a.9.9 0 0 0 1-1V9a.9.9 0 0 0-1-1zm-1 16H2V10h18zM33 10a9.9 9.9 0 0 0-5.4 1.1 6.8 6.8 0 0 1-3.6.9v2a8.5 8.5 0 0 0 4.4-1.1A7.4 7.4 0 0 1 32 12v10a7.4 7.4 0 0 1-3.6-.9A8.5 8.5 0 0 0 24 20v2a6.8 6.8 0 0 1 3.6.9A9.9 9.9 0 0 0 33 24h1V10z"/></symbol><symbol id="voicemail" viewBox="0 0 34 34"><title>voicemail</title><path d="M26 10a8 8 0 0 0-8 8 8.2 8.2 0 0 0 2.7 6h-7.4a8.2 8.2 0 0 0 2.7-6 8 8 0 1 0-8 8h18a8 8 0 0 0 0-16zM2 18a6 6 0 1 1 6 6 6 6 0 0 1-6-6zm24 6a6 6 0 1 1 6-6 6 6 0 0 1-6 6z"/></symbol><symbol id="volume-high" viewBox="0 0 34 34"><title>volume-high</title><path d="M27.6 5.2l-1.2 1.6c.1.1 5.6 3.8 5.6 10.2s-5.5 10.1-5.6 10.2l1.2 1.6c.2-.1 6.4-4.4 6.4-11.8S27.8 5.3 27.6 5.2z"/><path d="M24.6 10.2l-1.2 1.6A6.4 6.4 0 0 1 26 17a6.6 6.6 0 0 1-2.6 5.2l1.2 1.6a8.5 8.5 0 0 0 0-13.6zM0 10v14h8l12 8V2L8 10zm9.1 1.7l8.9-6v22.6l-8.9-6-.5-.3H2V12h6.6z"/></symbol><symbol id="volume-low" viewBox="0 0 34 34"><title>volume-low</title><path d="M24.6 10.2l-1.2 1.6A6.4 6.4 0 0 1 26 17a6.6 6.6 0 0 1-2.6 5.2l1.2 1.6a8.5 8.5 0 0 0 0-13.6zM0 10v14h8l12 8V2L8 10zm9.1 1.7l8.9-6v22.6l-8.9-6-.5-.3H2V12h6.6z"/></symbol><symbol id="volume-off" viewBox="0 0 34 34"><title>volume-off</title><path d="M7.8 22H2V12h6.6l.5-.3 8.9-6v6.1l2-2V2L8 10H0v14h5.8zM18 28.3l-4.8-3.2-1.5 1.4L20 32V18.2l-2 2zm8.3-16.4l-1.4 1.5A5.9 5.9 0 0 1 26 17a6.6 6.6 0 0 1-2.6 5.2l1.2 1.6A8.5 8.5 0 0 0 28 17a8.2 8.2 0 0 0-1.7-5.1zm4.1-4.1L29 9.2a12.1 12.1 0 0 1 3 7.8c0 6.4-5.5 10.1-5.6 10.2l1.2 1.6c.2-.1 6.4-4.4 6.4-11.8a14.2 14.2 0 0 0-3.6-9.2zm-.1-5.5l-29 29 1.4 1.4 29-29z"/></symbol><symbol id="warning" viewBox="0 0 34 34"><title>warning</title><path d="M16 8h2v12h-2zM16 23h2v3h-2z"/><path d="M17 2a15 15 0 1 0 15 15A15 15 0 0 0 17 2zm0 28a13 13 0 1 1 13-13 13 13 0 0 1-13 13z"/></symbol><symbol id="weekly-view" viewBox="0 0 34 34"><title>weekly-view</title><path d="M32 2h-4V0h-2v2H8V0H6v2H2a2 2 0 0 0-2 2v6h34V4a2 2 0 0 0-2-2zm0 6H2V4h4v2h2V4h18v2h2V4h4zM6 22h22v-2H6zm26 10H2V12H0v20a2 2 0 0 0 2 2h30a2 2 0 0 0 2-2V12h-2zM6 26h22v-2H6zm22-10H6v2h22z"/></symbol><symbol id="wifi" viewBox="0 0 34 34"><title>wifi</title><path d="M11.5 20.3l1.4 1.5a5.9 5.9 0 0 1 8.5 0l1.4-1.5a8.1 8.1 0 0 0-11.3 0zm4.2 4.3l1.4 1.4 1.5-1.4a2 2 0 0 0-1.5-.6 2 2 0 0 0-1.4.6zm-8.5-8.5l1.5 1.4a11.5 11.5 0 0 1 8.4-3.5 11.6 11.6 0 0 1 8.5 3.5l1.4-1.4a14 14 0 0 0-9.9-4.1 14.3 14.3 0 0 0-9.9 4.1zM17.1 6A19.6 19.6 0 0 0 3 11.9l1.4 1.4a18 18 0 0 1 25.5 0l1.4-1.4A19.6 19.6 0 0 0 17.1 6z"/></symbol><symbol id="work-order-type" viewBox="0 0 34 34"><title>work-order-type</title><path d="M8 28h8v-2H8zm0-4h8v-2H8zm0-4h8v-2H8zM22 0H4v34h26V8zm0 2.8L27.2 8H22zM28 32H6V2h14v8h8zm-10-8h8v-2h-8zm0-4h8v-2h-8zM8 16h8v-2H8zm10 0h8v-2h-8zm0 12h8v-2h-8z"/></symbol><symbol id="world" viewBox="0 0 34 34"><title>world</title><path d="M25.9 1.4l-1.5 1.3a14 14 0 0 1-1.1 19.8 13.9 13.9 0 0 1-8.8 3.5h-.2a13.8 13.8 0 0 1-10.8-4.7L2 22.7A16 16 0 0 0 14.3 28v4h-4v2h10v-2h-4v-4.2a15.8 15.8 0 0 0 8.3-3.8 16 16 0 0 0 1.3-22.6zM14.3 22a10 10 0 1 0-10-10 10 10 0 0 0 10 10zm0-18a8 8 0 1 1-8 8 8 8 0 0 1 8-8z"/></symbol><symbol id="wrapper" viewBox="0 0 34 34"><title>wrapper</title><path d="M34 6V0h-6v2h-8V0h-6v2H6V0H0v6h2v8H0v6h2v8H0v6h6v-2h8v2h6v-2h8v2h6v-6h-2v-8h2v-6h-2V6zM16 2h2v2h-2zM2 2h2v2H2zm0 14h2v2H2zm2 16H2v-2h2zm14 0h-2v-2h2zm10-2h-8v-2h-6v2H6v-2H4v-8h2v-6H4V6h2V4h8v2h6V4h8v2h2v8h-2v6h2v8h-2zm4 2h-2v-2h2zm0-14h-2v-2h2zM30 4V2h2v2z"/></symbol><symbol id="yubi-key" viewBox="0 0 34 34"><title>yubi-key</title><path d="M0 26h24V6H0zM2 8h20v16H2zM26 10v2h6v8h-6v2h8V10h-8"/><path d="M12 10a6 6 0 1 0 6 6 6 6 0 0 0-6-6zm0 10a4 4 0 1 1 4-4 4 4 0 0 1-4 4z"/></symbol><symbol id="zoom-in" viewBox="0 0 34 34"><title>zoom-in</title><path d="M12.6 6.6h-2v4h-4v2h4v4h2v-4h4v-2h-4zm10.8 15.3l-1.5 1.5 10 10 1.5-1.5zM11.6.6a11.1 11.1 0 0 0-11 11 11 11 0 1 0 11-11zm0 20a9 9 0 0 1-9-9 9.1 9.1 0 0 1 9-9 9 9 0 0 1 0 18z"/></symbol><symbol id="zoom-out" viewBox="0 0 34 34"><title>zoom-out</title><path d="M11.6.6a11.1 11.1 0 0 0-11 11 11 11 0 1 0 11-11zm0 20a9 9 0 0 1-9-9 9.1 9.1 0 0 1 9-9 9 9 0 0 1 0 18zm-5-8h10v-2h-10zm16.8 9.3l-1.5 1.5 10 10 1.5-1.5z"/></symbol></defs></svg>