<?xml version="1.0" encoding="UTF-8"?>
<svg width="88px" height="88px" viewBox="0 0 88 88" version="1.1" xmlns="http://www.w3.org/2000/svg" xmlns:xlink="http://www.w3.org/1999/xlink">
    <!-- Generator: Sketch 53.2 (72643) - https://sketchapp.com -->
    <title>SNS</title>
    <desc>Created with Sketch.</desc>
    <g id="SNS" stroke="none" stroke-width="1" fill="none" fill-rule="evenodd">
        <rect fill="#FFFFFF" opacity="0" x="0" y="0" width="88" height="88"></rect>
        <rect id="Rectangle" x="0" y="0" width="88" height="88"></rect>
        <g id="Messaging_AmazonSNS" transform="translate(9.000000, 9.000000)" fill-rule="nonzero">
            <polygon id="Path" fill="#B8852E" points="27.2 62.81 20.11 60.83 13.41 53.19 20.88 53.81"></polygon>
            <polygon id="Path" fill="#D9A741" points="27.2 62.81 32.27 52.19 27.53 51.52 20.88 53.81"></polygon>
            <polygon id="Path" fill="#B8852E" points="10.81 57.78 6.83 56.66 2.44 51.65 7.1 52.38"></polygon>
            <polygon id="Path" fill="#D9A741" points="10.81 57.78 13.67 51.8 11 51.42 7.1 52.38"></polygon>
            <polygon id="Path" fill="#876929" points="0.7 51.82 4.77 52.65 24.71 35.31 4.77 15.89 0.7 17.94"></polygon>
            <polygon id="Path" fill="#D9A741" points="20.51 19.31 20.51 51.19 4.77 52.65 4.77 15.89"></polygon>
            <polygon id="Path" fill="#876929" points="9.8 53.73 16.78 55.14 36.06 32.81 16.78 9.82 9.8 13.35"></polygon>
            <polygon id="Path" fill="#D9A741" points="56.64 22.48 56.64 50.01 16.78 55.14 16.78 9.82"></polygon>
            <polygon id="Path" fill="#B8852E" points="49.43 69.37 39.36 66.55 29.84 55.69 40.46 56.58"></polygon>
            <polygon id="Path" fill="#D9A741" points="49.43 69.37 56.64 54.28 49.9 53.32 40.46 56.58"></polygon>
            <polygon id="Path" fill="#876929" points="24.71 56.63 34.98 58.61 48.91 29.62 34.98 0.63 24.71 5.82"></polygon>
            <polygon id="Path" fill="#D9A741" points="34.98 58.61 69.3 51.74 69.3 17.79 34.98 0.63"></polygon>
        </g>
    </g>
</svg>