<?xml version="1.0" encoding="UTF-8"?>
<svg width="88px" height="88px" viewBox="0 0 88 88" version="1.1" xmlns="http://www.w3.org/2000/svg" xmlns:xlink="http://www.w3.org/1999/xlink">
    <!-- Generator: Sketch 53.2 (72643) - https://sketchapp.com -->
    <title>Dynamo</title>
    <desc>Created with Sketch.</desc>
    <g id="Dynamo" stroke="none" stroke-width="1" fill="none" fill-rule="evenodd">
        <rect fill="#FFFFFF" opacity="0" x="0" y="0" width="88" height="88"></rect>
        <rect id="Rectangle" x="0" y="0" width="88" height="88"></rect>
        <g id="Database_AmazonDynamoDB" transform="translate(13.000000, 10.000000)" fill-rule="nonzero">
            <polygon id="Path" fill="#2E73B8" points="61.6843202 22.9776641 61.6843202 15.6828645 53.9932112 7.28047741 41.4042816 34.970162 53.9932112 62.6502984 61.6843202 54.2383632 61.6843202 46.9435635 59.1206172 48.6813299 59.1206172 45.1771526 61.6843202 43.8499574 61.6843202 36.5074169 59.1206172 36.574254 59.1206172 33.2896846 61.6843202 33.4138107 61.6843202 26.2622336 59.1206172 24.9254902 59.1206172 22.4620631"></polygon>
            <polygon id="Path" fill="#5294CF" points="40.285053 69.5058824 53.9932112 62.6502984 53.9932112 7.27092924 40.285053 0.434441603 24.7402122 35.5526002"></polygon>
            <polygon id="Path" fill="#2E73B8" points="21.0572806 69.5058824 40.285053 69.5058824 40.285053 0.434441603 21.0572806 0.434441603 11.1277146 35.5526002"></polygon>
            <polygon id="Path" fill="#205B99" points="21.0572806 69.5058824 7.22476374 62.6502984 2.87220829 35.5526002 7.22476374 7.27092924 21.0190164 0.434441603"></polygon>
            <polygon id="Path" fill="#19486F" points="59.1206172 45.1771526 53.9836451 47.6787724 40.285053 50.629156 30.9294503 50.629156 21.0572806 50.629156 7.60740598 47.6787724 7.36825458 47.6310315 7.21519769 47.5928389 7.21519769 37.1662404 21.0381485 38.1592498 30.9294503 38.1592498 40.285053 38.1592498 53.9932112 37.1662404 61.6938862 36.5265132 59.1206172 36.5074169 59.1206172 33.4329071 61.655622 33.4042626 53.9932112 32.8409207 40.285053 32.401705 30.9294503 32.401705 21.1625072 32.401705 7.21519769 32.7358909 7.21519769 22.2329071 7.36825458 22.2042626 21.1625072 18.9674339 30.9294503 18.9674339 40.285053 18.9674339 53.9932112 22.2042626 59.1206172 24.9350384 59.1206172 23.2068201 61.6843202 22.9967604 53.9932112 17.6306905 40.285053 13.2098892 30.9294503 13.2098892 21.1625072 13.2098892 7.21519769 17.7834612 7.21519769 7.27092924 0.490260366 15.6828645 0.490260366 22.9872123 2.41303761 23.2068201 2.41303761 24.9636829 0.490260366 26.1094629 0.490260366 33.4138107 2.41303761 33.4329071 2.41303761 36.5074169 0.490260366 36.5360614 0.490260366 43.8022165 2.41303761 44.9479966 2.41303761 46.7335038 0.471128255 46.9531117 0.490260366 54.228815 7.21519769 62.6407502 7.21519769 52.1282182 21.0477146 56.3867008 30.9294503 56.3867008 40.285053 56.3867008 53.9932112 52.1473146 61.6843202 46.9435635 59.1206172 46.7335038"></polygon>
        </g>
    </g>
</svg>