<?xml version="1.0" encoding="UTF-8"?>
<svg width="88px" height="88px" viewBox="0 0 88 88" version="1.1" xmlns="http://www.w3.org/2000/svg" xmlns:xlink="http://www.w3.org/1999/xlink">
    <!-- Generator: Sketch 53.2 (72643) - https://sketchapp.com -->
    <title>Lex</title>
    <desc>Created with Sketch.</desc>
    <g id="Lex" stroke="none" stroke-width="1" fill="none" fill-rule="evenodd">
        <rect fill="#FFFFFF" opacity="0" x="0" y="0" width="88" height="88"></rect>
        <rect id="Rectangle" x="0" y="0" width="88" height="88"></rect>
        <g id="AI_AmazonLex" transform="translate(11.000000, 9.000000)" fill-rule="nonzero">
            <polygon id="Path" fill="#2E73B8" points="55.6729412 61.7555556 19.7611765 50.6527778 19.7223529 40.5416667 63.4376471 45.325"></polygon>
            <polygon id="Path" fill="#19486F" points="63.2241176 33.3861111 27.8267647 33.9013889 27.8267647 41.9805556 63.2241176 45.3055556"></polygon>
            <polygon id="Path" fill="#2E73B8" points="10.4144118 8.19583333 46.3261765 19.2986111 46.2776471 29.4583333 2.65941176 24.6263889"></polygon>
            <polygon id="Path" fill="#99BCE3" points="2.87294118 36.5555556 38.2605882 36.05 38.2605882 27.9708333 2.87294118 24.6458333"></polygon>
            <polygon id="Path" fill="#5294CF" points="24.3617647 35.8166667 4.19294118 36.0111111 4.19294118 50.2152778 24.3617647 47.3861111"></polygon>
            <polygon id="Path" fill="#205B99" points="61.7294118 29.8666667 41.7838235 30.8097222 41.7838235 22.4875 61.7294118 19.6680556"></polygon>
            <rect id="Rectangle" fill="#2E73B8" x="23.1097059" y="0.0194444444" width="19.8291176" height="15.8569444"></rect>
            <rect id="Rectangle" fill="#2E73B8" x="23.1776471" y="54.5125" width="19.7611765" height="15.4680556"></rect>
            <polygon id="Path" fill="#5294CF" points="66 11.6083333 42.9388235 0.0486111111 32.9902941 11.025 32.9902941 11.025 61.7294118 19.6680556 61.7294118 29.8666667 32.9902941 26.9791667 32.9902941 43.0305556 53.9744118 40.9111111 53.9744118 35.0194444 58.1964706 40.4930556 61.7294118 45.0625 61.8167647 45.1694444 61.7294118 45.2958333 58.2061765 51.2847222 53.9744118 58.4694444 53.9744118 52.5583333 32.9902941 58.8388889 32.9902941 58.8388889 43.065 69.8541667 66 58.3625 66 49.0291667 66 20.9319444"></polygon>
            <polygon id="Path" fill="#205B99" points="4.19294118 40.1236111 32.9902941 43.0305556 32.9902941 26.9791667 12.2197059 29.0694444 12.2197059 35.0388889 7.89088235 29.4972222 4.19294118 24.7625 7.91029412 18.5694444 12.2197059 11.375 12.2197059 17.2763889 32.9902941 11.0541667 32.9902941 11.025 23.1097059 0.0194444444 0 11.5986111 0 20.9319444 0 48.9513889 0 58.3722222 23.1776471 69.9805556 32.9902941 58.8388889 4.19294118 50.2152778"></polygon>
            <polygon id="Path" fill="#19486F" points="61.7294118 19.6680556 41.7838235 22.4875 12.2197059 17.2763889 32.9902941 11.025"></polygon>
            <polygon id="Path" fill="#99BCE3" points="53.9744118 52.5583333 24.3617647 47.3861111 4.19294118 50.2152778 32.9902941 58.8388889"></polygon>
        </g>
    </g>
</svg>