<?xml version="1.0" encoding="UTF-8"?>
<svg width="88px" height="88px" viewBox="0 0 88 88" version="1.1" xmlns="http://www.w3.org/2000/svg" xmlns:xlink="http://www.w3.org/1999/xlink">
    <!-- Generator: Sketch 53.2 (72643) - https://sketchapp.com -->
    <title>box</title>
    <desc>Created with Sketch.</desc>
    <g id="box" stroke="none" stroke-width="1" fill="none" fill-rule="evenodd">
        <rect fill="#FFFFFF" opacity="0" x="0" y="0" width="88" height="88"></rect>
        <g transform="translate(4.000000, 24.000000)" fill="#22A7F0" fill-rule="nonzero">
            <g id="g4166" transform="translate(28.064516, 20.500000) scale(-1, 1) rotate(-180.000000) translate(-28.064516, -20.500000) ">
                <path d="M40.9741935,6.01333333 C36.0977032,5.98490667 32.116471,9.80993333 32.0912129,14.55992 C32.0541677,19.30936 35.9820774,23.1808533 40.8624968,23.2098267 C45.7389871,23.24536 49.7179742,19.4197867 49.7510903,14.6703467 C49.7842065,9.91708 45.8562968,6.04176 40.9741935,6.01333333 M14.9656839,5.85261333 C10.0858258,5.82036 6.10683871,9.64593333 6.07765161,14.3920933 C6.04453548,19.14536 9.97188387,23.0201333 14.8545484,23.0491067 C19.7254258,23.08136 23.7077806,19.2557867 23.7408968,14.5096267 C23.7684,9.75636 19.8388065,5.87776 14.9656839,5.85261333 M40.8220839,28.9536533 C35.1816774,28.9142933 30.3102387,25.7966533 27.8663806,21.2538533 C25.3607806,25.7715067 20.4511742,28.8273733 14.8158194,28.7896533 C11.4980323,28.7699733 8.44798065,27.6853867 6.00019355,25.8715467 L5.91992903,37.94468 C5.87390323,39.5037733 4.56048387,40.74744 2.95575484,40.7370533 C1.34934194,40.72776 0.050516129,39.46824 0.0359225806,37.9091467 L0.185787097,14.1209467 L0.193083871,14.1209467 C0.372696774,6.30962667 6.95101935,0.0612266667 15.0010452,0.110973333 C20.6358387,0.146506667 25.5072774,3.26524 27.9584323,7.81186667 C30.4572968,3.29749333 35.3775677,0.23944 41.0129226,0.274973333 C49.1426516,0.325266667 55.6901032,6.78741333 55.6407097,14.70588 C55.5873871,22.6243467 48.9563032,29.0039467 40.8220839,28.9536533" id="path4168"></path>
            </g>
            <g id="g4170" transform="translate(66.774194, 25.625000) scale(-1, 1) rotate(-180.000000) translate(-66.774194, -25.625000) translate(53.548387, 10.890625)">
                <path d="M25.3260124,4.91145833 L17.0382155,14.6612488 L25.1976939,24.51418 L25.1937543,24.51418 C26.2039808,25.7786076 25.8955662,27.5412755 24.4958819,28.4711782 C23.0815649,29.397261 21.1050103,29.1478681 20.0396294,27.9183663 L20.0396294,27.9238235 L12.9894303,19.4166319 L5.83680165,27.8337801 L5.83680165,27.8266858 C4.75284832,29.0458189 2.76560055,29.2739288 1.37660947,28.3271088 C-0.022512011,27.3791973 -0.302223747,25.6181667 0.726575154,24.3570133 L9.00930679,14.6115885 L0.853205216,4.761386 C-0.158709677,3.489864 0.149704873,1.73319907 1.56233356,0.804387731 C2.96370625,-0.125515046 4.94588881,0.123877894 6.01126973,1.3555625 L13.0519012,9.85565972 L20.2124091,1.44178588 C21.2941112,0.223198495 23.2762938,-0.00163715278 24.6776664,0.943 C26.0717227,1.89746007 26.3508717,3.65357928 25.3260124,4.91145833" id="path4172"></path>
            </g>
        </g>
    </g>
</svg>