<?xml version="1.0" encoding="UTF-8"?>
<svg width="88px" height="88px" viewBox="0 0 88 88" version="1.1" xmlns="http://www.w3.org/2000/svg" xmlns:xlink="http://www.w3.org/1999/xlink">
    <!-- Generator: Sketch 53.2 (72643) - https://sketchapp.com -->
    <title>GoogleCal</title>
    <desc>Created with Sketch.</desc>
    <g id="GoogleCal" stroke="none" stroke-width="1" fill="none" fill-rule="evenodd">
        <rect fill="#FFFFFF" opacity="0" x="0" y="0" width="88" height="88"></rect>
        <g id="google-calendar-icon">
            <rect id="Rectangle" x="0" y="0" width="88" height="88"></rect>
            <g id="g22" transform="translate(9.000000, 9.000000)" fill-rule="nonzero">
                <path d="M18.5533086,2.56126172 C19.0824102,2.47540234 19.6552617,2.46665234 20.1510039,2.70071484 C20.8849102,2.99657422 21.404168,3.69930859 21.5819023,4.45673047 C21.642332,4.99540234 21.624832,5.56633984 21.3699883,6.05825391 C20.907332,7.07516797 19.6765898,7.66169141 18.5962383,7.37977734 C17.4877227,7.13176953 16.6627617,6.06508984 16.6734258,4.93196484 C16.6520977,3.82919141 17.4961992,2.82184766 18.5533086,2.56126172" id="path2" fill="#FFFFFF"></path>
                <path d="M50.2600273,2.55737891 C50.7959648,2.47343359 51.3737383,2.47233984 51.8713945,2.71843359 C52.6952617,3.08155859 53.2533477,3.94124609 53.312957,4.83237891 C53.3121367,5.51843359 53.0827227,6.23483984 52.5741289,6.71499609 C52.1418242,7.17081641 51.5189336,7.42265234 50.8974102,7.45081641 C49.9351836,7.46448828 48.9650273,6.88972266 48.5882305,5.99202734 C48.3443242,5.51269141 48.3744023,4.96034766 48.4058477,4.44108984 C48.5882305,3.52562109 49.3552227,2.76901953 50.2600273,2.55737891" id="path4" fill="#FFFFFF"></path>
                <path d="M47.0783906,40.0399453 C48.332375,40.0342031 49.5866328,40.0331094 50.8397969,40.0399453 C50.8242109,45.0244375 50.8370625,50.00975 50.8340547,54.9939688 C49.5847187,54.9939688 48.3353828,54.9950625 47.0852266,54.9931484 C47.0822187,50.0086563 47.0958906,45.0244375 47.0783906,40.0399453" id="path6" fill="#FFFFFF"></path>
                <path d="M50.2600273,2.55737891 C49.3552227,2.76901953 48.5882305,3.52562109 48.4058477,4.44108984 C48.3744023,4.96034766 48.3443242,5.51269141 48.5882305,5.99202734 C48.9650273,6.88972266 49.9351836,7.46448828 50.8974102,7.45081641 C51.5189336,7.42265234 52.1418242,7.17081641 52.5741289,6.71499609 C53.0827227,6.23483984 53.3121367,5.51843359 53.312957,4.83237891 C53.2533477,3.94124609 52.6952617,3.08155859 51.8713945,2.71843359 C51.3737383,2.47233984 50.7959648,2.47343359 50.2600273,2.55737891 M18.5533086,2.56120703 C17.4961992,2.82179297 16.6520977,3.82913672 16.6734258,4.93191016 C16.6627617,6.06503516 17.4874492,7.13171484 18.5962383,7.37972266 C19.6765898,7.66163672 20.907332,7.07511328 21.3699883,6.05819922 C21.624832,5.56628516 21.642332,4.99534766 21.5819023,4.45667578 C21.404168,3.69925391 20.8849102,2.99651953 20.1510039,2.70066016 C19.6552617,2.46659766 19.0824102,2.47534766 18.5533086,2.56120703 M6.42170703,0.381910156 C7.21248828,0.0354648437 8.08694141,-0.0173085938 8.93897266,0.00429296875 C26.5076055,0.00620703125 44.0762383,0.00429296875 61.6448711,0.00319921875 C63.561668,-0.0287929688 65.4289727,1.15601172 66.2038945,2.91148047 C66.5306523,3.60355078 66.6692852,4.37163672 66.6556133,5.13480078 C66.647957,6.84296484 66.6731133,8.55085547 66.6457695,10.2579258 C66.0789336,10.0421836 65.4678008,9.98476172 64.8656914,9.98066016 C44.9867852,9.98476172 25.1081523,9.98257422 5.22924609,9.98366797 C4.59979297,10.0003477 3.95557422,10.027418 3.36112109,10.2590195 C3.33569141,8.48441016 3.34936328,6.71034766 3.34362109,4.93683203 C3.33186328,2.98093359 4.60553516,1.10323828 6.42170703,0.381910156" id="path8" fill="#C7C7C7"></path>
                <path d="M49.9653711,25.0782109 C50.2464648,24.962 50.5527148,24.9680156 50.8504883,24.9912578 C50.8329883,29.9924297 50.8526758,34.9941484 50.840918,39.9950469 L50.8398242,40.0398906 C49.5866602,40.0330547 48.3324023,40.0341484 47.078418,40.0398906 L47.078418,39.9961406 C47.0765039,36.53825 47.0754102,33.0814531 47.0792383,29.6232891 C44.5789258,30.4548125 42.0832617,31.3000078 39.5818555,32.1266094 C39.5741992,30.9975859 39.5875977,29.8682891 39.5750195,28.7392656 C43.0340039,27.5063359 46.5044727,26.3040312 49.9653711,25.0782109" id="path10" fill="#C7C7C7"></path>
                <path d="M19.3682617,26.8750234 C20.9347852,25.6814688 22.895332,25.0645938 24.853418,24.9913125 C26.7956445,24.9229531 28.805957,25.2371328 30.5050977,26.2239687 C31.8493164,26.9939688 32.9129883,28.226625 33.4926758,29.6613516 C34.0704492,31.0941641 34.2539258,32.6781875 34.0783789,34.2094375 C33.7024023,36.6621719 31.8083008,38.6435 29.5945508,39.6232266 C29.910918,39.7189297 30.2193555,39.8389688 30.5141211,39.9882656 C30.319707,40.0254531 30.1236523,40.0467813 29.9265039,40.0410391 C27.3149023,40.0224453 24.7030273,40.0585391 22.0930664,40.0232656 C22.0834961,39.4564297 22.0698242,38.8885 22.105918,38.3222109 C23.9885352,38.2773672 25.9747852,38.5076016 27.7362695,37.6820937 C29.1835742,37.0712344 30.2600977,35.6870938 30.4643555,34.1246719 C30.6399023,32.6360781 30.4895117,31.0083047 29.6074023,29.7483047 C28.913418,28.7508047 27.7373633,28.1984609 26.5613086,28.0237344 C24.9742773,27.80225 23.2341211,27.9602969 21.9019336,28.9236172 C20.5902539,29.8459219 19.8962695,31.4736953 19.9293555,33.0538906 C18.7210352,33.0861563 17.5118945,33.0615469 16.3027539,33.0656484 C16.3262695,32.4020156 16.3768555,31.7342813 16.549668,31.0911563 C16.965293,29.4155313 17.9912305,27.9094375 19.3682617,26.8750234" id="path12" fill="#C7C7C7"></path>
                <path d="M3.36109375,10.2589102 C3.95554687,10.027582 4.59976562,10.0002383 5.22921875,9.98355859 C25.108125,9.98273828 44.9867578,9.98465234 64.8656641,9.98055078 C65.4677734,9.98465234 66.0789062,10.0423477 66.6457422,10.2578164 C68.36375,10.8776992 69.7552734,12.4685586 69.9349219,14.3112539 C69.5854687,13.0482461 68.8302344,11.8730117 67.7009375,11.1771133 C66.8830859,10.6668789 65.9285156,10.3721133 64.9624609,10.3808633 C45.0201172,10.3945352 25.0766797,10.3945352 5.13351563,10.3945352 C3.63152344,10.3671914 2.11777344,11.0152383 1.16046875,12.184457 C0.695625,12.681293 0.4528125,13.3225039 0.127695312,13.9071133 C0.449804687,12.2265664 1.76449219,10.8260195 3.36109375,10.2589102" id="path14" fill="#4483EF"></path>
                <path d="M47.0081445,40.0019102 L47.078418,39.996168 L47.078418,40.039918 C47.095918,45.0244102 47.0822461,50.0086289 47.0852539,54.9931211 C48.3354102,54.9950352 49.5847461,54.9942148 50.834082,54.9942148 C50.8368164,50.0097227 50.8242383,45.0244102 50.8398242,40.039918 L50.840918,39.9950742 L50.9013477,39.9999961 C51.4525977,40.0664414 52.009043,40.0262461 52.5633008,40.0322617 C57.260957,40.0292539 61.9591602,40.0235117 66.656543,40.0322617 C67.1993164,47.8878477 67.7095508,55.7456211 68.246582,63.601207 C68.299082,64.4991758 68.4133789,65.4214805 68.1645508,66.3019492 L68.1421289,66.3301133 C67.9116211,66.5887852 67.7790039,66.9108945 67.6141211,67.2114023 C66.732832,68.649957 65.0949414,69.6181992 63.3968945,69.601793 C44.6568555,69.5908555 25.9181836,69.6102695 7.17923828,69.6034336 C6.59162109,69.6034336 5.99251953,69.6337852 5.41939453,69.4795664 C4.12439453,69.1262852 2.95025391,68.278082 2.29837891,67.092457 C2.16166016,66.8326914 2.03478516,66.5663633 1.85212891,66.3358555 L1.82888672,66.3035898 C1.51552734,65.1267148 1.77037109,63.9066367 1.80947266,62.7141758 C2.32462891,55.1580039 2.81544922,47.5990977 3.33771484,40.0429258 C9.58302734,40.0273398 15.8294336,40.0341758 22.0744727,40.0390977 C22.0804883,40.3981211 22.0834961,40.757418 22.0785742,41.1164414 C24.0577148,41.1544492 26.1290039,40.9173789 28.0036914,41.7010508 C29.2694336,42.1951523 30.309043,43.253082 30.7093555,44.5598398 C31.1504102,46.0060508 31.0995508,47.6067539 30.5813867,49.0269883 C30.0982227,50.358082 28.9407617,51.3867539 27.5888867,51.7840586 C25.9474414,52.269957 24.1192383,52.2281211 22.5382227,51.5497227 C21.3074805,51.0239023 20.3031445,49.9637852 19.9236133,48.671793 C19.7431445,48.1024961 19.6728711,47.5042148 19.6619336,46.9100352 C18.4653711,46.9176914 17.2688086,46.914957 16.0722461,46.9111289 C16.094668,48.4246055 16.4618945,49.9618711 17.3068164,51.2325352 C18.207793,52.622418 19.605332,53.637418 21.1368555,54.2326914 C23.0779883,54.9901133 25.2231055,55.1590977 27.2755273,54.8446445 C29.2716211,54.5285508 31.2264258,53.6344102 32.5821289,52.1050742 C33.8273633,50.7231211 34.471582,48.8746836 34.5563477,47.031168 C34.6706445,45.2713242 34.2656836,43.4228867 33.1481445,42.0250742 C32.5197852,41.1976523 31.6557227,40.6001914 30.7736133,40.0751914 C31.2029102,40.0215977 31.6363086,40.033082 32.0686133,40.0352695 C36.4939258,40.031168 40.9189648,40.0360898 45.3440039,40.033082 C45.8982617,40.0215977 46.4555273,40.0672617 47.0081445,40.0019102" id="path16" fill="#4483EF"></path>
                <path d="M1.16038672,12.184457 C2.11769141,11.0152383 3.63144141,10.3671914 5.13343359,10.3945352 C25.0768711,10.3945352 45.0200352,10.3945352 64.9623789,10.3808633 C65.9284336,10.3721133 66.8830039,10.6668789 67.7008555,11.1771133 C68.8301523,11.8730117 69.5856602,13.0482461 69.9351133,14.3112539 C70.0316367,14.7572305 70.0051133,15.2198867 69.9545273,15.6707852 C68.871168,23.7861367 67.7478867,31.896293 66.6790195,40.0135586 C62.1711289,40.0059023 57.6629648,40.0176602 53.1558945,40.0127383 C52.4042148,40.0067227 51.6517148,40.0409023 50.9014023,40.0001602 L50.8406992,39.9952383 C50.852457,34.9940664 50.833043,29.9923477 50.850543,24.9911758 C50.5527695,24.9679336 50.2465195,24.961918 49.9654258,25.0781289 C46.5045273,26.3039492 43.0340586,27.5065273 39.5750742,28.7391836 C39.5876523,29.868207 39.5739805,30.9975039 39.5819102,32.1268008 C42.0833164,31.3001992 44.5789805,30.4547305 47.079293,29.623207 C47.0754648,33.0813711 47.0762852,36.538168 47.0784727,39.9960586 L47.0081992,40.0018008 C41.769957,40.0409023 36.5300742,40.0028945 31.291832,40.022582 C31.0331602,40.0165664 30.7599961,40.0966836 30.5141758,39.9884023 C30.2191367,39.8391055 29.9109727,39.7190664 29.5946055,39.6233633 C31.808082,38.6433633 33.702457,36.6623086 34.0784336,34.2095742 C34.2539805,32.6783242 34.0705039,31.0943008 33.4927305,29.6614883 C32.913043,28.2267617 31.8490977,26.9941055 30.5051523,26.2241055 C28.8060117,25.2372695 26.7954258,24.9230898 24.8531992,24.9911758 C22.8953867,25.064457 20.9345664,25.681332 19.3683164,26.8751602 C17.9912852,27.9095742 16.9653477,29.4153945 16.5497227,31.091293 C16.3769102,31.734418 16.3260508,32.4018789 16.3025352,33.0657852 C17.5119492,33.0616836 18.7210898,33.0860195 19.9294102,33.0540273 C19.8963242,31.473832 20.5903086,29.8457852 21.9019883,28.9234805 C23.2341758,27.9601602 24.974332,27.8021133 26.5613633,28.0235977 C27.737418,28.1983242 28.9134727,28.750668 29.607457,29.748168 C30.4895664,31.008168 30.639957,32.6362148 30.4641367,34.1245352 C30.2601523,35.6872305 29.1836289,37.0710977 27.7363242,37.6822305 C25.9748398,38.5077383 23.9885898,38.2775039 22.1059727,38.3223477 L22.0592148,38.323168 C22.0786289,38.8902773 22.056207,39.4584805 22.071793,40.0264102 C15.8234727,40.0165664 9.57433203,40.0146523 3.32519141,40.0272305 C2.25933203,32.0759414 1.17706641,24.1265664 0.105464844,16.1763711 C-0.0178554687,15.4266055 -0.0596914062,14.6489492 0.127886719,13.9071133 C0.452730469,13.3225039 0.695816406,12.681293 1.16038672,12.184457" id="path18" fill="#3664D0"></path>
                <path d="M1.85223828,66.3358828 C2.03462109,66.5663906 2.16176953,66.8327187 2.29821484,67.0924844 C2.95036328,68.2781094 4.12450391,69.1263125 5.41950391,69.4795937 C5.99235547,69.6338125 6.59173047,69.6034609 7.17907422,69.6034609 C25.9180195,69.6102969 44.6569648,69.5908828 63.3967305,69.6015469 C65.0950508,69.6182266 66.732668,68.6499844 67.613957,67.2114297 C67.7791133,66.9109219 67.9117305,66.5888125 68.1419648,66.3301406 C67.7282539,67.9316641 66.4400898,69.2608437 64.8648164,69.7546719 C63.9862617,70.0614688 63.044543,69.9840859 62.132082,69.9939297 C43.8801289,69.9939297 25.6281758,69.9931094 7.37649609,69.9931094 C6.64833203,69.9988516 5.90348828,70.0056875 5.20266797,69.7781875 C3.59622266,69.3018594 2.27579297,67.9598281 1.85223828,66.3358828" id="path20" fill="#3664D0"></path>
            </g>
        </g>
    </g>
</svg>