<?xml version="1.0" encoding="UTF-8"?>
<svg width="88px" height="88px" viewBox="0 0 88 88" version="1.1" xmlns="http://www.w3.org/2000/svg" xmlns:xlink="http://www.w3.org/1999/xlink">
    <!-- Generator: Sketch 53.2 (72643) - https://sketchapp.com -->
    <title>Excel</title>
    <desc>Created with Sketch.</desc>
    <defs>
        <radialGradient cx="0.185553163%" cy="49.9999981%" fx="0.185553163%" fy="49.9999981%" r="64.73859%" gradientTransform="translate(0.001856,0.500000),scale(1.000000,0.610075),translate(-0.001856,-0.500000)" id="radialGradient-1">
            <stop stop-color="#237F4C" offset="0%"></stop>
            <stop stop-color="#1E6C41" offset="100%"></stop>
        </radialGradient>
    </defs>
    <g id="Excel" stroke="none" stroke-width="1" fill="none" fill-rule="evenodd">
        <rect fill="#FFFFFF" opacity="0" x="0" y="0" width="88" height="88"></rect>
        <rect id="Rectangle" x="0" y="0" width="88" height="88"></rect>
        <g id="Microsoft_Excel_Logo" transform="translate(8.000000, 9.000000)" fill-rule="nonzero">
            <rect id="rect4556" fill="#FFFFFF" x="3.87228261" y="7.65413833" width="69.9048913" height="54.1091954"></rect>
            <g id="use3985" transform="translate(40.353261, 6.851652)" fill="#1F7144">
                <path d="M0.517210598,42.344365 L12.4408533,42.344365 L12.4408533,48.3895936 L0.517210598,48.3895936 L0.517210598,42.344365 Z M14.8854171,42.344365 L26.8090598,42.344365 L26.8090598,48.3770217 L14.8854171,48.3770217 L14.8854171,42.344365 Z M0.517210598,33.5817932 L12.4408533,33.5817932 L12.4408533,39.916174 L0.517210598,39.916174 L0.517210598,33.5817932 Z M14.8854171,33.5817932 L26.8090598,33.5817932 L26.8090598,39.916174 L14.8854171,39.916174 L14.8854171,33.5817932 Z M0.517210598,24.8317936 L12.4408533,24.8317936 L12.4408533,31.1661744 L0.517210598,31.1661744 L0.517210598,24.8317936 Z M14.8854171,24.8317936 L26.8090598,24.8317936 L26.8090598,31.1661744 L14.8854171,31.1661744 L14.8854171,24.8317936 Z M0.517210598,16.0817936 L12.4408533,16.0817936 L12.4408533,22.4161744 L0.517210598,22.4161744 L0.517210598,16.0817936 Z M14.8854171,16.0817936 L26.8090598,16.0817936 L26.8090598,22.4161744 L14.8854171,22.4161744 L14.8854171,16.0817936 Z M0.517210598,7.33179356 L12.4408533,7.33179356 L12.4408533,13.6661744 L0.517210598,13.6661744 L0.517210598,7.33179356 Z M14.8854171,7.33179356 L26.8090598,7.33179356 L26.8090598,13.6661744 L14.8854171,13.6661744 L14.8854171,7.33179356 Z M0.101902174,0.100575115 L0.101902174,2.50179638 L32.0100204,2.50179638 L32.0100204,53.5057475 L0.101902174,53.5057475 L0.101902174,55.9195406 L31.806216,55.9195406 C33.2761264,55.9195406 34.4684103,54.7427883 34.4684103,53.2920263 L34.4684103,2.72808948 C34.4684103,1.27732621 33.2761264,0.100575115 31.806216,0.100575115 L0.101902174,0.100575115 Z" id="rect3991"></path>
            </g>
            <path d="M42.7352242,0.0251436782 L0.191066576,7.49281609 L0.191066576,62.1803161 L42.7097486,69.7611351 L42.7352242,0.0251436782 Z M29.131284,22.5287356 L23.0426291,34.8868534 L29.296875,47.3204023 L23.6413043,46.9935345 L19.921875,37.891523 L16.2788723,46.5786638 L11.2984035,46.3020833 L17.1450408,34.8868534 L11.5913723,23.3459052 L16.9794497,23.0944684 L20.1129416,31.5050287 L23.883322,22.7676006 L29.131284,22.5287356 Z" id="path3945" fill="url(#radialGradient-1)"></path>
        </g>
    </g>
</svg>