<?xml version="1.0" encoding="UTF-8"?>
<svg width="88px" height="88px" viewBox="0 0 88 88" version="1.1" xmlns="http://www.w3.org/2000/svg" xmlns:xlink="http://www.w3.org/1999/xlink">
    <!-- Generator: Sketch 53.2 (72643) - https://sketchapp.com -->
    <title>Microsoft SQL</title>
    <desc>Created with Sketch.</desc>
    <defs>
        <linearGradient x1="26.3898889%" y1="76.5504856%" x2="42.6928604%" y2="67.9416007%" id="linearGradient-1">
            <stop stop-color="#9093A9" offset="0%"></stop>
            <stop stop-color="#D1D7E0" offset="100%"></stop>
        </linearGradient>
        <linearGradient x1="26.3898889%" y1="61.3401554%" x2="42.6928604%" y2="57.663157%" id="linearGradient-2">
            <stop stop-color="#9093A9" offset="0%"></stop>
            <stop stop-color="#D1D7E0" offset="100%"></stop>
        </linearGradient>
        <radialGradient cx="44.3461988%" cy="43.8808738%" fx="44.3461988%" fy="43.8808738%" r="12.715461%" gradientTransform="translate(0.443462,0.438809),scale(0.703739,1.000000),rotate(-171.393076),translate(-0.443462,-0.438809)" id="radialGradient-3">
            <stop stop-color="#EE352C" offset="0%"></stop>
            <stop stop-color="#A91D22" offset="100%"></stop>
        </radialGradient>
    </defs>
    <g id="Microsoft-SQL" stroke="none" stroke-width="1" fill="none" fill-rule="evenodd">
        <rect fill="#FFFFFF" opacity="0" x="0" y="0" width="88" height="88"></rect>
        <g id="microsoft-sql">
            <rect id="Rectangle" x="0" y="0" width="88" height="88"></rect>
            <g id="Group" transform="translate(12.000000, 8.000000)" fill-rule="nonzero">
                <path d="M40.9259542,33.3789726 L26.7241645,38.0518143 L14.3688055,43.546567 L10.9122117,44.4660917 C10.0318888,45.3098498 9.10884673,46.1644317 8.11051388,47.0297377 C7.0156049,47.9815343 5.99583819,48.8469899 5.21209146,49.474222 C4.34265879,50.1665466 3.05449855,51.4645055 2.399751,52.2864165 C1.42285201,53.5194825 0.64999547,54.8282652 0.317201353,55.8343305 C-0.273244612,57.6515828 0.0167312824,59.490333 1.15455749,61.188673 C2.61443612,63.351888 5.52355072,65.5583982 8.91554597,67.0619097 C10.6439171,67.8300508 13.5529327,68.814269 15.7427012,69.3658342 C19.3816066,70.2961328 26.423546,71.3020984 30.2986199,71.4536317 C31.0821191,71.4860532 32.1342098,71.4860532 32.1770281,71.4536317 C32.263011,71.399363 32.8641491,70.2421136 33.5620119,68.8035948 C35.9450811,63.9035529 37.6625621,59.3064779 38.5963954,55.3801297 C39.1545668,53.0005882 39.5946292,49.831258 39.8843576,46.0780408 C39.9596484,45.02878 39.9917249,41.5133873 39.9273244,40.3234669 C39.8306492,38.3765285 39.6588813,36.7974 39.3907353,35.2505933 C39.3477686,35.0233931 39.3368784,34.8178406 39.3584608,34.8070666 C39.401279,34.7746451 39.5300801,34.7313998 41.2798357,34.2228804 L40.9257562,33.3793218 L40.9257562,33.3790724 L40.9259542,33.3790724 L40.9259542,33.3789726 Z M37.6841445,35.2936391 C37.8129457,35.2936391 38.156333,38.6142532 38.2421674,40.7128247 C38.2637498,41.1562516 38.2528596,41.4482948 38.2314752,41.4482948 C38.1456903,41.4482948 36.4173191,40.4208313 35.1830653,39.6420659 C34.1095407,38.9605651 32.0700567,37.5976135 31.7480538,37.3380417 C31.6404885,37.2623748 31.6511807,37.2516009 32.531553,36.948634 C34.0235082,36.4401645 37.566085,35.2936391 37.6841445,35.2936391 L37.6841445,35.2936391 Z M30.4490529,37.6949779 C30.545728,37.6949779 30.7924402,37.835438 31.3828861,38.2032977 C33.594138,39.598621 36.5999277,41.2860874 37.8880384,41.848626 C38.2851341,42.0216573 38.3279524,41.9566646 37.4157015,42.5841461 C35.4620025,43.9253503 33.0251259,45.244907 30.0409185,46.5753872 C29.5150216,46.8133613 29.0749592,46.9971665 29.064267,46.9971665 C29.0428827,46.9971665 29.1070852,46.7269205 29.1928702,46.402356 C29.9121173,43.7088243 30.3201032,40.9831206 30.3416856,38.7981582 C30.3523778,37.716426 30.3523778,37.716426 30.4490529,37.6841541 C30.4274705,37.6949779 30.4381627,37.6949779 30.4490529,37.6949779 L30.4490529,37.6949779 Z M28.9569987,38.2681907 C29.0212013,38.3329839 28.9783831,40.7560201 28.8924496,41.4157735 C28.6992479,42.9950517 28.3986788,44.4660419 27.9050565,46.1211365 C27.7869475,46.5210687 27.6794316,46.8566067 27.6581958,46.8781545 C27.6150311,46.9321738 26.1444107,45.4827813 25.6613816,44.9203424 C24.8240255,43.9467984 24.1693769,42.9733043 23.6862983,42.0215076 C23.4393881,41.5347356 23.0530341,40.5829889 23.0851601,40.5504676 C23.2568785,40.4315055 28.914032,38.2249952 28.9569987,38.2681907 Z M21.9364932,41.0480135 C21.9471854,41.0480135 21.9578776,41.0480135 21.9687678,41.0587874 C21.9901521,41.080435 22.0654429,41.2535661 22.1298435,41.4481951 C22.4732308,42.3892677 23.2459883,43.7737672 23.9117251,44.6607706 C24.6416644,45.6343146 25.5971295,46.672602 26.3912714,47.3540528 C26.6490223,47.5703793 26.8850422,47.7758321 26.9171683,47.8083534 C26.9817174,47.8732963 27.0031512,47.8623727 25.2533462,48.5330995 C23.2247525,49.3118649 21.0133026,50.0906303 18.4798994,50.912641 C17.8747253,51.1092409 17.2701032,51.3075617 16.6660403,51.5076012 C16.5692661,51.5401225 16.6015407,51.4859536 16.8806264,51.0425766 C18.1365121,49.063067 20.0471948,45.1799642 21.1207195,42.432513 C21.303229,41.9565648 21.4856891,41.4807164 21.5179637,41.3725282 C21.5609304,41.2209949 21.6144903,41.1669756 21.7539836,41.091209 C21.8291259,41.0697609 21.9043672,41.0480135 21.9364932,41.0480135 Z M19.7897905,41.9457909 C19.8219165,41.9675383 19.2744373,43.1247877 18.7376997,44.1848224 C17.6964002,46.2291252 16.558574,48.2411561 15.0342947,50.6856404 C14.7766924,51.1074197 14.5298812,51.4969271 14.4976067,51.5401724 C14.4439973,51.6159391 14.4224149,51.5941917 14.2506965,51.258953 C13.8857268,50.5342069 13.5850588,49.6039082 13.4240821,48.7493762 C13.2630063,47.9056181 13.2952809,46.4346777 13.47784,45.5261264 C13.6172343,44.8555492 13.6066411,44.8663731 13.9286441,44.7040658 C15.3026388,44.0010172 19.7468238,41.9025455 19.7897905,41.9457909 L19.7897905,41.9457909 Z M38.3067165,42.7030583 L38.3067165,43.157309 C38.3067165,45.5694217 38.0491142,48.8792618 37.6732543,51.2914743 C37.6088537,51.7132536 37.5549968,52.0592662 37.5444531,52.0702396 C37.5444531,52.0702396 37.2331919,51.9837988 36.8682222,51.875461 C35.2581086,51.3670414 33.508353,50.6206975 31.9303159,49.7447174 C30.8889173,49.1714048 29.3754788,48.2302325 29.418495,48.1869373 C29.4290387,48.1762132 29.8799913,47.9382391 30.4058882,47.6569698 C32.5101192,46.5537396 34.5280207,45.363919 36.2777763,44.1849222 C36.9326228,43.7413955 37.920016,43.0276228 38.1349486,42.8328442 L38.3067165,42.7030583 Z M11.6850682,45.9045606 C11.7279854,45.9045606 11.7172438,45.9911012 11.6528432,46.3805088 C11.6098764,46.661828 11.556267,47.1810216 11.5349322,47.5378082 C11.4488502,49.1170863 11.7066506,50.2853591 12.4795071,51.8861352 C12.6941922,52.3296618 12.8660591,52.6974219 12.855169,52.7081459 C12.7799772,52.7731386 5.67388476,54.8716602 3.44095157,55.4881184 C2.77546234,55.6719235 2.19590656,55.8342308 2.15274183,55.8449049 C2.07774807,55.8666523 2.06695688,55.8558784 2.09913243,55.6718238 C2.34599309,54.0819214 3.54831889,52.0050973 5.22283315,50.252738 C6.33927499,49.0846149 7.23029003,48.4032139 8.75456925,47.5269345 C9.84947823,46.8997024 11.5347837,45.9587794 11.6635848,45.9153844 C11.6636838,45.9045606 11.674376,45.9045606 11.6850682,45.9045606 L11.6850682,45.9045606 Z M28.4309533,48.9224074 C28.4416455,48.9116335 28.6992479,49.052343 29.0105091,49.2361482 C31.3077439,50.5774522 34.5065869,51.8213919 37.2329939,52.4594976 L37.4800526,52.5136665 L37.1364673,52.7081459 C35.7088632,53.5086587 31.017867,55.4771948 26.219652,57.2836731 C25.5217892,57.5431452 24.8348661,57.8028666 24.705867,57.8568859 C24.5770658,57.9109052 24.4589568,57.9434265 24.4589568,57.9326526 C24.4589568,57.9216791 24.6523071,57.5431452 24.8990192,57.0781205 C26.2408384,54.5470458 27.5934982,51.4643559 28.2804708,49.3226389 C28.3665527,49.1171362 28.4200631,48.933331 28.4309533,48.9224074 L28.4309533,48.9224074 Z M26.7241645,49.4849461 C26.7350547,49.4959694 26.6490718,49.7229202 26.5416549,49.982492 C25.6078217,52.2647689 24.3839135,54.752748 22.8167666,57.5433447 C22.4196709,58.2573169 22.0868273,58.8306295 22.0759371,58.8306295 C22.0653934,58.8306295 21.743242,58.6358009 21.3568384,58.3978767 C19.080988,56.9916797 17.0629875,55.2610678 15.7427507,53.5844752 L15.5494499,53.3465011 L16.5262004,53.0760556 C20.0257115,52.113485 22.9990287,51.0750979 25.9511595,49.7987866 C26.369887,49.6256556 26.7134723,49.4849461 26.7241645,49.4849461 L26.7241645,49.4849461 Z M37.329867,53.2166653 C37.329867,53.2166653 37.3406087,53.2274891 37.329867,53.2166653 C37.3405592,53.4654632 36.79308,55.6937208 36.3421768,57.3052209 C35.966515,58.6572989 35.6443141,59.7174334 35.0540661,61.5885552 C34.7964638,62.4108154 34.5711855,63.0920667 34.5602953,63.0920667 C34.5496031,63.0920667 34.4852025,63.0812928 34.4208019,63.0597948 C31.2327006,62.4755088 28.3772944,61.6643219 25.6936561,60.5827393 C24.9421344,60.2797725 23.8687583,59.7930005 23.8043577,59.7389812 C23.7829734,59.7171341 24.4270783,59.4144666 25.242852,59.0574805 C30.12705,56.9049895 35.193708,54.4604054 36.9326228,53.4113442 C37.1365168,53.2815084 37.2975925,53.2166653 37.329867,53.2166653 L37.329867,53.2166653 Z M12.8444768,54.0604234 C12.8659601,54.0819712 11.5026576,56.0614808 9.59182638,58.754763 C8.92633715,59.6958356 8.15348061,60.7990658 7.86370272,61.2100712 C7.57382582,61.6211264 7.1337634,62.2701558 6.88685323,62.6595634 L6.43580162,63.3626619 L5.95272296,62.9516565 C5.38376036,62.4756086 4.3963177,61.458919 3.95620577,60.8964302 C3.03296569,59.7391807 2.41049268,58.5168887 2.16358251,57.4028846 C2.04547352,56.8835913 2.04547352,56.6238698 2.15269233,56.5915979 C2.31366905,56.5483526 5.17981692,55.8668518 7.86360371,55.2393703 C9.3557074,54.8933577 11.0838311,54.4823523 11.7064526,54.3309188 C12.3291236,54.1792359 12.8337846,54.0604234 12.8444768,54.0604234 L12.8444768,54.0604234 Z M14.218422,54.5904407 L14.5618093,54.9797985 C16.1077699,56.7212841 17.685708,58.0086686 19.5964402,59.1333469 C19.9400255,59.3281754 20.1975784,59.5011069 20.175996,59.5121302 C20.1010517,59.5661495 13.5420921,61.9131198 10.5042753,62.9732044 C8.79758548,63.5788886 7.39126674,64.0656108 7.38067356,64.0656108 C7.36998138,64.0656108 7.27330625,64.0008176 7.16579044,63.9250509 L6.97268768,63.7843913 L7.28394893,63.3301905 C8.29292446,61.8591005 9.55979934,60.2475006 12.3185304,56.8943652 L14.218422,54.5904407 Z M22.78469,60.7665944 C22.7952337,60.7558704 23.2675707,60.9288019 23.847176,61.1453777 C25.242852,61.6752953 26.3483047,62.0105341 27.8298152,62.3891678 C29.654713,62.854342 32.295335,63.3086426 33.8519383,63.4383787 C34.0881068,63.4599265 34.216908,63.4816739 34.1739413,63.5141453 C34.0986505,63.5574405 32.5208609,64.0874579 31.3615018,64.4552179 C29.5150216,65.0392047 23.8795,66.7157474 19.285179,68.0462775 C18.4371307,68.2950255 17.7071418,68.5005781 17.6642246,68.5113022 C17.5570058,68.5330495 17.2026293,68.4355355 17.2026293,68.3922902 C17.2026293,68.3707922 17.4602317,68.0355036 17.7715919,67.6676937 C19.3172555,65.8071961 20.8524249,63.7304718 22.1298435,61.7618359 C22.4839725,61.2208451 22.78469,60.7774182 22.78469,60.7665944 Z M20.8952431,60.8208132 C20.9059353,60.8315871 20.14387,62.0646032 18.812941,64.1846227 C18.2438794,65.0824001 17.6105162,66.0991396 17.3850399,66.4561257 C17.1703548,66.8022381 16.8483518,67.343179 16.6659413,67.6459463 L16.354581,68.1976612 L16.1936043,68.1543659 C15.8070523,68.0461778 13.0912879,67.0834077 12.3720408,66.7914143 C11.4810258,66.4344282 10.5578847,66.001875 9.87081309,65.634115 C9.0121716,65.1689407 7.93879548,64.4766161 8.02458043,64.4551181 C8.04601429,64.4443442 9.51668411,64.0439631 11.2877745,63.5573408 C15.9895619,62.2700061 18.5979589,61.523762 20.3048962,60.9829708 C20.6162564,60.8856064 20.884551,60.8098397 20.8952431,60.8208132 Z M34.2597262,63.9790702 L34.2704184,63.9790702 C34.3133851,64.0873581 32.5745198,68.9547789 31.9409091,70.4906621 C31.8015642,70.8367745 31.7480538,70.9234647 31.672763,70.9124414 C31.4902535,70.9018171 28.9677404,70.544831 27.4325215,70.3176308 C24.7597734,69.9066255 20.2726711,69.1168866 19.1456361,68.8574146 L18.8880338,68.8033953 L20.4872573,68.4353859 C23.9224172,67.6566205 25.5754976,67.2348412 27.2500119,66.7156476 C29.3647866,66.0666682 31.4581274,65.2553815 33.5727041,64.2603395 C33.9054487,64.1088561 34.1845839,63.989894 34.2597262,63.9790702 Z" id="Shape" fill="url(#linearGradient-1)"></path>
                <path d="M26.2841021,0.0206500268 C26.0479336,-0.011621875 22.2370623,1.37287763 19.7789498,2.37869354 C16.4618988,3.74174495 13.8857764,5.03980364 12.2969975,6.16448191 C11.7067001,6.5865106 10.9658706,7.33275468 10.8479596,7.62474805 C10.8050424,7.73293624 10.78346,7.86272216 10.78346,7.99250807 L12.2219543,9.36623365 L15.6461746,10.4695137 L23.7937151,11.9406037 L33.1111583,13.5523033 L33.2078334,12.7410665 C33.1757074,12.7410665 33.154125,12.7302926 33.122197,12.7302926 L31.8981403,12.535514 L31.6514282,12.0920871 C30.3847018,9.84218185 28.9892238,7.05148535 28.17345,5.16939004 C27.5401858,3.70912389 26.9389981,2.02190697 26.6061545,0.810388853 C26.423645,0.0748688169 26.4022606,0.031623471 26.2843496,0.020849544 L26.2843496,0.0206001475 L26.2841021,0.0206001475 L26.2841021,0.0206500268 Z M26.1121362,0.572464631 L26.1231749,0.572464631 C26.1337186,0.5831388 26.1766853,0.886205377 26.2197015,1.24294207 C26.4020131,2.75747689 26.7350547,4.21749363 27.2609516,5.79677177 C27.6580473,6.98664228 27.6580473,6.9217992 27.196551,6.78108971 C26.101642,6.47832241 21.1960102,5.62379039 17.6428898,5.12624445 C17.0739272,5.05047781 16.5908485,4.97481092 16.5908485,4.96403699 C16.5479313,4.92079165 19.1563283,3.54696632 20.3049457,3.00627479 C21.775566,2.32467427 25.8117156,0.626483904 26.1121362,0.572464631 L26.1121362,0.572464631 Z M15.7641351,5.41823783 L16.1829616,5.55869791 C18.458515,6.33761293 24.1798711,7.44094286 27.3359949,7.7005147 C27.6901238,7.73298612 27.9908414,7.76550742 28.0013851,7.76550742 C28.0120773,7.77628134 27.7117062,7.93853868 27.3251542,8.12234387 C25.8010234,8.89033532 24.1263607,9.83140792 22.9670016,10.556154 C22.6236143,10.7723808 22.3121551,10.9455617 22.2693368,10.9455617 C22.2263701,10.9455617 22.0010423,10.9022664 21.7648738,10.869795 L21.3355036,10.8048023 L20.262177,9.74471771 C18.3728786,7.89519357 16.8914671,6.46744873 16.3225045,5.92650781 L15.7641351,5.41823783 L15.7641351,5.41823783 Z M15.3349133,5.75347655 L16.8484509,7.65726935 C17.6749168,8.70648025 18.5122234,9.73399366 18.6948815,9.9610442 C18.8771931,10.1883441 19.0275766,10.372299 19.0168844,10.3830729 C18.9739177,10.4154944 16.8271655,9.9935655 15.6891413,9.73409342 C14.51909,9.46359802 14.0360609,9.33381211 13.3168632,9.10676157 L12.7264173,8.91198294 L12.7264173,8.76044965 C12.7371095,8.03570354 13.6496574,6.95412098 15.1953705,5.85094068 L15.3349133,5.75347655 Z M28.1947848,8.34949416 C28.2378011,8.34949416 28.2913115,8.44680866 28.4201126,8.73885191 C28.7850823,9.55003884 29.923156,11.735101 30.2019942,12.1568803 C30.2881257,12.2976396 30.4381627,12.3084135 28.9247737,12.0596156 C25.2858682,11.4645557 24.1156685,11.2700763 24.1156685,11.2484287 C24.1156685,11.2376548 24.2230358,11.1618881 24.3625787,11.0861215 C25.4897622,10.4588894 26.6275389,9.65837666 27.6366629,8.80384463 C27.8835731,8.59829207 28.1089999,8.4036132 28.1518181,8.3710919 C28.1625103,8.34949416 28.1840927,8.33872024 28.1947848,8.34949416 Z" id="Shape" fill="url(#linearGradient-2)"></path>
                <path d="M10.9228543,7.47331452 C10.9228543,7.47331452 10.6868344,7.85204799 10.9122117,8.41453676 C11.051903,8.76054941 11.4597404,9.1823287 11.9212367,9.61508143 C11.9212367,9.61508143 16.6980673,14.3094211 17.2777716,14.9801479 C19.9183442,18.0519641 21.067011,21.0806347 21.1743784,25.2558806 C21.2387789,27.9383889 20.7341179,30.2963825 19.4782817,33.0330099 C17.2454971,37.9437758 12.532968,43.3629114 5.26575037,49.3769574 L6.32863231,49.0199713 C7.0156049,48.500678 7.94953716,47.9492126 10.1393056,46.7376944 C15.1951724,43.9468483 20.8845015,41.383352 27.8619907,38.7441389 C37.9092248,34.9366032 54.4298316,30.480088 63.8330598,29.0308451 L64.8100578,28.8793119 L64.6596743,28.6413378 C63.8010823,27.3000337 63.2104878,26.4672491 62.5019328,25.5802955 C60.4410646,23.0059255 57.9400844,20.9184273 54.8805862,19.1877156 C50.6726687,16.8189979 45.2301013,14.969374 38.3387435,13.5956484 C37.0398911,13.335927 34.1844849,12.8384309 31.8658658,12.4814947 C26.9493933,11.7137028 23.7719842,11.1835856 20.2726216,10.5778515 C19.0167854,10.3614253 17.1380802,10.0370104 15.8928867,9.7666646 C15.2488314,9.62590524 14.0144785,9.33391187 13.0483707,8.99862327 C12.2755142,8.69560657 11.1590228,8.39273951 10.9228543,7.47331452 L10.9228543,7.47331452 Z M13.6925251,10.1775702 C13.7031183,10.166896 13.8748367,10.2315895 14.100412,10.3073561 C14.5082989,10.4478162 15.0342452,10.6101234 15.6570152,10.7833043 C16.1281499,10.9138853 16.6004741,11.0400687 17.0739272,11.1618383 C17.7179825,11.3239958 18.2546211,11.4754793 18.2653133,11.4754793 C18.340604,11.5512459 19.4248208,15.0447416 19.7897905,16.3860457 C19.9291353,16.894565 20.0367007,17.3271182 20.025959,17.3271182 C20.0149203,17.3380917 19.8970093,17.154087 19.7575159,16.905339 C18.5015313,14.6770814 16.5156567,12.4164521 14.218422,10.5991999 C13.9180014,10.3830729 13.6925251,10.1883441 13.6925251,10.1775702 L13.6925251,10.1775702 Z M18.9738682,11.6486103 C19.0275766,11.6486103 19.2637451,11.6810817 19.553424,11.7459248 C21.3783218,12.1569301 24.6524061,12.7843119 26.7455489,13.141298 C27.0998264,13.1953172 27.3790111,13.2603598 27.3790111,13.2818578 C27.3790111,13.3036052 27.2500614,13.3791723 27.0889857,13.4658126 C26.7349062,13.6496178 25.3071041,14.5040501 24.8349156,14.8286146 C23.643282,15.6290276 22.5699554,16.4943336 21.7969999,17.273099 C21.4857386,17.5868397 21.2172461,17.8464116 21.2172461,17.8464116 C21.2172461,17.8464116 21.1530435,17.6626064 21.0991371,17.4353064 C20.7129316,15.9317949 19.9077015,13.7035373 19.1777622,12.1352326 C19.0596532,11.8865345 18.962978,11.6593343 18.962978,11.6377865 C18.962978,11.6593842 18.962978,11.6486103 18.9738682,11.6486103 L18.9738682,11.6486103 Z M28.2698776,13.4333412 C28.3342782,13.4548891 28.4416455,13.822699 28.6562811,14.6338859 C29.0535253,16.2023901 29.2360349,17.9546496 29.1716343,19.587947 C29.150052,20.0422476 29.1286676,20.4640269 29.1070852,20.5182457 L29.0749592,20.6262842 L28.5167878,20.4424791 C27.3681704,20.074719 25.5004544,19.5229543 23.9010824,19.0687535 C22.988485,18.8199556 22.248002,18.5928053 22.248002,18.5712075 C22.248002,18.5062148 23.5791289,17.1650105 24.1479925,16.6566907 C25.2319618,15.6938707 28.1732025,13.4008199 28.2698776,13.4333412 L28.2698776,13.4333412 Z M29.0105586,13.5413798 C29.0428332,13.5091079 33.4546941,14.2768998 35.462052,14.6663573 C36.9542547,14.9583507 39.1225398,15.4127012 39.2512914,15.4668701 C39.315692,15.4884179 39.0902157,15.6182038 38.3709686,15.9426686 C35.5371448,17.2299534 33.4330623,18.387153 31.3400679,19.7934497 C30.7925887,20.1612097 30.3309439,20.4640269 30.3202517,20.4640269 C30.3095595,20.4640269 30.2988179,20.1504358 30.2988179,19.7718021 C30.2988179,17.7167254 29.8908815,15.6399013 29.1393103,13.8876418 C29.0642175,13.7145607 28.9998169,13.5523532 29.0105586,13.5413798 L29.0105586,13.5413798 Z M40.4212932,15.8129825 C40.4535677,15.845404 40.3139259,16.7216335 40.1851247,17.2407273 C39.7987212,18.852427 38.7575206,21.2430417 37.4802506,23.4927474 C37.2546257,23.8929788 37.0507318,24.2174935 37.0290999,24.2282674 C37.0078641,24.2390413 36.7179872,24.0767341 36.3851436,23.8820553 C35.1399996,23.1465352 33.7230876,22.4543104 32.1772261,21.8052312 C31.7480043,21.621426 31.372194,21.4698927 31.3614523,21.4484446 C31.2861615,21.3834519 34.7427554,19.0795274 36.5676532,17.9762474 C38.0168396,17.0893437 40.3783265,15.7696374 40.4212932,15.8129825 L40.4212932,15.8129825 Z M41.237067,15.9427185 C41.3337421,15.9427185 43.2874411,16.4836095 44.3070593,16.7864766 C46.8297703,17.5436941 49.7279948,18.6144529 51.6172931,19.4797588 L52.4007924,19.8368447 L51.8535111,19.9665309 C47.2378057,21.0372896 43.2874411,22.2705551 39.4766192,23.8280859 C39.1653085,23.9578718 38.8861733,24.06606 38.8649374,24.06606 C38.8433551,24.06606 38.9507224,23.8173119 39.0902652,23.5143451 C40.2388826,21.059037 40.9795636,18.4954908 41.1618752,16.3104286 C41.1728149,16.1048761 41.2047924,15.9427185 41.237067,15.9427185 L41.237067,15.9427185 Z M21.7863077,20.4424791 C21.8184337,20.4099578 23.3105869,20.7669937 24.1156685,20.9939445 C25.3393787,21.3402065 27.937034,22.2162365 27.937034,22.2812293 C27.937034,22.2920032 27.6473056,22.5408011 27.3039183,22.8437679 C25.8976986,24.0227647 24.5450387,25.2665049 22.9240349,26.845783 C22.4409562,27.311057 22.0331684,27.689591 22.011784,27.689591 C21.9902016,27.689591 21.979658,27.6245484 21.9902016,27.5380577 C22.2370623,25.7208055 22.1835519,23.3845093 21.8400161,21.0156919 C21.807692,20.7127251 21.775566,20.453253 21.7863077,20.4424791 L21.7863077,20.4424791 Z M53.1417704,20.4750004 C53.1630062,20.4964983 52.4546493,21.621426 52.0038452,22.2595318 C51.3598888,23.1897307 50.4149674,24.4230461 48.2788083,27.1271521 C47.1519218,28.5547972 45.8850469,30.1665966 45.4665668,30.7073879 C45.0369986,31.2481792 44.6829191,31.70238 44.6720289,31.70238 C44.6613368,31.70238 44.5219919,31.5078009 44.3716084,31.2698767 C43.1692826,29.4526244 41.7307883,27.8625724 40.0239995,26.4348275 C39.7019966,26.1643321 39.3479171,25.8722889 39.2298081,25.7857483 C39.1116991,25.6992576 39.015024,25.612717 39.015024,25.6019431 C39.015024,25.5695715 40.8397238,24.7797827 42.2247076,24.2174436 C44.6507436,23.222252 47.9566074,22.0324812 50.4365002,21.2644399 C51.7354021,20.8534844 53.120188,20.453253 53.1417704,20.4750004 L53.1417704,20.4750004 Z M53.9682363,20.6911772 C54.0110545,20.6804532 54.2688054,20.8102391 54.5801161,20.9939445 C57.1886617,22.497456 59.7433008,24.4337202 61.7615489,26.4240037 C62.3304125,26.9865424 63.7366322,28.4575824 63.7150498,28.4683564 C63.7150498,28.4683564 63.221279,28.5116017 62.6417232,28.5547972 C58.1224949,28.9010592 52.3367383,29.8635799 46.7761609,31.215608 C46.4004991,31.3020488 46.067804,31.3778155 46.0462216,31.3778155 C46.0249858,31.3778155 46.4434658,30.9560362 46.9695607,30.4477163 C50.2327548,27.2784859 51.7249575,25.2774284 53.4852567,21.7078668 C53.7320678,21.1779991 53.946852,20.7236985 53.9682363,20.6911772 C53.9575441,20.6911772 53.9575441,20.6911772 53.9682363,20.6911772 L53.9682363,20.6911772 Z M30.0625009,23.1575087 C30.2128844,23.1897806 31.6083625,23.8498332 32.6603047,24.3797009 C33.6264125,24.8662734 35.0756485,25.6452383 35.1507412,25.7100315 C35.1614334,25.7208055 34.6460802,25.991251 34.013014,26.3049917 C31.994766,27.3217312 30.2665928,28.2843018 28.4630794,29.3876317 C27.9478747,29.7013725 27.5185044,29.9610939 27.5078122,29.9610939 C27.4648455,29.9610939 27.4755377,29.9175992 27.7654146,29.3876317 C28.7315719,27.6138742 29.5043294,25.4938048 29.9445899,23.4277547 C29.9873586,23.2655472 30.0303748,23.1575087 30.0625009,23.1575087 L30.0625009,23.1575087 Z M28.6669733,23.4169807 C28.6992479,23.449502 28.3342782,24.7798326 28.1089504,25.5045787 C27.66869,26.8783043 26.9280585,28.5980924 26.2089598,29.8961012 C26.0369939,30.1988186 25.7794411,30.6423453 25.6398982,30.8910933 L25.3716037,31.3237463 L24.7704656,30.7398094 C24.0728008,30.0583087 23.5037392,29.6364795 22.7739484,29.2577959 C22.483923,29.106512 22.2585952,28.9765765 22.2585952,28.9550785 C22.2585952,28.8685379 24.0941851,27.1919952 25.5004049,25.9805269 C26.5093804,25.1043473 28.6348473,23.3845592 28.6669733,23.4169807 L28.6669733,23.4169807 Z M37.2011153,26.954071 L37.7271607,27.3000836 C38.92914,28.0898224 40.3460519,29.1389336 41.4304667,30.0583087 C42.0421485,30.5665787 43.222892,31.6375868 43.4592585,31.8971586 L43.5878616,32.037918 L42.7185775,32.2866162 C37.802105,33.6601921 34.0021239,34.8824841 29.56873,36.5267051 C29.0749592,36.7105103 28.6562811,36.8619438 28.6240066,36.8619438 C28.559804,36.8619438 28.5059471,36.9159631 29.6117463,35.8883499 C32.4457186,33.2601602 34.9574405,30.3611259 36.825305,27.5380078 L37.2011153,26.954071 L37.2011153,26.954071 Z M34.9575395,27.5165098 C34.9789238,27.5380577 33.508353,29.6256058 32.6280302,30.8046525 C31.5760879,32.2108495 29.7082234,34.5687933 28.4201126,36.1046265 C27.8835236,36.7429318 27.4220273,37.2728993 27.4004449,37.283773 C27.3681704,37.2945469 27.3574782,37.1323395 27.3574782,36.8835416 C27.3574782,35.5746092 27.0247831,34.1792859 26.4450293,32.989565 C26.1981191,32.4920191 26.1551524,32.3730071 26.2090093,32.3189878 C26.4129033,32.135033 29.536604,30.3394782 31.5116873,29.2687195 C32.8427648,28.5548471 34.9250669,27.4948622 34.9575395,27.5165098 L34.9575395,27.5165098 Z M21.389014,30.8696452 C21.4212885,30.8696452 21.6681987,30.9993314 21.9473339,31.1508647 C22.6343065,31.5293986 23.2461863,31.9512278 23.7936161,32.4056281 C23.8150004,32.427176 23.5360137,32.6544261 23.1710441,32.9246721 C22.1512278,33.6601921 20.6055148,34.8392887 19.703956,35.5640348 C18.7590841,36.3212024 18.7271066,36.3428002 18.8343254,36.1805927 C19.5428803,35.0880866 19.8969598,34.4715287 20.2728196,33.6819893 C20.6055148,32.9789906 20.9382099,32.1460563 21.1743784,31.4213102 C21.2602128,31.1076193 21.3676296,30.8696452 21.389014,30.8696452 Z M25.0066835,33.7251349 C25.0601939,33.7144608 25.1247925,33.8116755 25.4144714,34.2444282 C26.0263512,35.1636537 26.4986882,36.3969192 26.6169457,37.3920111 L26.6381816,37.6084373 L25.1677593,38.1817499 C22.5376314,39.2092134 20.1117934,40.2260527 18.4692072,40.9830707 C18.0077604,41.1994969 17.2026293,41.5888048 16.6767325,41.8485761 C16.1506871,42.1188221 15.7213168,42.3243747 15.7213168,42.3136008 C15.7213168,42.3028269 16.0540119,42.0540289 16.4618988,41.7510621 C19.671731,39.4039921 22.4518464,36.8295223 24.5342971,34.255252 C24.7597734,33.9847566 24.9638158,33.7359587 24.9851012,33.7251848 L25.0066835,33.7251349 Z M23.3428615,34.1362401 C23.3858282,34.1794854 22.162118,35.5747588 21.3248114,36.429241 C19.2530529,38.560234 17.2027283,40.2260527 14.6585834,41.8485761 C14.3365805,42.0540289 14.0468026,42.2378341 14.014528,42.2595815 C13.9393363,42.3028269 14.0359124,42.1945888 15.1523542,40.9722967 C15.8609092,40.2043053 16.3975477,39.5553258 17.0094276,38.7550126 C17.4173145,38.225095 17.4925062,38.1493283 18.0830017,37.7272997 C19.6609893,36.5807244 23.2998947,34.0928949 23.3428615,34.1362401 Z" id="Shape" fill="url(#radialGradient-3)"></path>
            </g>
        </g>
    </g>
</svg>