<?xml version="1.0" encoding="UTF-8"?>
<svg width="88px" height="88px" viewBox="0 0 88 88" version="1.1" xmlns="http://www.w3.org/2000/svg" xmlns:xlink="http://www.w3.org/1999/xlink">
    <!-- Generator: Sketch 53.2 (72643) - https://sketchapp.com -->
    <title>OneDrive</title>
    <desc>Created with Sketch.</desc>
    <g id="OneDrive" stroke="none" stroke-width="1" fill="none" fill-rule="evenodd">
        <rect fill="#FFFFFF" opacity="0" x="0" y="0" width="88" height="88"></rect>
        <rect id="Rectangle" x="0" y="0" width="88" height="88"></rect>
        <path d="M31.6938943,64.7485684 C27.4578602,63.700687 25.097893,60.367075 25.0904293,55.4207475 C25.0880453,53.8393598 25.2036145,53.0816299 25.6023254,52.0644953 C26.5796801,49.5712264 29.1672715,47.6902257 32.5722395,46.9978543 C34.266533,46.6533309 34.7885154,46.2834213 34.7885154,45.4272397 C34.7885154,45.1585846 34.99017,44.3585133 35.2366165,43.6493001 C36.3562733,40.4274185 38.4293026,37.7415466 40.6444553,36.642827 C42.9628078,35.4929059 44.1332851,35.2335806 46.9377683,35.2484887 C50.920706,35.2696629 52.9077965,36.125032 55.6870413,39.0147044 L57.2155319,40.6039355 L58.5848444,40.1347866 C65.2121014,37.8641387 71.8188192,41.7293894 72.3513691,48.1888868 L72.4970456,49.9559601 L73.8021045,50.4188862 C77.5291515,51.7409396 79.2809821,54.5170614 78.9634052,58.5980023 C78.7557217,61.2667783 77.4953628,63.3974998 75.4987363,64.455251 L74.5601033,64.9525118 L53.7000883,64.9923046 C37.6702265,65.0228835 32.5746464,64.9664463 31.6938943,64.7485684 Z M16.0560637,61.8956228 C13.5831108,61.3137676 10.9627691,59.1513326 9.73402806,56.6783662 C9.03702084,55.2755697 9,55.0692478 9,52.5875441 C9,50.2270685 9.0594832,49.8483806 9.61435333,48.6763276 C10.7840742,46.2055241 13.0252469,44.4202201 15.8372488,43.7192065 C16.43071,43.5712599 16.988363,43.3351173 17.0764772,43.1944443 C17.1645914,43.0537691 17.2624731,42.287447 17.2939878,41.4915038 C17.4897283,36.5481698 20.7658225,32.1925143 25.3403325,30.7936712 C27.8117358,30.0379407 30.9165943,30.2238396 33.6046967,31.28849 C34.4572534,31.6261596 34.3612514,31.6985556 36.1639025,29.3584144 C37.229965,27.9744726 39.3840734,26.2532811 41.1473197,25.3765086 C43.0503053,24.4302608 45.0294415,23.994312 47.3962306,24.000056 C54.0112237,24.0161238 59.7122492,28.1124858 61.8203738,34.3642724 C62.4939238,36.361758 62.4603414,36.9211795 61.665872,36.9376671 C61.3191598,36.9448614 60.3257406,37.1338944 59.4582611,37.3577388 L57.8810359,37.7647293 L56.4418537,36.3399098 C52.3840491,32.3225412 45.7616518,31.4542111 40.1319402,34.2013518 C37.8828384,35.2988505 36.0755109,36.8744602 34.7103475,38.9278087 C33.7371007,40.3916948 32.4962035,43.1226156 32.4962035,43.8006418 C32.4962035,44.28166 32.1027969,44.5220193 30.4226699,45.0675245 C25.2209306,46.756426 22.1848048,50.6568194 22.1869022,55.6476943 C22.1875899,57.4642194 22.6601569,59.6869474 23.3161501,60.9599871 C23.5634401,61.4398842 23.7014189,61.8962378 23.6227697,61.9741033 C23.4216308,62.1732377 16.9507141,62.1061227 16.0560637,61.8956228 Z" id="Combined-Shape" fill="#094AB1" fill-rule="nonzero"></path>
    </g>
</svg>