<?xml version="1.0" encoding="UTF-8"?>
<svg width="88px" height="88px" viewBox="0 0 88 88" version="1.1" xmlns="http://www.w3.org/2000/svg" xmlns:xlink="http://www.w3.org/1999/xlink">
    <!-- Generator: Sketch 53.2 (72643) - https://sketchapp.com -->
    <title>MySQL</title>
    <desc>Created with Sketch.</desc>
    <g id="MySQL" stroke="none" stroke-width="1" fill="none" fill-rule="evenodd">
        <rect fill="#FFFFFF" opacity="0" x="0" y="0" width="88" height="88"></rect>
        <g id="Group" fill="#5B7F93">
            <path d="M24.1433085,20.9929565 C24.530219,21.3815562 25.1585617,21.6240423 25.4474549,22.1079784 C25.6909506,22.4489098 25.7363481,22.7856962 26.0283366,23.1266276 C26.0283366,24.2924264 25.6909506,25.0685894 25.0099881,25.5514892 C25.0099881,25.5514892 24.9635588,25.6022663 24.9160978,25.6488982 C24.530219,24.8737715 24.1918013,24.099681 23.8028272,23.323518 C23.3240899,22.6458003 22.6472544,22.1079784 22.2572486,21.333888 L22.1633583,21.333888 L22.1633583,21.236479 C22.7463035,21.0924381 23.3240899,20.9929565 24.1433085,20.9929565 Z M73.3985672,63.1420264 C73.2530889,62.1700092 70.8377354,60.9586147 70.0670096,60.3772696 C68.5193674,59.2601752 66.8809303,58.0943764 65.2393979,57.0767635 C64.369623,56.5441229 62.8704736,56.1555233 61.9068084,55.7202917 C60.602662,55.1866149 57.7044442,54.6529381 56.9822112,53.6363614 C55.5315546,51.7420678 54.5637624,49.4156514 53.5505727,47.1358669 C52.5384147,44.8104867 51.2817293,42.3856251 50.2675078,40.0042865 C49.7371824,38.8426327 49.4936867,37.8229473 48.912805,36.7089617 C45.3893398,29.8716808 40.1737858,24.1473493 33.85012,20.1214571 C31.7721525,18.8116173 29.4548163,17.5991865 26.8970797,16.7753553 C25.4474549,16.3370149 23.7079051,16.5795011 22.1633583,16.2427147 L21.1470733,16.2427147 C20.2793619,15.998156 19.5550654,15.0769158 18.8782299,14.5909072 C17.3832076,13.5743306 15.8861218,12.8914315 14.0980792,12.1660456 C13.4718,11.8748549 11.6827257,11.1971372 11.0585101,11.7297777 C10.6715995,11.828223 10.4755648,11.9743364 10.3806428,12.362936 C9.99579579,12.9432448 10.3342135,13.8168168 10.5735822,14.3515299 C11.2989105,15.9017833 12.3121002,16.8230235 13.2313996,18.1328633 C14.0495864,19.2945171 15.0658714,20.6043569 15.6457214,21.8675648 C16.897248,24.5825808 17.4801932,27.5908601 18.639893,30.3058761 C19.0701375,31.3265978 19.7500683,32.4882516 20.3763475,33.4094918 C20.9066729,34.1400591 21.8713698,34.6685546 22.1633583,35.5939399 C22.7452717,36.5638845 21.2925516,39.7649092 20.9561974,40.7814858 C19.6984802,44.7586734 19.9419759,50.2871508 21.390569,53.7348067 C21.9714507,55.0892059 22.5028078,56.6892001 24.0463229,57.0767635 C24.1433085,56.9803908 24.0463229,57.0311678 24.2382305,56.9803908 C24.5787118,54.3120067 24.6746656,51.7420678 25.5929333,49.6539925 C26.1232586,48.3482977 27.1828776,47.4260213 27.9092377,46.3597039 C28.3931338,46.6498583 28.3931338,47.5255028 28.682027,48.1047753 C29.3103697,49.6073605 29.9851417,51.2550229 30.7599945,52.7617532 C32.3499389,55.8653689 34.1390132,58.8746844 36.1664244,61.5897005 C36.8453234,62.5586089 37.8089886,63.6259625 38.6777317,64.4995345 C39.0646422,64.8373571 39.497982,65.0332113 39.7889387,65.4684429 L39.8838608,65.4684429 L39.8838608,65.6145563 C38.4352678,65.0798432 37.5170001,63.5782943 36.3614273,62.7026498 C34.1864742,61.0549874 31.5812766,58.580385 30.0821272,56.2063003 C29.4548163,54.8446472 28.776949,53.5379162 28.1011453,52.1824807 L28.1011453,52.0840355 C27.8122521,52.4715988 27.9092377,52.8560534 27.7647911,53.4415435 C27.1374801,55.8653689 27.6203445,58.6301257 25.4474549,59.5016251 C22.9846404,60.5223468 21.1470733,57.8539627 20.3763475,56.6415319 C17.9125012,52.616676 17.2377292,45.8270633 18.9752155,40.3462542 C19.3610943,39.1327871 19.4137141,37.6778701 20.0874543,36.7089617 C19.9419759,35.8333172 19.2682357,35.5939399 18.8782299,35.0571542 C18.2024262,34.1400591 17.623608,33.0716692 17.0943144,32.0530201 C16.0780294,30.06339 15.3547646,27.6861965 14.5830071,25.5525255 C14.2435576,24.6810261 14.146572,23.8064178 13.8081543,22.9815504 C13.2313996,21.7224876 12.1676536,20.4592797 11.3474033,19.3452941 C10.2361962,17.7442637 7.00059237,14.6416843 8.30473881,11.4872916 C10.3342135,6.49249102 17.4296369,10.2748607 20.1834081,12.0199321 C20.8581801,12.4562 21.6320012,13.3784764 22.4058222,13.7194078 C23.6129831,13.767076 24.8191122,13.8613762 26.0283366,13.9121532 C28.2961482,14.44583 30.420545,14.8810616 32.2075558,15.9017833 C40.5132353,20.8012474 45.9196651,25.7939754 50.8958505,34.0405776 C51.9585648,35.7877215 52.4899219,37.6778701 53.358665,39.5680187 C54.5637624,42.3856251 55.9184651,45.3431273 57.3175336,48.0073663 C57.9438128,49.2705742 58.4287407,50.6747142 59.2985156,51.7420678 C59.6379651,52.2291127 60.602662,52.3731536 61.1794166,52.6643442 C62.773488,53.4912842 64.7049454,54.1192612 66.2040948,55.0892059 C69.0042953,56.8384224 71.7116373,58.9213164 74.1723883,61.0549874 C75.0896242,61.8788186 75.7148716,63.0446175 76.5887735,63.9161169 L76.5887735,64.3554935 C75.812889,64.5938346 75.0400996,64.8373571 74.2662786,65.0332113 C72.5762534,65.4684429 71.0791675,65.3699976 69.4396986,65.8052292 C68.4265089,66.0995287 67.1687917,66.4881283 66.1060775,66.5865735 C66.1535385,66.6342418 66.2040948,66.686055 66.2040948,66.686055 C66.8293422,68.4746496 70.2114562,69.9295666 71.7580665,71.000029 C73.6369041,72.3575371 75.3774856,74.0051995 76.7786176,75.8963843 C77.2625138,76.3792841 77.7464099,76.8186608 78.2282425,77.3005243 C78.5645967,77.7875692 78.6595187,78.418655 79,78.8538865 L79,79 C78.321101,78.7606226 77.9857785,78.1295368 77.4564849,77.7409372 C76.3906754,77.0114062 75.3320881,76.1399067 74.2662786,75.4611527 C72.4338703,74.2963901 70.3084417,73.6207449 68.4265089,72.4518372 C67.3627629,71.7730832 66.3485414,71.000029 65.3343199,70.223866 C64.4150205,69.5420032 63.4028625,68.2352722 62.8250761,67.2653275 C62.4845948,66.7295782 62.4381656,66.0995287 62.0491915,65.7119653 C62.1482406,64.7907251 63.3058769,64.7907251 64.0301735,64.4995345 C66.540449,63.4321808 69.5335889,63.0446175 73.3985672,63.1420264 Z" id="Combined-Shape"></path>
        </g>
    </g>
</svg>