<?xml version="1.0" encoding="UTF-8"?>
<svg width="88px" height="88px" viewBox="0 0 88 88" version="1.1" xmlns="http://www.w3.org/2000/svg" xmlns:xlink="http://www.w3.org/1999/xlink">
    <!-- Generator: Sketch 53.2 (72643) - https://sketchapp.com -->
    <title>Microsoft Outlook</title>
    <desc>Created with Sketch.</desc>
    <g id="Microsoft-Outlook" stroke="none" stroke-width="1" fill="none" fill-rule="evenodd">
        <rect fill="#FFFFFF" opacity="0" x="0" y="0" width="88" height="88"></rect>
        <rect id="Rectangle" x="0" y="0" width="88" height="88"></rect>
        <g id="g23" transform="translate(9.000000, 9.000000)" fill="#0072C6" fill-rule="nonzero">
            <path d="M21.4533466,27.7884132 C19.9692209,27.7884132 18.7866402,28.4792566 17.9134709,29.8583475 C17.0403016,31.2374384 16.6024055,33.0632399 16.6024055,35.3357526 C16.6024055,37.6420287 17.0403016,39.4652336 17.9134709,40.8053665 C18.7866402,42.1480967 19.9325113,42.8155663 21.3484613,42.8155663 C22.8089876,42.8155663 23.9679692,42.1636802 24.8227836,40.8599067 C25.677598,39.5561338 26.1076275,37.7459151 26.1076275,35.4318479 C26.1076275,33.0190881 25.6933313,31.1413431 24.8621155,29.7986129 C24.0309003,28.4584793 22.8955181,27.7884132 21.4533466,27.7884132 L21.4533466,27.7884132 Z" id="path25"></path>
            <path d="M0.790960319,8.58243272 L0.790960319,61.4995181 L41.4339785,69.9402799 L41.4339785,0.790960111 L0.790960319,8.58243272 Z M27.9876951,43.9868844 C26.2701995,46.2256342 24.0309003,47.3476067 21.2671752,47.3476067 C18.5742473,47.3476067 16.3821467,46.2619943 14.6856282,44.093368 C12.9917319,41.9221445 12.1421619,39.096437 12.1421619,35.6110517 C12.1421619,31.9308791 13.0022208,28.9545368 14.7249601,26.6820235 C16.4477001,24.4095108 18.7289534,23.2719562 21.5687201,23.2719562 C24.2511592,23.2719562 26.4222834,24.3575679 28.0768478,26.5339859 C29.7340337,28.7104039 30.5626266,31.577666 30.5626266,35.1383687 C30.5652368,38.797764 29.7051906,41.7481346 27.9876951,43.9868844 Z" id="path27"></path>
            <path d="M44.0036663,15.4519142 L44.0036663,28.9779107 L48.7759436,31.9542536 C48.901806,31.9906137 49.1745071,31.9932123 49.3003695,31.9542536 L69.8395141,18.2386644 C69.8395141,16.6154406 68.3108115,15.4519142 67.4481331,15.4519142 L44.0036663,15.4519142 Z" id="path3"></path>
            <path d="M44.0036663,34.024188 L48.3590246,36.9875447 C48.9726031,37.4342559 49.7120441,36.9875447 49.7120441,36.9875447 C48.9752254,37.4342559 69.8421377,23.7056812 69.8421377,23.7056812 L69.8421377,48.5656732 C69.8421377,51.2719115 68.0931769,52.4068689 66.1265795,52.4068689 L44.0010441,52.4068689 L44.0010441,34.024188 L44.0036663,34.024188 Z" id="path5"></path>
        </g>
    </g>
</svg>