<?xml version="1.0" encoding="UTF-8"?>
<svg width="88px" height="88px" viewBox="0 0 88 88" version="1.1" xmlns="http://www.w3.org/2000/svg" xmlns:xlink="http://www.w3.org/1999/xlink">
    <!-- Generator: Sketch 53.2 (72643) - https://sketchapp.com -->
    <title>PostgreSQL</title>
    <desc>Created with Sketch.</desc>
    <g id="PostgreSQL" stroke="none" stroke-width="1" fill="none" fill-rule="evenodd">
        <rect fill="#FFFFFF" opacity="0" x="0" y="0" width="88" height="88"></rect>
        <rect id="Rectangle" x="0" y="0" width="88" height="88"></rect>
        <g id="PostgreSQL_logo.1color_blue" transform="translate(10.000000, 9.000000)" stroke="#4169E1">
            <path d="M65.4926372,43.2343902 C56.9222587,45.0059024 56.3330899,42.0981707 56.3330899,42.0981707 C65.3820616,28.6431463 69.1648047,11.564 65.9003529,7.38397561 C56.9946696,-4.01834146 41.5784836,1.37421951 41.3212121,1.51421951 L41.2384082,1.52907317 C39.5451868,1.17685366 37.6502373,0.96702439 35.5205063,0.932195122 C31.6425216,0.868512195 28.7009371,1.95095122 26.4688086,3.64717073 C26.4688086,3.64717073 -1.03215285,-7.70563415 0.246878423,17.9254634 C0.518972861,23.3782927 8.04612389,59.1839756 17.0242181,48.3689756 C20.3057077,44.4143171 23.4762809,41.0705366 23.4762809,41.0705366 C25.0510892,42.1188293 26.9363271,42.653561 28.9127175,42.4614878 L29.0662286,42.330878 C29.0185226,42.8219024 29.040331,43.3021707 29.1277352,43.8707073 C26.8148473,46.4601951 27.494487,46.9148537 22.8709261,47.868561 C18.1925033,48.8347317 20.9408787,50.5548537 22.7353049,51.0043902 C24.9106973,51.5495366 29.9435074,52.3217561 33.3440915,47.5515122 L33.2084702,48.0958049 C34.1147134,48.823122 34.751077,52.8269512 34.6444201,56.4563659 C34.5377632,60.0859512 34.466545,62.5777805 35.1806012,64.524122 C35.8946574,66.4704634 36.6063283,70.8497317 42.6844104,69.5446585 C47.7632226,68.4540244 50.395059,65.6277317 50.7612024,60.9133171 C51.0210296,57.5616829 51.6090057,58.0571463 51.6461482,55.0606341 L52.1177559,53.6420244 C52.661604,49.0986829 52.2041378,47.6329512 55.3331386,48.3146829 L56.0935378,48.3816098 C58.3965438,48.4866098 61.4107095,48.010439 63.1797493,47.1864878 C66.9890714,45.4149756 69.2482901,42.4572195 65.4922965,43.2343902 L65.4926372,43.2343902 Z" id="path2464" stroke-width="1.95947599" stroke-linecap="round" stroke-linejoin="round"></path>
            <path d="M33.712109,45.8387317 C33.4761348,54.2926829 33.7714008,62.8055366 34.5968845,64.8744634 C35.4228794,66.9433902 37.1905562,70.9675366 43.2691493,69.6626341 C48.3474504,68.5716585 50.1952051,66.4603902 50.9970062,61.8002683 C51.587538,58.3716341 52.7260071,48.8495854 52.8720214,46.8986341" id="path2466" stroke-width="1.95947599" stroke-linecap="round" stroke-linejoin="round"></path>
            <path d="M26.4263843,3.45834146 C26.4263843,3.45834146 -1.09331873,-7.81268293 0.186053304,17.8184146 C0.458147742,23.2712439 7.98580991,59.078122 16.9637337,48.2626098 C20.2445418,44.307439 23.2116831,41.2054146 23.2116831,41.2054146" id="path2468" stroke-width="1.95947599" stroke-linecap="round" stroke-linejoin="round"></path>
            <path d="M41.2910551,1.40119512 C40.338469,1.7004878 56.5992211,-4.55546341 65.8403797,7.27726829 C69.1046611,11.4574634 65.321918,28.5366098 56.2731167,41.9919756" id="path2470" stroke-width="1.95947599" stroke-linecap="round" stroke-linejoin="round"></path>
            <path d="M56.2729463,41.9919756 C56.2729463,41.9919756 56.8626263,44.900561 65.4331751,43.1278537 C69.1883169,42.3506829 66.9284167,45.3087805 63.1199465,47.0811463 C59.9943532,48.5347561 52.9868565,48.9072927 52.8723622,46.8986341 C52.5777778,41.7160732 56.5605452,43.290561 56.2731167,41.9919756 C56.0132895,40.8224634 54.2321529,39.6746341 53.0539856,36.8123171 C52.0254107,34.314 38.9473287,15.1551707 56.6808324,18.0005854 C57.3304856,17.865878 52.0557381,1.09780488 35.4596811,0.825146341 C18.8673725,0.552487805 19.4117318,21.2723171 19.4117318,21.2723171" id="path2472" stroke-width="1.95947599" stroke-linecap="round" stroke-linejoin="bevel"></path>
            <path d="M29.0672508,43.7643415 C26.7540221,46.3536585 27.4343434,46.8083171 22.8104418,47.7623659 C18.132019,48.7287073 20.8807351,50.4484878 22.6746501,50.8978537 C24.8500426,51.4433415 29.8828526,52.215561 33.2834368,47.444122 C34.3189972,45.9913659 33.2773032,43.6733415 31.8548132,43.082439 C31.1675064,42.7971463 30.2484848,42.4396341 29.0672508,43.7643415 L29.0672508,43.7643415 Z" id="path2474" stroke-width="1.95947599" stroke-linecap="round" stroke-linejoin="round"></path>
            <path d="M28.9157843,43.7190976 C28.6827066,42.1966829 29.4149933,40.3850488 30.1997566,38.2655854 C31.3791165,35.0855366 34.1002312,31.9049756 31.9234757,21.8174634 C30.3009614,14.3003171 19.4183765,20.2530488 19.4115614,21.2723171 C19.4049166,22.2912439 19.9037848,26.4386585 19.2297676,31.2683171 C18.3502738,37.5705366 23.2316174,42.9006098 28.8525739,42.3552927" id="path2476" stroke-width="1.95947599" stroke-linecap="round" stroke-linejoin="round"></path>
            <path d="M26.3263722,21.1195122 C26.2773032,21.4676341 26.962395,22.3965854 27.8556894,22.5207073 C28.7474504,22.6453415 29.510746,21.9193902 29.5591335,21.5716098 C29.607521,21.2234878 28.923281,20.8400244 28.0296459,20.7153902 C27.1373737,20.5905854 26.3737374,20.7722439 26.3265425,21.1195122 L26.3263722,21.1195122 Z" id="path2478" stroke-width="0.653153442" fill="#4169E1" fill-rule="nonzero"></path>
            <path d="M53.4887915,20.4097805 C53.537179,20.7579024 52.852939,21.6868537 51.9594743,21.8109756 C51.0670318,21.9356098 50.3037362,21.2096585 50.2548375,20.861878 C50.2076427,20.5137561 50.8920531,20.1302927 51.7846659,20.0056585 C52.6772788,19.8810244 53.440404,20.0625122 53.4887915,20.4099512 L53.4887915,20.4097805 Z" id="path2480" stroke-width="0.5" fill="#4169E1" fill-rule="nonzero"></path>
            <path d="M56.6808324,18.0005854 C56.8278691,20.7312683 56.0938785,22.5912195 56.001363,25.4980976 C55.8643787,29.7233659 58.0116588,34.5595122 54.7761714,39.4016341" id="path2482" stroke-width="1.95947599" stroke-linecap="round" stroke-linejoin="round"></path>
        </g>
    </g>
</svg>