<?xml version="1.0" encoding="UTF-8"?>
<svg width="88px" height="88px" viewBox="0 0 88 88" version="1.1" xmlns="http://www.w3.org/2000/svg" xmlns:xlink="http://www.w3.org/1999/xlink">
    <!-- Generator: Sketch 53.2 (72643) - https://sketchapp.com -->
    <title>REST</title>
    <desc>Created with Sketch.</desc>
    <g id="REST" stroke="none" stroke-width="1" fill="none" fill-rule="evenodd">
        <rect fill="#FFFFFF" opacity="0" x="0" y="0" width="88" height="88"></rect>
        <g id="rtf">
            <rect id="Rectangle" x="0" y="0" width="88" height="88"></rect>
            <rect id="Rectangle-path" fill="#4186CF" fill-rule="nonzero" x="9" y="10" width="70" height="70" rx="2.87671233"></rect>
            <path d="M23.2187686,34 L15,34 L15,54.1369863 L19.1093843,54.1369863 L19.1093843,48.0958904 L21.6777495,48.0958904 L23.2187686,54.1369863 L27.3281531,54.1369863 L25.6022114,47.3508219 C26.6855635,46.5948737 27.3286628,45.3718523 27.3281528,44.0684932 L27.3281528,38.0273973 C27.3281528,35.8031272 25.4883188,34 23.2187686,34 Z M23.2187686,44.0684932 L19.1093843,44.0684932 L19.1093843,38.0273973 L23.2187686,38.0273973 L23.2187686,44.0684932 Z M61.1649978,38.0273973 L61.1649978,34 L73.4931507,34 L73.4931507,38.0273973 L69.3837664,38.0273973 L69.3837664,54.1369863 L65.2743821,54.1369863 L65.2743821,38.0273973 L61.1649978,38.0273973 Z M58.1048181,38.0273973 L49.8860495,38.0273973 L49.8860495,42.0547945 L53.9954338,42.0547945 C56.2649841,42.0547945 58.1048181,43.8579217 58.1048181,46.0821918 L58.1048181,50.109589 C58.1048181,52.3338591 56.2649841,54.1369863 53.9954338,54.1369863 L45.7766652,54.1369863 L45.7766652,50.109589 L53.9954338,50.109589 L53.9954338,46.0821918 L49.8860495,46.0821918 C47.6164992,46.0821918 45.7766652,44.2790646 45.7766652,42.0547945 L45.7766652,38.0273973 C45.7766652,35.8031272 47.6164992,34 49.8860495,34 L58.1048181,34 L58.1048181,38.0273973 Z M30.9129349,54.1369863 L30.9129349,34 L43.2410877,34 L43.2410877,38.0273973 L35.0223191,38.0273973 L35.0223191,42.0547945 L39.1317034,42.0547945 L39.1317034,46.0821918 L35.0223191,46.0821918 L35.0223191,50.109589 L43.2410877,50.109589 L43.2410877,54.1369863 L30.9129349,54.1369863 Z" id="Shape" fill="#FFFFFF" fill-rule="nonzero"></path>
        </g>
    </g>
</svg>