<?xml version="1.0" encoding="UTF-8"?>
<svg width="88px" height="88px" viewBox="0 0 88 88" version="1.1" xmlns="http://www.w3.org/2000/svg" xmlns:xlink="http://www.w3.org/1999/xlink">
    <!-- Generator: Sketch 53.2 (72643) - https://sketchapp.com -->
    <title>Salesforce</title>
    <desc>Created with Sketch.</desc>
    <g id="Salesforce" stroke="none" stroke-width="1" fill="none" fill-rule="evenodd">
        <rect fill="#FFFFFF" opacity="0" x="0" y="0" width="88" height="88"></rect>
        <g id="Salesforce_Logo_RGB_8_13_14" transform="translate(8.000000, 19.000000)">
            <path d="M30.296337,5.66073298 C32.6494505,3.23089005 35.9117216,1.70890052 39.5216117,1.70890052 C44.3347985,1.70890052 48.5062271,4.37905759 50.752381,8.35759162 C52.7043956,7.50314136 54.8435897,7.02251309 57.0897436,7.02251309 C65.7534799,7.02251309 72.7860806,14.0984293 72.7860806,22.8298429 C72.7860806,31.5612565 65.7534799,38.6371728 57.0897436,38.6371728 C56.0201465,38.6371728 55.0040293,38.5303665 53.9879121,38.3167539 C52.0358974,41.8146597 48.2655678,44.1910995 43.9871795,44.1910995 C42.1956044,44.1910995 40.4842491,43.7638743 38.9600733,43.0429319 C36.9545788,47.7157068 32.3285714,51 26.9271062,51 C21.2849817,51 16.4985348,47.4486911 14.6534799,42.4554974 C13.8512821,42.6157068 13.0223443,42.7225131 12.1666667,42.7225131 C5.45494505,42.7225131 0.0267399267,37.2219895 0.0267399267,30.4664921 C0.0267399267,25.9272251 2.46007326,21.9753927 6.0967033,19.839267 C5.34798535,18.1303665 4.94688645,16.234555 4.94688645,14.2319372 C4.94688645,6.43507853 11.2842491,0.133507853 19.0923077,0.133507853 C23.6380952,0.133507853 27.7025641,2.29633508 30.296337,5.66073298 Z" id="Path" fill="#00A1E0" fill-rule="nonzero"></path>
            <g id="Group" transform="translate(10.428571, 17.623037)" fill="#FFFFFF">
                <path d="M0.106959707,8.89162304 C0.0534798535,8.99842932 0.133699634,9.02513089 0.133699634,9.05183246 C0.267399267,9.15863874 0.401098901,9.21204188 0.561538462,9.2921466 C1.31025641,9.69267016 2.00549451,9.79947644 2.72747253,9.79947644 C4.22490842,9.79947644 5.16080586,8.99842932 5.16080586,7.7434555 L5.16080586,7.71675393 C5.16080586,6.54188482 4.11794872,6.11465969 3.12857143,5.79424084 L2.99487179,5.7408377 C2.24615385,5.50052356 1.6043956,5.28691099 1.6043956,4.80628272 L1.6043956,4.77958115 C1.6043956,4.35235602 1.97875458,4.05863874 2.56703297,4.05863874 C3.20879121,4.05863874 3.98424908,4.27225131 4.46556777,4.53926702 C4.46556777,4.53926702 4.5992674,4.61937173 4.65274725,4.48586387 C4.67948718,4.40575916 4.92014652,3.7382199 4.94688645,3.65811518 C4.97362637,3.57801047 4.92014652,3.52460733 4.86666667,3.49790576 C4.30512821,3.15078534 3.52967033,2.93717277 2.72747253,2.93717277 L2.56703297,2.93717277 C1.2032967,2.93717277 0.240659341,3.76492147 0.240659341,4.93979058 L0.240659341,4.96649215 C0.240659341,6.22146597 1.28351648,6.62198953 2.27289377,6.88900524 L2.43333333,6.94240838 C3.15531136,7.15602094 3.77032967,7.34293194 3.77032967,7.85026178 L3.77032967,7.87696335 C3.77032967,8.33089005 3.36923077,8.67801047 2.72747253,8.67801047 C2.48681319,8.67801047 1.68461538,8.67801047 0.802197802,8.11727749 C0.695238095,8.06387435 0.641758242,8.0104712 0.561538462,7.95706806 C0.508058608,7.93036649 0.401098901,7.87696335 0.374358974,8.03717277 L0.106959707,8.89162304 Z" id="Path" fill-rule="nonzero"></path>
                <path d="M21.9802198,8.89162304 C21.9267399,8.99842932 22.0069597,9.02513089 22.0069597,9.05183246 C22.1406593,9.15863874 22.274359,9.21204188 22.4347985,9.2921466 C23.1835165,9.69267016 23.8787546,9.79947644 24.6007326,9.79947644 C26.0981685,9.79947644 27.0340659,8.99842932 27.0340659,7.7434555 L27.0340659,7.71675393 C27.0340659,6.54188482 25.9912088,6.11465969 25.0018315,5.79424084 L24.8681319,5.7408377 C24.1194139,5.50052356 23.4776557,5.28691099 23.4776557,4.80628272 L23.4776557,4.77958115 C23.4776557,4.35235602 23.8520147,4.05863874 24.440293,4.05863874 C25.0820513,4.05863874 25.8575092,4.27225131 26.3388278,4.53926702 C26.3388278,4.53926702 26.4725275,4.61937173 26.5260073,4.48586387 C26.5527473,4.40575916 26.7934066,3.7382199 26.8201465,3.65811518 C26.8468864,3.57801047 26.7934066,3.52460733 26.7399267,3.49790576 C26.1783883,3.15078534 25.4029304,2.93717277 24.6007326,2.93717277 L24.440293,2.93717277 C23.0765568,2.93717277 22.1139194,3.76492147 22.1139194,4.93979058 L22.1139194,4.96649215 C22.1139194,6.22146597 23.1567766,6.62198953 24.1461538,6.88900524 L24.3065934,6.94240838 C25.0285714,7.15602094 25.6435897,7.34293194 25.6435897,7.85026178 L25.6435897,7.87696335 C25.6435897,8.33089005 25.2424908,8.67801047 24.6007326,8.67801047 C24.3600733,8.67801047 23.5578755,8.67801047 22.6754579,8.11727749 C22.5684982,8.06387435 22.5150183,8.0104712 22.4347985,7.95706806 C22.4080586,7.93036649 22.274359,7.90366492 22.247619,8.03717277 L21.9802198,8.89162304 Z" id="Path" fill-rule="nonzero"></path>
                <path d="M38.1311355,5.04659686 C37.9974359,4.6460733 37.8102564,4.27225131 37.5695971,3.97853403 C37.3021978,3.68481675 36.9813187,3.41780105 36.6069597,3.25759162 C36.2326007,3.07068063 35.778022,2.99057592 35.2699634,2.99057592 C34.7619048,2.99057592 34.307326,3.07068063 33.932967,3.25759162 C33.5586081,3.44450262 33.2377289,3.68481675 32.9703297,3.97853403 C32.7296703,4.27225131 32.5157509,4.6460733 32.4087912,5.04659686 C32.2750916,5.44712042 32.2216117,5.90104712 32.2216117,6.38167539 C32.2216117,6.86230366 32.2750916,7.31623037 32.4087912,7.71675393 C32.5424908,8.11727749 32.7296703,8.49109948 32.9703297,8.78481675 C33.2377289,9.07853403 33.5586081,9.34554974 33.932967,9.50575916 C34.307326,9.66596859 34.7619048,9.77277487 35.2699634,9.77277487 C35.778022,9.77277487 36.2326007,9.69267016 36.6069597,9.50575916 C36.9813187,9.34554974 37.3021978,9.07853403 37.5695971,8.78481675 C37.8102564,8.49109948 38.0241758,8.11727749 38.1311355,7.71675393 C38.2648352,7.31623037 38.318315,6.86230366 38.318315,6.38167539 C38.318315,5.90104712 38.2648352,5.44712042 38.1311355,5.04659686 M36.9010989,6.38167539 C36.9010989,7.1026178 36.7673993,7.66335079 36.5,8.06387435 C36.2326007,8.46439791 35.8315018,8.6513089 35.2967033,8.6513089 C34.7351648,8.6513089 34.3608059,8.46439791 34.0934066,8.06387435 C33.8260073,7.66335079 33.6923077,7.1026178 33.6923077,6.38167539 C33.6923077,5.66073298 33.8260073,5.1 34.0934066,4.69947644 C34.3608059,4.29895288 34.7351648,4.11204188 35.2967033,4.11204188 C35.8582418,4.11204188 36.2593407,4.29895288 36.5,4.69947644 C36.7673993,5.1 36.9010989,5.66073298 36.9010989,6.38167539" id="Shape" fill-rule="nonzero"></path>
                <path d="M48.3725275,8.46439791 C48.3190476,8.33089005 48.2120879,8.38429319 48.2120879,8.38429319 C48.0249084,8.46439791 47.8377289,8.51780105 47.6238095,8.54450262 C47.4098901,8.57120419 47.1959707,8.59790576 46.9285714,8.59790576 C46.3135531,8.59790576 45.8589744,8.41099476 45.5113553,8.06387435 C45.1637363,7.71675393 44.9765568,7.12931937 44.9765568,6.35497382 C44.9765568,5.66073298 45.1369963,5.12670157 45.4578755,4.72617801 C45.7520147,4.32565445 46.2333333,4.11204188 46.8483516,4.11204188 C47.3564103,4.11204188 47.7575092,4.16544503 48.1586081,4.29895288 C48.1586081,4.29895288 48.2655678,4.35235602 48.2923077,4.21884817 C48.3992674,3.92513089 48.4794872,3.71151832 48.5864469,3.36439791 C48.6131868,3.25759162 48.532967,3.23089005 48.5062271,3.23089005 C48.3457875,3.17748691 47.9714286,3.07068063 47.6772894,3.01727749 C47.4098901,2.96387435 47.089011,2.96387435 46.7413919,2.96387435 C46.2065934,2.96387435 45.7520147,3.04397906 45.3509158,3.23089005 C44.9498168,3.41780105 44.6021978,3.65811518 44.3347985,3.95183246 C44.0673993,4.24554974 43.8534799,4.61937173 43.7197802,5.01989529 C43.5860806,5.42041885 43.5058608,5.87434555 43.5058608,6.35497382 C43.5058608,7.39633508 43.7732601,8.22408377 44.3347985,8.8382199 C44.896337,9.45235602 45.7252747,9.77277487 46.7948718,9.77277487 C47.43663,9.77277487 48.0783883,9.63926702 48.559707,9.45235602 C48.559707,9.45235602 48.6399267,9.39895288 48.6131868,9.2921466 L48.3725275,8.46439791 Z" id="Path"></path>
                <path d="M54.73663,4.80628272 C54.6296703,4.40575916 54.3622711,4.0052356 54.2018315,3.81832461 C53.9344322,3.52460733 53.667033,3.31099476 53.3996337,3.20418848 C53.0520147,3.04397906 52.6509158,2.96387435 52.196337,2.96387435 C51.6615385,2.96387435 51.1802198,3.04397906 50.8058608,3.23089005 C50.4047619,3.41780105 50.0838828,3.65811518 49.8432234,3.97853403 C49.5758242,4.29895288 49.3886447,4.6460733 49.281685,5.07329843 C49.1479853,5.50052356 49.0945055,5.92774869 49.0945055,6.40837696 C49.0945055,6.88900524 49.1479853,7.34293194 49.281685,7.7434555 C49.4153846,8.14397906 49.6025641,8.51780105 49.8967033,8.81151832 C50.1641026,9.1052356 50.5384615,9.34554974 50.9663004,9.50575916 C51.3941392,9.66596859 51.9021978,9.7460733 52.4904762,9.7460733 C53.7205128,9.7460733 54.3622711,9.47905759 54.6029304,9.31884817 C54.6564103,9.2921466 54.6831502,9.23874346 54.6296703,9.1052356 L54.3622711,8.33089005 C54.3087912,8.22408377 54.2018315,8.25078534 54.2018315,8.25078534 C53.9076923,8.35759162 53.4798535,8.57120419 52.4637363,8.57120419 C51.821978,8.57120419 51.3139194,8.38429319 51.0197802,8.06387435 C50.6989011,7.7434555 50.5652015,7.2895288 50.5384615,6.67539267 L54.76337,6.67539267 C54.76337,6.67539267 54.8703297,6.67539267 54.8970696,6.56858639 C54.8703297,6.56858639 55.0040293,5.76753927 54.73663,4.80628272 Z M50.5384615,5.68743455 C50.5919414,5.28691099 50.6989011,4.96649215 50.8860806,4.69947644 C51.1534799,4.29895288 51.5278388,4.08534031 52.0893773,4.08534031 C52.6509158,4.08534031 52.9985348,4.29895288 53.2659341,4.69947644 C53.4531136,4.96649215 53.5065934,5.31361257 53.5333333,5.68743455 L50.5384615,5.68743455 Z" id="Shape"></path>
                <path d="M20.9641026,4.80628272 C20.8571429,4.40575916 20.5897436,4.0052356 20.429304,3.81832461 C20.1619048,3.52460733 19.8945055,3.31099476 19.6271062,3.20418848 C19.2794872,3.04397906 18.8783883,2.96387435 18.4238095,2.96387435 C17.889011,2.96387435 17.4076923,3.04397906 17.0333333,3.23089005 C16.6322344,3.41780105 16.3113553,3.65811518 16.070696,3.97853403 C15.8032967,4.29895288 15.6161172,4.6460733 15.5091575,5.07329843 C15.3754579,5.50052356 15.321978,5.92774869 15.321978,6.40837696 C15.321978,6.88900524 15.3754579,7.34293194 15.5091575,7.7434555 C15.6428571,8.14397906 15.8300366,8.51780105 16.1241758,8.81151832 C16.3915751,9.1052356 16.7659341,9.34554974 17.1937729,9.50575916 C17.6216117,9.66596859 18.1296703,9.7460733 18.7179487,9.7460733 C19.9479853,9.7460733 20.5897436,9.47905759 20.8304029,9.31884817 C20.8838828,9.2921466 20.9106227,9.23874346 20.8571429,9.1052356 L20.5897436,8.33089005 C20.5362637,8.22408377 20.429304,8.25078534 20.429304,8.25078534 C20.1351648,8.35759162 19.707326,8.57120419 18.6912088,8.57120419 C18.0494505,8.57120419 17.5413919,8.38429319 17.2472527,8.06387435 C16.9263736,7.7434555 16.792674,7.2895288 16.7659341,6.67539267 L20.9908425,6.67539267 C20.9908425,6.67539267 21.0978022,6.67539267 21.1245421,6.56858639 C21.0978022,6.56858639 21.2315018,5.76753927 20.9641026,4.80628272 Z M16.7659341,5.68743455 C16.8194139,5.28691099 16.9263736,4.96649215 17.1135531,4.69947644 C17.3809524,4.29895288 17.7553114,4.08534031 18.3168498,4.08534031 C18.8783883,4.08534031 19.2260073,4.29895288 19.4934066,4.69947644 C19.6538462,4.96649215 19.7340659,5.31361257 19.7608059,5.68743455 L16.7659341,5.68743455 Z" id="Shape"></path>
                <path d="M9.33223443,5.47382199 C9.17179487,5.47382199 8.93113553,5.44712042 8.66373626,5.44712042 C8.28937729,5.44712042 7.94175824,5.50052356 7.62087912,5.58062827 C7.3,5.66073298 7.00586081,5.79424084 6.73846154,5.98115183 C6.47106227,6.16806283 6.28388278,6.40837696 6.12344322,6.67539267 C5.96300366,6.94240838 5.90952381,7.2895288 5.90952381,7.63664921 C5.90952381,8.0104712 5.96300366,8.33089005 6.0967033,8.59790576 C6.23040293,8.86492147 6.41758242,9.07853403 6.65824176,9.26544503 C6.8989011,9.42565445 7.19304029,9.5591623 7.51391941,9.63926702 C7.83479853,9.71937173 8.20915751,9.7460733 8.63699634,9.7460733 C9.06483516,9.7460733 9.49267399,9.71937173 9.92051282,9.63926702 C10.3216117,9.5591623 10.8296703,9.47905759 10.9901099,9.42565445 C11.1238095,9.39895288 11.2842491,9.34554974 11.2842491,9.34554974 C11.3912088,9.31884817 11.3912088,9.21204188 11.3912088,9.21204188 L11.3912088,5.36701571 C11.3912088,4.51256545 11.1772894,3.89842932 10.7227106,3.49790576 C10.2681319,3.12408377 9.62637363,2.9104712 8.7974359,2.9104712 C8.47655678,2.9104712 7.96849817,2.96387435 7.67435897,3.01727749 C7.67435897,3.01727749 6.76520147,3.20418848 6.36410256,3.49790576 C6.36410256,3.49790576 6.28388278,3.5513089 6.33736264,3.65811518 L6.63150183,4.4591623 C6.65824176,4.56596859 6.76520147,4.53926702 6.76520147,4.53926702 C6.76520147,4.53926702 6.79194139,4.53926702 6.84542125,4.51256545 C7.64761905,4.08534031 8.69047619,4.08534031 8.69047619,4.08534031 C9.14505495,4.08534031 9.49267399,4.16544503 9.73333333,4.35235602 C9.97399267,4.53926702 10.0809524,4.80628272 10.0809524,5.36701571 L10.0809524,5.5539267 C9.65311355,5.52722513 9.33223443,5.47382199 9.33223443,5.47382199 Z M7.64761905,8.43769634 C7.48717949,8.30418848 7.46043956,8.27748691 7.40695971,8.1973822 C7.32673993,8.06387435 7.27326007,7.87696335 7.27326007,7.63664921 C7.27326007,7.26282723 7.40695971,6.99581152 7.64761905,6.80890052 C7.64761905,6.80890052 8.02197802,6.48848168 8.87765568,6.51518325 C9.49267399,6.51518325 10.0274725,6.62198953 10.0274725,6.62198953 L10.0274725,8.54450262 L10.0274725,8.54450262 C10.0274725,8.54450262 9.49267399,8.6513089 8.87765568,8.70471204 C8.02197802,8.73141361 7.64761905,8.43769634 7.64761905,8.43769634 Z" id="Shape" fill-rule="nonzero"></path>
                <path d="M43.3454212,3.31099476 C43.3721612,3.20418848 43.3186813,3.17748691 43.2919414,3.15078534 C43.2117216,3.12408377 42.8641026,3.04397906 42.5967033,3.04397906 C42.0619048,3.01727749 41.7677656,3.0973822 41.5003663,3.23089005 C41.232967,3.33769634 40.9388278,3.5513089 40.7783883,3.76492147 L40.7783883,3.25759162 C40.7783883,3.17748691 40.7249084,3.12408377 40.6446886,3.12408377 L39.5750916,3.12408377 C39.4948718,3.12408377 39.4413919,3.17748691 39.4413919,3.25759162 L39.4413919,9.53246073 C39.4413919,9.61256545 39.4948718,9.66596859 39.5750916,9.66596859 L40.6714286,9.66596859 C40.7516484,9.66596859 40.8051282,9.61256545 40.8051282,9.53246073 L40.8051282,6.38167539 C40.8051282,5.95445026 40.8586081,5.52722513 40.9388278,5.28691099 C41.0190476,5.01989529 41.1527473,4.80628272 41.3131868,4.67277487 C41.4736264,4.51256545 41.6340659,4.40575916 41.8212454,4.35235602 C42.0084249,4.29895288 42.2223443,4.27225131 42.3827839,4.27225131 C42.5967033,4.27225131 42.8373626,4.32565445 42.8373626,4.32565445 C42.9175824,4.32565445 42.9710623,4.27225131 42.9978022,4.21884817 C43.1047619,4.0052356 43.3186813,3.41780105 43.3454212,3.31099476 Z" id="Path"></path>
                <path d="M32.9435897,0.40052356 C32.8098901,0.347120419 32.6761905,0.320418848 32.5157509,0.293717277 C32.3553114,0.267015707 32.1681319,0.240314136 31.9542125,0.240314136 C31.1787546,0.240314136 30.5904762,0.453926702 30.1626374,0.881151832 C29.7347985,1.30837696 29.4673993,1.94921466 29.3069597,2.80366492 L29.2534799,3.0973822 L28.2908425,3.0973822 C28.2908425,3.0973822 28.1838828,3.0973822 28.1571429,3.23089005 L27.9967033,4.11204188 C27.9967033,4.1921466 28.0234432,4.24554974 28.1304029,4.24554974 L29.0663004,4.24554974 L28.1304029,9.50575916 C28.0501832,9.93298429 27.9699634,10.2801047 27.8897436,10.5471204 C27.8095238,10.8141361 27.7025641,11.0010471 27.5956044,11.134555 C27.4886447,11.2680628 27.381685,11.3748691 27.2212454,11.4282723 C27.0875458,11.4816754 26.9003663,11.508377 26.7131868,11.508377 C26.6062271,11.508377 26.4725275,11.4816754 26.3655678,11.4816754 C26.2586081,11.4549738 26.2051282,11.4282723 26.1249084,11.4015707 C26.1249084,11.4015707 26.0179487,11.3481675 25.9644689,11.4816754 C25.9377289,11.5617801 25.6703297,12.2560209 25.6435897,12.3361257 C25.6168498,12.4162304 25.6435897,12.4963351 25.6970696,12.4963351 C25.8307692,12.5497382 25.910989,12.5764398 26.0714286,12.6031414 C26.3120879,12.6565445 26.4992674,12.6565445 26.6864469,12.6565445 C27.0875458,12.6565445 27.4351648,12.6031414 27.729304,12.4963351 C28.0234432,12.3895288 28.2908425,12.2026178 28.5047619,11.9623037 C28.7454212,11.695288 28.9058608,11.4015707 29.0395604,11.0277487 C29.1732601,10.6539267 29.3069597,10.1732984 29.4139194,9.61256545 L30.3765568,4.24554974 L31.767033,4.24554974 C31.767033,4.24554974 31.8739927,4.24554974 31.9007326,4.11204188 L32.0611722,3.23089005 C32.0611722,3.15078534 32.0344322,3.0973822 31.9274725,3.0973822 L30.5904762,3.0973822 C30.5904762,3.07068063 30.670696,2.59005236 30.8043956,2.13612565 C30.8578755,1.94921466 30.9915751,1.78900524 31.0985348,1.68219895 C31.2054945,1.57539267 31.3124542,1.49528796 31.4461538,1.46858639 C31.5798535,1.41518325 31.740293,1.41518325 31.9007326,1.41518325 C32.0344322,1.41518325 32.1413919,1.44188482 32.2483516,1.44188482 C32.3820513,1.46858639 32.4355311,1.49528796 32.4622711,1.49528796 C32.5959707,1.5486911 32.6227106,1.49528796 32.6494505,1.44188482 L32.9703297,0.560732984 C33.0505495,0.453926702 32.9703297,0.427225131 32.9435897,0.40052356 Z" id="Path"></path>
                <path d="M14.0919414,9.50575916 C14.0919414,9.58586387 14.0384615,9.63926702 13.9582418,9.63926702 L12.8351648,9.63926702 C12.7549451,9.63926702 12.7014652,9.58586387 12.7014652,9.50575916 L12.7014652,0.534031414 C12.7014652,0.453926702 12.7549451,0.40052356 12.8351648,0.40052356 L13.9582418,0.40052356 C14.0384615,0.40052356 14.0919414,0.453926702 14.0919414,0.534031414 L14.0919414,9.50575916 Z" id="Path"></path>
            </g>
        </g>
        <rect id="Rectangle" x="0" y="0" width="88" height="88"></rect>
    </g>
</svg>