<?xml version="1.0" encoding="UTF-8"?>
<svg width="88px" height="88px" viewBox="0 0 88 88" version="1.1" xmlns="http://www.w3.org/2000/svg" xmlns:xlink="http://www.w3.org/1999/xlink">
    <!-- Generator: Sketch 53.2 (72643) - https://sketchapp.com -->
    <title>SAP</title>
    <desc>Created with Sketch.</desc>
    <g id="SAP" stroke="none" stroke-width="1" fill="none" fill-rule="evenodd">
        <rect fill="#FFFFFF" opacity="0" x="0" y="0" width="88" height="88"></rect>
        <g id="SAP-Logo" transform="translate(7.000000, 25.000000)">
            <polyline id="path25030" fill="#014185" fill-rule="nonzero" points="0.626352013 37.0107926 37.3246602 37.0107926 73.3117658 0.802127127 0.626352013 0.802127127 0.626352013 37.0107926"></polyline>
            <path d="M43.725528,7.6074484 L36.6134527,7.60601733 L36.6134527,24.7331497 L30.3548265,7.60601733 L24.2384418,7.60601733 L18.8332646,21.9296953 C18.2642986,18.3215713 14.5660195,17.0744776 11.5789479,16.1409472 C9.72980832,15.5138207 7.59618575,14.5917448 7.73842725,13.583761 C7.73842725,12.747593 8.73411779,11.9801511 10.8677404,12.0946943 C12.2901554,12.1677156 13.5703289,12.286555 16.130676,13.5150349 L18.6910231,9.15235561 C16.2729175,7.97255698 13.1436044,7.22659109 10.5832573,7.22372796 L10.5832573,7.22372796 C7.45394424,7.22372796 4.89359716,8.21452999 3.3289406,9.85679862 C2.33325007,10.9993715 1.62204255,12.4497795 1.62204255,14.0576855 C1.62204255,16.2698091 2.47549158,17.8390564 4.04014813,19.0890132 C5.60480468,20.141383 7.31170274,20.8272122 9.0186008,21.329773 C11.0099819,21.9497402 12.5746384,22.4866636 12.5746384,23.6378259 C12.5746384,24.0630692 12.4323969,24.4496538 12.1479139,24.7603539 C11.5789479,25.2743683 10.8677404,25.4690921 9.72980832,25.4934332 C7.73842725,25.5306589 6.3160122,25.2113694 3.89790662,23.7895968 L1.62204255,28.2066845 C4.04014813,29.5754807 6.88497822,30.3801493 9.72980832,30.3801493 L10.1565328,30.3772862 C12.5746384,30.3314681 14.708261,29.6084122 16.2729175,28.2940235 C16.415159,28.216707 16.415159,28.1451167 16.5574005,28.0735275 L15.846193,29.9964279 L22.3893022,29.9964279 L23.3849928,26.6632094 C24.5229248,27.0469308 25.8030984,27.27029 27.2255134,27.27029 C28.6479285,27.27029 29.7858605,27.0540891 30.9237925,26.6904136 L32.0617246,29.9964279 L42.5875959,29.9964279 L42.5875959,23.0822897 L45.0057015,23.0822897 C50.5531202,23.0822897 53.8246748,20.2172675 53.8246748,15.4121641 C53.8246748,10.062977 50.6953617,7.6074484 43.725528,7.6074484 Z M27.2255134,22.2704618 C26.3720644,22.2704618 25.6608569,22.121555 24.9496493,21.8609691 L27.2255134,14.6561757 L27.2255134,14.6561757 L29.5013775,21.8838772 C28.79017,22.1301464 28.0789624,22.2704618 27.2255134,22.2704618 Z M44.1522525,18.1268474 L42.5875959,18.1268474 L42.5875959,12.3180545 L44.1522525,12.3180545 C46.285875,12.3180545 47.9927731,13.0210654 47.9927731,15.1930991 C47.9927731,17.4266996 46.285875,18.1268474 44.1522525,18.1268474 L44.1522525,18.1268474 Z" id="path25032" fill="#FFFFFF"></path>
            <path d="M46.285875,34.6970115 C46.285875,33.5902342 47.1393241,32.7469069 48.1350146,32.7469069 C49.1307051,32.7469069 49.9841542,33.5902342 49.9841542,34.6970115 C49.9841542,35.8453107 49.1307051,36.6728883 48.1350146,36.6728883 C47.1393241,36.6728883 46.285875,35.8453107 46.285875,34.6970115 Z M48.1350146,37.0652001 C49.4151882,37.0652001 50.5531202,36.0615125 50.5531202,34.6970115 C50.5531202,33.3525554 49.4151882,32.3646175 48.1350146,32.3646175 C46.8548411,32.3646175 45.716909,33.3525554 45.716909,34.6970115 C45.716909,36.0615125 46.8548411,37.0652001 48.1350146,37.0652001 Z M47.7082901,34.8931674 L48.1350146,34.8931674 L48.8462221,36.0615125 L49.2729467,36.0615125 L48.5617391,34.8702584 C48.8462221,34.8215771 49.2729467,34.6111036 49.2729467,34.1300207 C49.2729467,33.5902342 48.8462221,33.3525554 48.2772561,33.3525554 L47.2815656,33.3525554 L47.2815656,36.0615125 L47.7082901,36.0615125 L47.7082901,34.8931674 Z M47.7082901,34.5438095 L47.7082901,33.6976181 L48.2772561,33.6976181 C48.4194976,33.6976181 48.8462221,33.7634811 48.8462221,34.1056796 C48.8462221,34.5166053 48.4194976,34.5438095 48.1350146,34.5438095 L47.7082901,34.5438095 L47.7082901,34.5438095 Z" id="path25034" fill="#014185" fill-rule="nonzero"></path>
        </g>
        <rect id="Rectangle" x="0" y="0" width="88" height="88"></rect>
    </g>
</svg>