<?xml version="1.0" encoding="UTF-8"?>
<svg width="88px" height="88px" viewBox="0 0 88 88" version="1.1" xmlns="http://www.w3.org/2000/svg" xmlns:xlink="http://www.w3.org/1999/xlink">
    <!-- Generator: Sketch 53.2 (72643) - https://sketchapp.com -->
    <title>Sharepoint</title>
    <desc>Created with Sketch.</desc>
    <g id="Sharepoint" stroke="none" stroke-width="1" fill="none" fill-rule="evenodd">
        <rect fill="#FFFFFF" opacity="0" x="0" y="0" width="88" height="88"></rect>
        <rect id="Rectangle" x="0" y="0" width="88" height="88"></rect>
        <g id="microsoft-sharepoint" transform="translate(10.000000, 9.000000)" fill-rule="nonzero">
            <path d="M45.6571429,53.0833333 L45.6571429,49.1944444 C53.4285714,49.1944444 59.84,42.7777778 59.84,35 C59.84,27.2222222 53.4285714,20.8055556 45.6571429,20.8055556 L45.6571429,16.9166667 C55.5657143,16.9166667 63.7257143,25.0833333 63.7257143,35 C63.7257143,44.9166667 55.76,53.0833333 45.6571429,53.0833333 Z" id="Path" fill="#1A237E"></path>
            <path d="M68,35 C68,39.2777778 64.5028571,42.7777778 60.2285714,42.7777778 C55.9542857,42.7777778 52.4571429,39.2777778 52.4571429,35 C52.4571429,30.7222222 55.9542857,27.2222222 60.2285714,27.2222222 C64.5028571,27.2222222 68,30.7222222 68,35 Z M50.5142857,19.4444444 C50.5142857,23.7222222 47.0171429,27.2222222 42.7428571,27.2222222 C38.4685714,27.2222222 34.9714286,23.7222222 34.9714286,19.4444444 C34.9714286,15.1666667 38.4685714,11.6666667 42.7428571,11.6666667 C47.0171429,11.6666667 50.5142857,15.1666667 50.5142857,19.4444444 Z M50.5142857,50.5555556 C50.5142857,54.8333333 47.0171429,58.3333333 42.7428571,58.3333333 C38.4685714,58.3333333 34.9714286,54.8333333 34.9714286,50.5555556 C34.9714286,46.2777778 38.4685714,42.7777778 42.7428571,42.7777778 C47.0171429,42.7777778 50.5142857,46.2777778 50.5142857,50.5555556 Z" id="Shape" fill="#0D47A1"></path>
            <polygon id="Path" fill="#1E88E5" points="40.8 70 0 62.2222222 0 7.77777778 40.8 0"></polygon>
            <path d="M28.1714286,46.0833333 C27.5885714,47.25 26.8114286,48.0277778 25.6457143,48.6111111 C24.48,49.1944444 23.5085714,49.7777778 22.1485714,49.9722222 C20.7885714,50.3611111 19.4285714,50.5555556 17.8742857,50.5555556 C16.32,50.5555556 14.7657143,50.3611111 13.4057143,50.1666667 C12.0457143,49.9722222 10.88,49.5833333 9.71428571,49 L9.71428571,42.7777778 C10.88,43.75 12.0457143,44.5277778 13.4057143,44.9166667 C14.7657143,45.3055556 16.1257143,45.6944444 17.4857143,45.6944444 C18.2628571,45.6944444 19.04,45.6944444 19.6228571,45.5 C20.2057143,45.3055556 20.7885714,45.1111111 21.1771429,44.9166667 C21.5657143,44.7222222 21.9542857,44.3333333 22.1485714,43.9444444 C22.3428571,43.5555556 22.5371429,43.1666667 22.5371429,42.7777778 C22.5371429,42.1944444 22.3428571,41.8055556 22.1485714,41.2222222 C21.76,40.8333333 21.3714286,40.4444444 20.7885714,40.0555556 C20.2057143,39.6666667 19.6228571,39.2777778 18.8457143,39.0833333 C18.0685714,38.6944444 17.2914286,38.3055556 16.32,38.1111111 C14.1828571,37.1388889 12.4342857,36.1666667 11.4628571,34.8055556 C10.2971429,33.4444444 9.90857143,31.8888889 9.90857143,29.9444444 C9.90857143,28.3888889 10.2971429,27.2222222 10.88,26.25 C11.4628571,25.2777778 12.24,24.3055556 13.2114286,23.7222222 C14.1828571,22.9444444 15.3485714,22.5555556 16.7085714,22.1666667 C18.0685714,21.7777778 19.4285714,21.5833333 20.9828571,21.5833333 C22.5371429,21.5833333 23.7028571,21.5833333 24.8685714,21.7777778 C26.0342857,21.9722222 27.0057143,22.1666667 27.9771429,22.5555556 L27.9771429,28.3888889 C27.5885714,28 27.0057143,27.8055556 26.4228571,27.6111111 C25.84,27.4166667 25.2571429,27.2222222 24.6742857,27.0277778 C24.0914286,26.8333333 23.5085714,26.8333333 22.9257143,26.6388889 C22.3428571,26.4444444 21.76,26.4444444 21.1771429,26.4444444 C20.4,26.4444444 19.8171429,26.4444444 19.2342857,26.6388889 C18.6514286,26.8333333 18.0685714,27.0277778 17.68,27.2222222 C17.2914286,27.4166667 16.9028571,27.8055556 16.7085714,28.1944444 C16.5142857,28.5833333 16.32,28.9722222 16.32,29.3611111 C16.32,29.75 16.5142857,30.3333333 16.7085714,30.7222222 C16.9028571,31.1111111 17.2914286,31.5 17.68,31.6944444 C18.0685714,32.0833333 18.6514286,32.2777778 19.4285714,32.6666667 C20.0114286,33.0555556 20.7885714,33.25 21.5657143,33.6388889 C22.7314286,34.0277778 23.7028571,34.6111111 24.6742857,35.1944444 C25.6457143,35.7777778 26.4228571,36.3611111 27.0057143,36.9444444 C27.5885714,37.5277778 28.1714286,38.3055556 28.56,39.2777778 C28.9485714,40.0555556 29.1428571,41.2222222 29.1428571,42.1944444 C29.1428571,43.75 28.7542857,45.1111111 28.1714286,46.0833333 Z" id="Path" fill="#FFFFFF"></path>
        </g>
    </g>
</svg>