<?xml version="1.0" encoding="UTF-8"?>
<svg width="88px" height="88px" viewBox="0 0 88 88" version="1.1" xmlns="http://www.w3.org/2000/svg" xmlns:xlink="http://www.w3.org/1999/xlink">
    <!-- Generator: Sketch 53.2 (72643) - https://sketchapp.com -->
    <title>Slack</title>
    <desc>Created with Sketch.</desc>
    <g id="Slack" stroke="none" stroke-width="1" fill="none" fill-rule="evenodd">
        <rect fill="#FFFFFF" opacity="0" x="0" y="0" width="88" height="88"></rect>
        <rect id="Rectangle" x="0" y="0" width="88" height="88"></rect>
        <g id="Slack_Mark" transform="translate(9.000000, 9.000000)" fill-rule="nonzero">
            <g id="Group" transform="translate(0.000000, 36.693548)" fill="#E01E5A">
                <path d="M14.9032258,7.4516129 C14.9032258,11.4596774 11.6290323,14.733871 7.62096774,14.733871 C3.61290323,14.733871 0.338709677,11.4596774 0.338709677,7.4516129 C0.338709677,3.44354839 3.61290323,0.169354839 7.62096774,0.169354839 L14.9032258,0.169354839 L14.9032258,7.4516129 Z" id="Path"></path>
                <path d="M18.5725806,7.4516129 C18.5725806,3.44354839 21.8467742,0.169354839 25.8548387,0.169354839 C29.8629032,0.169354839 33.1370968,3.44354839 33.1370968,7.4516129 L33.1370968,25.6854839 C33.1370968,29.6935484 29.8629032,32.9677419 25.8548387,32.9677419 C21.8467742,32.9677419 18.5725806,29.6935484 18.5725806,25.6854839 L18.5725806,7.4516129 Z" id="Path"></path>
            </g>
            <g id="Group" fill="#36C5F0">
                <path d="M25.8548387,14.9032258 C21.8467742,14.9032258 18.5725806,11.6290323 18.5725806,7.62096774 C18.5725806,3.61290323 21.8467742,0.338709677 25.8548387,0.338709677 C29.8629032,0.338709677 33.1370968,3.61290323 33.1370968,7.62096774 L33.1370968,14.9032258 L25.8548387,14.9032258 Z" id="Path"></path>
                <path d="M25.8548387,18.5725806 C29.8629032,18.5725806 33.1370968,21.8467742 33.1370968,25.8548387 C33.1370968,29.8629032 29.8629032,33.1370968 25.8548387,33.1370968 L7.62096774,33.1370968 C3.61290323,33.1370968 0.338709677,29.8629032 0.338709677,25.8548387 C0.338709677,21.8467742 3.61290323,18.5725806 7.62096774,18.5725806 L25.8548387,18.5725806 Z" id="Path"></path>
            </g>
            <g id="Group" transform="translate(36.693548, 0.000000)" fill="#2EB67D">
                <path d="M18.4032258,25.8548387 C18.4032258,21.8467742 21.6774194,18.5725806 25.6854839,18.5725806 C29.6935484,18.5725806 32.9677419,21.8467742 32.9677419,25.8548387 C32.9677419,29.8629032 29.6935484,33.1370968 25.6854839,33.1370968 L18.4032258,33.1370968 L18.4032258,25.8548387 Z" id="Path"></path>
                <path d="M14.733871,25.8548387 C14.733871,29.8629032 11.4596774,33.1370968 7.4516129,33.1370968 C3.44354839,33.1370968 0.169354839,29.8629032 0.169354839,25.8548387 L0.169354839,7.62096774 C0.169354839,3.61290323 3.44354839,0.338709677 7.4516129,0.338709677 C11.4596774,0.338709677 14.733871,3.61290323 14.733871,7.62096774 L14.733871,25.8548387 Z" id="Path"></path>
            </g>
            <g id="Group" transform="translate(36.693548, 36.693548)" fill="#ECB22E">
                <path d="M7.4516129,18.4032258 C11.4596774,18.4032258 14.733871,21.6774194 14.733871,25.6854839 C14.733871,29.6935484 11.4596774,32.9677419 7.4516129,32.9677419 C3.44354839,32.9677419 0.169354839,29.6935484 0.169354839,25.6854839 L0.169354839,18.4032258 L7.4516129,18.4032258 Z" id="Path"></path>
                <path d="M7.4516129,14.733871 C3.44354839,14.733871 0.169354839,11.4596774 0.169354839,7.4516129 C0.169354839,3.44354839 3.44354839,0.169354839 7.4516129,0.169354839 L25.6854839,0.169354839 C29.6935484,0.169354839 32.9677419,3.44354839 32.9677419,7.4516129 C32.9677419,11.4596774 29.6935484,14.733871 25.6854839,14.733871 L7.4516129,14.733871 Z" id="Path"></path>
            </g>
        </g>
    </g>
</svg>