<svg id="Layer_1" data-name="Layer 1" xmlns="http://www.w3.org/2000/svg" viewBox="0 0 182 136"><title>sales-app</title><circle cx="12" cy="11" r="3" style="fill:#231f20"/><circle cx="24" cy="11" r="3" style="fill:#231f20"/><circle cx="36" cy="11" r="3" style="fill:#231f20"/><rect x="16" y="45" width="7" height="39" style="fill:#231f20"/><rect x="27" y="53" width="7" height="31" style="fill:#231f20"/><rect x="38" y="45" width="7" height="39" style="fill:#231f20"/><rect x="49" y="61" width="7" height="23" style="fill:#231f20"/><rect x="60" y="53" width="7" height="31" style="fill:#231f20"/><rect x="71" y="45" width="7" height="39" style="fill:#231f20"/><rect x="82" y="61" width="7" height="23" style="fill:#231f20"/><rect x="93" y="51" width="7" height="33" style="fill:#231f20"/><rect x="104" y="53" width="7" height="31" style="fill:#231f20"/><rect x="115" y="45" width="7" height="39" style="fill:#231f20"/><rect x="126" y="61" width="7" height="23" style="fill:#231f20"/><rect x="137" y="51" width="7" height="33" style="fill:#231f20"/><rect x="148" y="53" width="7" height="31" style="fill:#231f20"/><rect x="159" y="45" width="7" height="39" style="fill:#231f20"/><rect x="12" y="86" width="158" height="1" style="fill:#231f20"/><rect x="12" y="99" width="46" height="1" style="fill:#231f20"/><rect x="12" y="104" width="46" height="1" style="fill:#231f20"/><rect x="68" y="99" width="46" height="1" style="fill:#231f20"/><rect x="68" y="104" width="46" height="1" style="fill:#231f20"/><rect x="124" y="99" width="46" height="1" style="fill:#231f20"/><rect x="124" y="104" width="46" height="1" style="fill:#231f20"/><rect x="12" y="109" width="46" height="1" style="fill:#231f20"/><rect x="12" y="114" width="46" height="1" style="fill:#231f20"/><rect x="68" y="109" width="46" height="1" style="fill:#231f20"/><rect x="68" y="114" width="46" height="1" style="fill:#231f20"/><rect x="124" y="109" width="46" height="1" style="fill:#231f20"/><rect x="124" y="114" width="46" height="1" style="fill:#231f20"/><rect x="12" y="119" width="46" height="1" style="fill:#231f20"/><rect x="68" y="119" width="46" height="1" style="fill:#231f20"/><rect x="124" y="119" width="46" height="1" style="fill:#231f20"/><rect x="12" y="32" width="46" height="1" style="fill:#231f20"/><path d="M0,0V136H182V0ZM180,134H2V21H180ZM2,20V2H180V20Z" style="fill:#231f20"/></svg>