<?xml version="1.0" encoding="UTF-8"?>
<svg width="30px" height="30px" viewBox="0 0 30 30" version="1.1" xmlns="http://www.w3.org/2000/svg" xmlns:xlink="http://www.w3.org/1999/xlink">
    <!-- Generator: Sketch 52.3 (67297) - http://www.bohemiancoding.com/sketch -->
    <title>Group</title>
    <desc>Created with Sketch.</desc>
    <g id="Page-1" stroke="none" stroke-width="1" fill="none" fill-rule="evenodd">
        <g id="Group" fill="#7C7C7C" fill-rule="nonzero">
            <path d="M15,0 C6.71572875,-5.07265313e-16 1.01453063e-15,6.71572875 0,15 C-1.01453063e-15,23.2842712 6.71572875,30 15,30 C23.2842712,30 30,23.2842712 30,15 C30,11.0217527 28.4196474,7.20644396 25.6066017,4.39339828 C22.793556,1.58035261 18.9782473,2.43597394e-16 15,0 Z M15,28 C7.82029825,28 2,22.1797017 2,15 C2,7.82029825 7.82029825,2 15,2 C22.1797017,2 28,7.82029825 28,15 C28,18.4478144 26.6303611,21.7544152 24.1923882,24.1923882 C21.7544152,26.6303611 18.4478144,28 15,28 Z" id="Shape"></path>
            <path d="M9,21 L18,18 L21,9 L12,12 L9,21 Z M15,13.81 C15.4813101,13.81 15.9152273,14.0999342 16.0994166,14.5446067 C16.283606,14.9892792 16.1817947,15.5011195 15.8414571,15.8414571 C15.5011195,16.1817947 14.9892792,16.283606 14.5446067,16.0994166 C14.0999342,15.9152273 13.81,15.4813101 13.81,15 C13.81,14.3427811 14.3427811,13.81 15,13.81 Z" id="Shape"></path>
        </g>
    </g>
</svg>