<?xml version="1.0" encoding="UTF-8"?>
<svg width="40px" height="40px" viewBox="0 0 40 40" version="1.1" xmlns="http://www.w3.org/2000/svg" xmlns:xlink="http://www.w3.org/1999/xlink">
    <!-- Generator: sketchtool 53.2 (72643) - https://sketchapp.com -->
    <title>40FB0C0B-01AB-4E78-9187-B45D93470F0B</title>
    <desc>Created with sketchtool.</desc>
    <g id="Design-systems-dashboard" stroke="none" stroke-width="1" fill="none" fill-rule="evenodd">
        <g id="design-systems-dashboard---with-themes" transform="translate(-72.000000, -338.000000)">
            <g id="design-systems" transform="translate(48.000000, 311.000000)">
                <g id="icon-list-DesSys" transform="translate(24.000000, 27.000000)">
                    <rect id="Rectangle" fill="#00A6A4" x="0" y="0" width="40" height="40" rx="20"></rect>
                    <path d="M14.6450639,17.7641393 L14.6450639,15.3131497 C14.9801136,15.1371351 15.2107599,14.7956775 15.2107599,14.3976625 C15.2107599,14.3749339 15.2049006,14.353791 15.2038352,14.3310624 L17.5923295,12.9631174 C17.7398793,13.0387032 17.9050071,13.084689 18.082919,13.084689 C18.2411222,13.084689 18.3902699,13.0492747 18.5255682,12.9884889 L20.9135298,14.3564339 C20.9129972,14.3701768 20.9092685,14.3833911 20.9092685,14.3976625 C20.9092685,14.7771774 21.118608,15.1059494 21.4286222,15.2883068 L21.4286222,18.0929113 C21.1628196,18.2493686 20.9742543,18.5136548 20.9257813,18.826041 L18.5186435,20.2045575 C18.3971946,20.1580431 18.2661577,20.1300288 18.128196,20.1300288 C17.9502841,20.1300288 17.7851562,20.1765431 17.6376065,20.252129 L15.1926491,18.851941 C15.2022372,18.7953838 15.2107599,18.7388266 15.2107599,18.6796265 C15.2107599,18.2816116 14.9801136,17.9401539 14.6450639,17.7641393 M24.8861861,25.5949375 L22.4774503,26.9745111 C22.3272372,26.8952252 22.157848,26.846068 21.9746094,26.846068 C21.7919034,26.846068 21.6225142,26.8952252 21.4717685,26.9745111 L19.1898082,25.6673519 C19.1903409,25.6557233 19.1935369,25.6446232 19.1935369,25.6329947 C19.1935369,25.2170083 18.9426491,24.8607506 18.5830966,24.6931932 L18.5830966,22.1121748 C18.9426491,21.9446174 19.1935369,21.5883597 19.1935369,21.1729019 C19.1935369,21.1438304 19.1866122,21.1168732 19.1844815,21.0883303 L21.3668324,19.8387855 C21.5394176,19.9561285 21.7482244,20.0264286 21.9746094,20.0264286 C22.2009943,20.0264286 22.4103338,19.9561285 22.5823864,19.8382569 L24.7519531,21.0809303 C24.7492898,21.1115875 24.7423651,21.1411875 24.7423651,21.1729019 C24.7423651,21.594174 24.9985795,21.9546602 25.3661222,22.1190462 L25.3661222,24.7603218 C25.0859375,24.9400364 24.8989702,25.2455512 24.8861861,25.5949375 M28.2169744,18.8603982 C27.8334517,18.8603982 27.5154474,19.1310272 27.448331,19.488342 L26.2705966,20.2378575 C26.1305043,20.1707288 25.9744318,20.1300288 25.807706,20.1300288 C25.6548295,20.1300288 25.5099432,20.1628003 25.3783736,20.2198861 L23.0287642,18.8730839 C22.9909446,18.5305691 22.7869318,18.2398543 22.4939631,18.0786398 L22.4939631,15.3025783 C22.8183594,15.1239208 23.0399503,14.7877489 23.0399503,14.3976625 C23.0399503,14.3379339 23.0319602,14.2797909 23.0218395,14.2232337 L25.34375,12.7448171 C25.4023438,12.7585599 25.4625355,12.7675457 25.5253906,12.7675457 C25.957919,12.7675457 26.3084162,12.4245023 26.3084162,12.0011159 C26.3084162,11.5782581 25.957919,11.2346861 25.5253906,11.2346861 C25.1413352,11.2346861 24.823331,11.5058437 24.7567472,11.8626299 L22.3176491,13.4150467 C22.209517,13.3791038 22.0955256,13.3547895 21.9746094,13.3547895 C21.8020241,13.3547895 21.6416903,13.398661 21.4973366,13.4700182 L19.1402699,12.1195161 C19.1424006,12.093616 19.1482599,12.0687731 19.1482599,12.0423445 C19.1482599,11.4667293 18.6715199,11 18.082919,11 C17.4948509,11 17.0175781,11.4667293 17.0175781,12.0423445 C17.0175781,12.0518588 17.0202415,12.060316 17.0202415,12.0703588 L14.5987216,13.4573325 C14.4607599,13.3933752 14.3078835,13.3547895 14.145419,13.3547895 C13.5568182,13.3547895 13.0800781,13.8220473 13.0800781,14.3976625 C13.0800781,14.7692488 13.2803622,15.0937922 13.579723,15.2782639 L13.579723,17.7990251 C13.2803622,17.9834968 13.0800781,18.3075116 13.0800781,18.6796265 C13.0800781,18.7187408 13.0875355,18.7557409 13.0912642,18.7943267 L11.9646662,19.5115992 C11.9060724,19.4978563 11.8458807,19.4888706 11.7830256,19.4888706 C11.3504972,19.4888706 11,19.831914 11,20.2547718 C11,20.6781582 11.3504972,21.0212016 11.7830256,21.0212016 C12.167081,21.0212016 12.4850852,20.7505726 12.5522017,20.3937863 L13.7336648,19.641628 C13.8604403,19.6934281 13.9994673,19.7224996 14.145419,19.7224996 C14.2631392,19.7224996 14.375,19.6992424 14.4810014,19.6643566 L17.0655185,21.1448875 C17.0649858,21.1544018 17.0628551,21.1633876 17.0628551,21.1729019 C17.0628551,21.5259881 17.2428977,21.8367886 17.5177557,22.0254889 L17.5177557,24.779879 C17.2428977,24.9685793 17.0628551,25.2793798 17.0628551,25.6329947 C17.0628551,25.6340518 17.0628551,25.6356375 17.0628551,25.6366947 L14.1512784,27.4903976 C14.0932173,27.4766547 14.0330256,27.4671404 13.9696378,27.4671404 C13.537642,27.4671404 13.1871449,27.8107124 13.1871449,28.2340988 C13.1871449,28.6569566 13.537642,29 13.9696378,29 C14.3536932,29 14.6716974,28.729371 14.7388139,28.3725847 L17.6152344,26.5410818 C17.7681108,26.6240677 17.940696,26.6753392 18.128196,26.6753392 C18.3029119,26.6753392 18.4659091,26.629882 18.6118608,26.556939 L20.9108665,27.8736125 C20.9108665,27.8788982 20.9092685,27.8836554 20.9092685,27.8884125 C20.9092685,28.4645563 21.3860085,28.9312856 21.9746094,28.9312856 C22.5632102,28.9312856 23.0399503,28.4645563 23.0399503,27.8884125 C23.0399503,27.8836554 23.0383523,27.8788982 23.0383523,27.8741411 L25.3980824,26.5220532 C25.5589489,26.6171962 25.7459162,26.6753392 25.9472656,26.6753392 C26.5358665,26.6753392 27.0126065,26.2086099 27.0126065,25.6329947 C27.0126065,25.2286369 26.7750355,24.8818935 26.4314631,24.7090503 L26.4314631,22.0143889 C26.6977983,21.82516 26.8730469,21.5196453 26.8730469,21.1729019 C26.8730469,21.1528161 26.8682528,21.1337875 26.8671875,21.1142303 L28.0358665,20.3705292 C28.0944602,20.384272 28.1541193,20.3932578 28.2169744,20.3932578 C28.6495028,20.3932578 29,20.0502144 29,19.626828 C29,19.2039702 28.6495028,18.8603982 28.2169744,18.8603982" id="icon-designsys" fill="#FFFFFF"></path>
                </g>
            </g>
        </g>
    </g>
</svg>