<?xml version="1.0" encoding="utf-8"?>
<!-- Generator: Adobe Illustrator 23.0.2, SVG Export Plug-In . SVG Version: 6.00 Build 0)  -->
<svg version="1.1" id="Layer_1" xmlns="http://www.w3.org/2000/svg" xmlns:xlink="http://www.w3.org/1999/xlink" x="0px" y="0px"
	 viewBox="0 0 128 128" style="enable-background:new 0 0 128 128;" xml:space="preserve">
<style type="text/css">
	.st0{fill:#D0D3D8;}
</style>
<title>design-system</title>
<path class="st0" d="M74,38.35L55,26L35,39v19h-0.13L23,65.71v2.39l13-8.45L55,72l20-13V40.09l12-7.8V29.9L74,38.35z M73,57.91
	l-18,11.7l-18-11.7V40.09l18-11.7l18,11.7V57.91z"/>
<path class="st0" d="M55,90.65L74,103l20-13V71h0.13L106,63.29V60.9l-13,8.45L74,57L54,70v18.91l-12,7.8v2.39L55,90.65z M56,71.09
	l18-11.7l18,11.7v17.82l-18,11.7l-18-11.7C56,88.91,56,71.09,56,71.09z"/>
<circle class="st0" cx="55" cy="28" r="3"/>
<circle class="st0" cx="36" cy="39" r="3"/>
<circle class="st0" cx="36" cy="59" r="3"/>
<circle class="st0" cx="55" cy="70" r="3"/>
<circle class="st0" cx="74" cy="59" r="3"/>
<circle class="st0" cx="74" cy="39" r="3"/>
<circle class="st0" cx="55" cy="70" r="3"/>
<circle class="st0" cx="55" cy="90" r="3"/>
<circle class="st0" cx="74" cy="101" r="3"/>
<circle class="st0" cx="93" cy="90" r="3"/>
<circle class="st0" cx="93" cy="70" r="3"/>
</svg>
