<?xml version="1.0" encoding="UTF-8"?>
<svg width="32px" height="32px" viewBox="0 0 32 32" version="1.1" xmlns="http://www.w3.org/2000/svg" xmlns:xlink="http://www.w3.org/1999/xlink">
    <!-- Generator: sketchtool 53.2 (72643) - https://sketchapp.com -->
    <title>93A05A52-25E7-47F6-860D-2514540EA866</title>
    <desc>Created with sketchtool.</desc>
    <g id="lists" stroke="none" stroke-width="1" fill="none" fill-rule="evenodd">
        <g id="Li-/-DesignSystems-list3" transform="translate(-64.000000, -399.000000)">
            <g id="Stacked-Group" transform="translate(48.000000, 311.000000)">
                <g id="design-systems-copy-3" transform="translate(0.000000, 72.000000)">
                    <g id="icon-list-DesSys-inactive" transform="translate(16.000000, 16.000000)">
                        <rect id="Rectangle" fill="#C5E9E9" x="0" y="0" width="32" height="32" rx="16"></rect>
                        <path d="M11.6062063,14.1654476 L11.6062063,12.1543792 C11.8811189,12.009957 12.0703671,11.7297866 12.0703671,11.4032103 C12.0703671,11.3845612 12.0655594,11.3672132 12.0646853,11.348564 L14.0244755,10.2261476 C14.145542,10.2881668 14.2810315,10.3258987 14.4270105,10.3258987 C14.5568182,10.3258987 14.6791958,10.2968408 14.7902098,10.2469652 L16.7495629,11.3693817 C16.7491259,11.3806579 16.7460664,11.3915004 16.7460664,11.4032103 C16.7460664,11.7146071 16.9178322,11.9843687 17.1722028,12.1339953 L17.1722028,14.4352092 C16.9541084,14.5635845 16.7993881,14.7804347 16.7596154,15.0367516 L14.784528,16.167842 C14.6848776,16.1296764 14.5773601,16.1066903 14.4641608,16.1066903 C14.3181818,16.1066903 14.1826923,16.1448559 14.0616259,16.2068751 L12.055507,15.0580029 C12.0633741,15.011597 12.0703671,14.965191 12.0703671,14.9166166 C12.0703671,14.5900403 11.8811189,14.3098698 11.6062063,14.1654476 M20.0091783,20.5907179 L18.0327797,21.7226758 C17.909528,21.6576207 17.770542,21.6172866 17.6201923,21.6172866 C17.4702797,21.6172866 17.3312937,21.6576207 17.2076049,21.7226758 L15.3352273,20.6501349 C15.3356643,20.6405934 15.3382867,20.6314857 15.3382867,20.6219443 C15.3382867,20.2806222 15.1324301,19.9883082 14.8374126,19.8508252 L14.8374126,17.7330665 C15.1324301,17.5955835 15.3382867,17.3032695 15.3382867,16.962381 C15.3382867,16.9385275 15.3326049,16.9164088 15.3308566,16.892989 L17.1215035,15.8677214 C17.2631119,15.9640029 17.4344406,16.021685 17.6201923,16.021685 C17.8059441,16.021685 17.9777098,15.9640029 18.1188811,15.8672877 L19.8990385,16.8869172 C19.8968531,16.9120718 19.8911713,16.936359 19.8911713,16.962381 C19.8911713,17.3080402 20.1013986,17.6038238 20.402972,17.7387046 L20.402972,19.9059051 C20.1730769,20.0533632 20.0196678,20.304042 20.0091783,20.5907179 M22.7421329,15.0649421 C22.4274476,15.0649421 22.166521,15.2869967 22.111451,15.5801781 L21.1451049,16.1951651 C21.0301573,16.1400852 20.9020979,16.1066903 20.7652972,16.1066903 C20.6398601,16.1066903 20.520979,16.1335797 20.4130245,16.1804193 L18.4851399,15.0753509 C18.4541084,14.7943131 18.2867133,14.5557779 18.0463287,14.4234993 L18.0463287,12.1457052 C18.3125,11.9991145 18.4943182,11.7232811 18.4943182,11.4032103 C18.4943182,11.3542021 18.4877622,11.3064951 18.479458,11.2600892 L20.3846154,10.0470294 C20.4326923,10.0583056 20.4820804,10.0656785 20.5336538,10.0656785 C20.888549,10.0656785 21.1761364,9.78420698 21.1761364,9.43681303 C21.1761364,9.08985277 20.888549,8.80794756 20.5336538,8.80794756 C20.2185315,8.80794756 19.9576049,9.03043582 19.902972,9.32318354 L17.9016608,10.5969614 C17.8129371,10.5674698 17.7194056,10.5475196 17.6201923,10.5475196 C17.4785839,10.5475196 17.347028,10.5835167 17.2285839,10.6420662 L15.2945804,9.5339619 C15.2963287,9.51271058 15.3011364,9.49232667 15.3011364,9.47064165 C15.3011364,8.998342 14.909965,8.61538462 14.4270105,8.61538462 C13.944493,8.61538462 13.5528846,8.998342 13.5528846,9.47064165 C13.5528846,9.47844826 13.5550699,9.48538746 13.5550699,9.49362777 L11.5681818,10.6316574 C11.4549825,10.5791797 11.3295455,10.5475196 11.1962413,10.5475196 C10.7132867,10.5475196 10.3221154,10.9309106 10.3221154,11.4032103 C10.3221154,11.7081016 10.486451,11.9743936 10.7320804,12.125755 L10.7320804,14.1940719 C10.486451,14.3454333 10.3221154,14.6112916 10.3221154,14.9166166 C10.3221154,14.9487104 10.3282343,14.9790694 10.3312937,15.0107296 L9.40690559,15.5992609 C9.35882867,15.5879847 9.30944056,15.5806118 9.25786713,15.5806118 C8.90297203,15.5806118 8.61538462,15.8620833 8.61538462,16.2090436 C8.61538462,16.5564375 8.90297203,16.837909 9.25786713,16.837909 C9.57298951,16.837909 9.83391608,16.6158545 9.88898601,16.3231067 L10.8583916,15.7059512 C10.9624126,15.7484538 11.076486,15.7723073 11.1962413,15.7723073 C11.2928322,15.7723073 11.3846154,15.7532245 11.4715909,15.7246003 L13.5922203,16.9393949 C13.5917832,16.9472015 13.590035,16.9545744 13.590035,16.962381 C13.590035,17.2520928 13.7377622,17.5071086 13.9632867,17.6619396 L13.9632867,19.921952 C13.7377622,20.076783 13.590035,20.3317988 13.590035,20.6219443 C13.590035,20.6228117 13.590035,20.6241128 13.590035,20.6249802 L11.201049,22.1459673 C11.1534091,22.1346911 11.104021,22.1268845 11.0520105,22.1268845 C10.6975524,22.1268845 10.409965,22.4087897 10.409965,22.7561836 C10.409965,23.1031439 10.6975524,23.3846154 11.0520105,23.3846154 C11.3671329,23.3846154 11.6280594,23.1625608 11.6831294,22.8698131 L14.0432692,21.3670415 C14.1687063,21.4351324 14.3103147,21.4772014 14.4641608,21.4772014 C14.6075175,21.4772014 14.7412587,21.4399031 14.861014,21.3800525 L16.7473776,22.4604 C16.7473776,22.464737 16.7460664,22.4686403 16.7460664,22.4725436 C16.7460664,22.945277 17.1372378,23.3282343 17.6201923,23.3282343 C18.1031469,23.3282343 18.4943182,22.945277 18.4943182,22.4725436 C18.4943182,22.4686403 18.493007,22.464737 18.493007,22.4608337 L20.4291958,21.3514283 C20.5611888,21.4294943 20.7145979,21.4772014 20.8798077,21.4772014 C21.3627622,21.4772014 21.7539336,21.094244 21.7539336,20.6219443 C21.7539336,20.2901636 21.5590035,20.0056562 21.2770979,19.8638362 L21.2770979,17.6528319 C21.4956294,17.4975672 21.6394231,17.2468884 21.6394231,16.962381 C21.6394231,16.9459004 21.6354895,16.9302872 21.6346154,16.9142403 L22.5935315,16.3040239 C22.6416084,16.3153001 22.6905594,16.322673 22.7421329,16.322673 C23.097028,16.322673 23.3846154,16.0412015 23.3846154,15.6938076 C23.3846154,15.3468473 23.097028,15.0649421 22.7421329,15.0649421" id="icon-designsys" fill="#FFFFFF"></path>
                    </g>
                </g>
            </g>
        </g>
    </g>
</svg>