<?xml version="1.0" encoding="UTF-8"?>
<svg width="32px" height="32px" viewBox="0 0 32 32" version="1.1" xmlns="http://www.w3.org/2000/svg" xmlns:xlink="http://www.w3.org/1999/xlink">
    <!-- Generator: sketchtool 53.2 (72643) - https://sketchapp.com -->
    <title>0D854FCE-779E-4128-90ED-ACBC7C40E3B7</title>
    <desc>Created with sketchtool.</desc>
    <g id="lists" stroke="none" stroke-width="1" fill="none" fill-rule="evenodd">
        <g id="Li-/-DesignSystems-list3" transform="translate(-64.000000, -615.000000)">
            <g id="Stacked-Group" transform="translate(48.000000, 311.000000)">
                <g id="theme" transform="translate(0.000000, 288.000000)">
                    <g id="icon-list-Theme-inactive" transform="translate(16.000000, 16.000000)">
                        <rect id="Rectangle" fill="#CFE1F3" x="0" y="0" width="32" height="32" rx="16"></rect>
                        <path d="M16.8,19.2 C16.3584,19.2 16,19.5584 16,20 C16,20.4416 16.3584,20.8 16.8,20.8 C17.2416,20.8 17.6,20.4416 17.6,20 C17.6,19.5584 17.2416,19.2 16.8,19.2 M20,17.6 C19.5584,17.6 19.2,17.9584 19.2,18.4 C19.2,18.8416 19.5584,19.2 20,19.2 C20.4416,19.2 20.8,18.8416 20.8,18.4 C20.8,17.9584 20.4416,17.6 20,17.6 M21.51184,21.61696 C20.26432,22.63792 18.47728,23.2 16.48,23.2 C12.24544,23.2 8.8,19.75456 8.8,15.52 C8.8,13.52272 9.36208,11.73568 10.38304,10.48816 C11.26048,9.41536 12.43312,8.8 13.6,8.8 C14.91376,8.8 16.48,9.29968 16.48,11.68 C16.48,14.12032 17.87968,15.52 20.32,15.52 C22.70032,15.52 23.2,17.08624 23.2,18.4 C23.2,19.56688 22.58464,20.73952 21.51184,21.61696 M20.2352941,14.5882353 C18.3529412,14.5882353 17.4117647,13.6470588 17.4117647,11.7647059 C17.4117647,8.94117647 15.5294118,8 13.6470588,8 C10.8235294,8 8,10.8235294 8,15.5294118 C8,20.2352941 11.7647059,24 16.4705882,24 C21.1764706,24 24,21.1764706 24,18.3529412 C24,16.4705882 23.0588235,14.5882353 20.2352941,14.5882353 M13.6,11.2 C13.1584,11.2 12.8,11.5584 12.8,12 C12.8,12.4416 13.1584,12.8 13.6,12.8 C14.0416,12.8 14.4,12.4416 14.4,12 C14.4,11.5584 14.0416,11.2 13.6,11.2 M12.8,17.6 C12.3584,17.6 12,17.9584 12,18.4 C12,18.8416 12.3584,19.2 12.8,19.2 C13.2416,19.2 13.6,18.8416 13.6,18.4 C13.6,17.9584 13.2416,17.6 12.8,17.6 M12.8,14.4 C12.8,13.9584 12.4416,13.6 12,13.6 C11.5584,13.6 11.2,13.9584 11.2,14.4 C11.2,14.8416 11.5584,15.2 12,15.2 C12.4416,15.2 12.8,14.8416 12.8,14.4" id="Fill-1" fill="#FFFFFF"></path>
                    </g>
                </g>
            </g>
        </g>
    </g>
</svg>