<?xml version="1.0" encoding="UTF-8"?>
<svg width="40px" height="40px" viewBox="0 0 40 40" version="1.1" xmlns="http://www.w3.org/2000/svg" xmlns:xlink="http://www.w3.org/1999/xlink">
    <!-- Generator: sketchtool 53.2 (72643) - https://sketchapp.com -->
    <title>B4D0CCBC-B394-441E-A69D-93083B8FF750</title>
    <desc>Created with sketchtool.</desc>
    <g id="Design-systems-dashboard" stroke="none" stroke-width="1" fill="none" fill-rule="evenodd">
        <g id="design-systems-dashboard---with-themes" transform="translate(-72.000000, -706.000000)">
            <g id="data-sources" transform="translate(48.000000, 682.000000)">
                <g id="icon-list-Theme" transform="translate(24.000000, 24.000000)">
                    <rect id="Rectangle" fill="#4186CF" x="0" y="0" width="40" height="40" rx="20"></rect>
                    <path d="M21,24 C20.448,24 20,24.448 20,25 C20,25.552 20.448,26 21,26 C21.552,26 22,25.552 22,25 C22,24.448 21.552,24 21,24 M25,22 C24.448,22 24,22.448 24,23 C24,23.552 24.448,24 25,24 C25.552,24 26,23.552 26,23 C26,22.448 25.552,22 25,22 M26.8898,27.0212 C25.3304,28.2974 23.0966,29 20.6,29 C15.3068,29 11,24.6932 11,19.4 C11,16.9034 11.7026,14.6696 12.9788,13.1102 C14.0756,11.7692 15.5414,11 17,11 C18.6422,11 20.6,11.6246 20.6,14.6 C20.6,17.6504 22.3496,19.4 25.4,19.4 C28.3754,19.4 29,21.3578 29,23 C29,24.4586 28.2308,25.9244 26.8898,27.0212 M25.2941176,18.2352941 C22.9411765,18.2352941 21.7647059,17.0588235 21.7647059,14.7058824 C21.7647059,11.1764706 19.4117647,10 17.0588235,10 C13.5294118,10 10,13.5294118 10,19.4117647 C10,25.2941176 14.7058824,30 20.5882353,30 C26.4705882,30 30,26.4705882 30,22.9411765 C30,20.5882353 28.8235294,18.2352941 25.2941176,18.2352941 M17,14 C16.448,14 16,14.448 16,15 C16,15.552 16.448,16 17,16 C17.552,16 18,15.552 18,15 C18,14.448 17.552,14 17,14 M16,22 C15.448,22 15,22.448 15,23 C15,23.552 15.448,24 16,24 C16.552,24 17,23.552 17,23 C17,22.448 16.552,22 16,22 M16,18 C16,17.448 15.552,17 15,17 C14.448,17 14,17.448 14,18 C14,18.552 14.448,19 15,19 C15.552,19 16,18.552 16,18" id="Fill-1" fill="#FFFFFF"></path>
                </g>
            </g>
        </g>
    </g>
</svg>