<svg width="32" height="32" viewBox="0 0 32 32" fill="none" xmlns="http://www.w3.org/2000/svg">
<path d="M0 0.5C0 0.223858 0.223858 0 0.5 0H8.5C8.77614 0 9 0.223858 9 0.5V18.625C9 19.3844 9.61561 20 10.375 20V20C11.1344 20 11.75 19.3844 11.75 18.625V12.5C11.75 12.2239 11.9739 12 12.25 12V12C12.5261 12 12.75 12.2239 12.75 12.5V22.125C12.75 22.8844 13.3656 23.5 14.125 23.5V23.5C14.8844 23.5 15.5 22.8844 15.5 22.125V13.5C15.5 13.2239 15.7239 13 16 13V13C16.2761 13 16.5 13.2239 16.5 13.5V23.625C16.5 24.3844 17.1156 25 17.875 25V25C18.6344 25 19.25 24.3844 19.25 23.625V12.5C19.25 12.2239 19.4739 12 19.75 12V12C20.0261 12 20.25 12.2239 20.25 12.5V20.125C20.25 20.8844 20.8656 21.5 21.625 21.5V21.5C22.3844 21.5 23 20.8844 23 20.125V10.5C23 10.2239 23.2239 10 23.5 10H31.5C31.7761 10 32 10.2239 32 10.5V16C32 24.8366 24.8366 32 16 32V32C7.16344 32 0 24.8366 0 16V0.5Z" fill="white"/>
<path d="M23 0.5C23 0.223858 23.2239 0 23.5 0H31.5C31.7761 0 32 0.223858 32 0.5V7C32 7.27614 31.7761 7.5 31.5 7.5H23.5C23.2239 7.5 23 7.27614 23 7V0.5Z" fill="white"/>
<circle cx="13.5" cy="3.75" r="1.75" fill="white"/>
<circle cx="18.5" cy="3.75" r="1.75" fill="white"/>
</svg>
